<?xml version="1.0" encoding="UTF-8" standalone="no"?>
<!-- Created with Inkscape (http://www.inkscape.org/) -->

<svg
   width="26.458334mm"
   height="26.458334mm"
   viewBox="0 0 26.458334 26.458334"
   version="1.1"
   id="svg1"
   xml:space="preserve"
   inkscape:export-filename="bitmap.svg"
   inkscape:export-xdpi="96"
   inkscape:export-ydpi="96"
   xmlns:inkscape="http://www.inkscape.org/namespaces/inkscape"
   xmlns:sodipodi="http://sodipodi.sourceforge.net/DTD/sodipodi-0.dtd"
   xmlns="http://www.w3.org/2000/svg"
   xmlns:svg="http://www.w3.org/2000/svg"><sodipodi:namedview
     id="namedview1"
     pagecolor="#ffffff"
     bordercolor="#000000"
     borderopacity="0.25"
     inkscape:showpageshadow="2"
     inkscape:pageopacity="0.0"
     inkscape:pagecheckerboard="0"
     inkscape:deskcolor="#d1d1d1"
     inkscape:document-units="mm" /><defs
     id="defs1" /><g
     inkscape:label="Layer 1"
     inkscape:groupmode="layer"
     id="layer1"><path
       style="display:none;fill:#fef6f0;fill-opacity:1;stroke:none;stroke-width:1"
       d="m 5.1997915,0.81544233 c -0.121,0.0158 -0.2436,0.0144 -0.3652,0.0295 -0.3104,0.0386 -0.6247,0.10488 -0.9208,0.20730997 -1.38617,0.4795301 -2.49783,1.5813081 -2.95799007,2.9790371 -0.2411,0.73234 -0.2329,1.477475 -0.2329,2.238374 v 2.38129 8.7630026 2.635249 c 0,0.553439 -0.03,1.117043 0.036,1.666873 0.097,0.79957 0.40900007,1.578335 0.89200007,2.222501 0.719,0.95887 1.79359,1.620196 2.97696,1.818716 0.4248,0.0713 0.8562,0.0704 1.28587,0.0704 h 1.3335 9.5091195 3.048 c 0.6366,0 1.29003,0.039 1.92088,-0.0544 1.72673,-0.25559 3.24445,-1.491916 3.7778,-3.168213 0.2498,-0.785439 0.2386,-1.582542 0.2386,-2.397124 V 17.58858 8.0953284 6.2062034 c 0,-0.49843 0.012,-0.99923 -0.071,-1.492249 -0.1211,-0.72145 -0.4146,-1.411839 -0.8485,-2.00025 -0.7562,-1.02564 -1.9259,-1.71517507 -3.1927,-1.86871707 -0.3427,-0.0415 -0.687,-0.0362 -1.03188,-0.0362 h -1.27 -9.4773797 -3.0956198 -1.01604 c -0.1774,0 -0.3638,-0.0163 -0.5398,0.00675 m 1.09536,4.14116907 c 0.1225,-0.0144 0.2434,0.00139 0.3652,0.0099 0.4978,0.0349 1.01268,0.21906 1.36255,0.58942 0.8159,0.86375 0.6764,2.360364 -0.3466,2.998723 -0.2767,0.17268 -0.5978,0.27485 -0.9208,0.31399 -0.6713,0.0814 -1.39092,-0.0697 -1.88906,-0.55171 -0.8261,-0.799359 -0.7266,-2.262115 0.1904,-2.944522 0.3702,-0.27553 0.7913,-0.36307 1.23824,-0.41581 M 21.931161,22.049493 h -3.92112 v -6.254789 c 0,-0.83639 -0.067,-1.942449 -0.8731,-2.421685 -0.2531,-0.15055 -0.5495,-0.21356 -0.8413,-0.21356 -0.2389,0 -0.4705,0.018 -0.6985,0.0965 -0.6169,0.2123 -1.10124,0.79094 -1.27908,1.411625 -0.1008,0.35002 -0.086,0.71911 -0.086,1.079496 v 1.428773 4.873626 h -3.937 c 0,-2.787142 -0.016,-5.577606 -0.016,-8.366125 0,-0.77686 -0.016,-1.555564 -0.016,-2.333625 v -0.65088 c 0,-0.0739 -0.024,-0.197421 0.0095,-0.264831 0.03,-0.0607 0.1576,-0.0368 0.2126,-0.0368 h 0.6667 2.23837 0.5874 c 0.056,0 0.166,-0.0206 0.2126,0.0163 0.031,0.0247 0.025,0.0756 0.025,0.11064 6.6e-4,0.100561 1e-5,0.201101 1e-5,0.301631 0,0.40304 0.016,0.80348 0.016,1.206499 0.4196,-0.62196 0.9005,-1.171596 1.58751,-1.504022 0.5448,-0.26359 1.14708,-0.35335 1.74625,-0.35335 1.25089,0 2.46397,0.420281 3.27637,1.412876 0.1937,0.23659 0.3637,0.50294 0.4978,0.77788 0.6402,1.313427 0.5915,2.752934 0.5915,4.175126 v 5.508625 m -13.4778795,0 h -3.88827 l -0.016,-11.652251 h 2.8575 0.7302 l 0.2761,0.0163 0.025,0.190061 v 0.52387 2.143125 z"
       id="path1"
       sodipodi:insensitive="true" /><path
       style="fill:#fef6f0;fill-opacity:1;stroke:none;stroke-width:1"
       d="m 0.83312078,5.0846572 v 0.051227 l 3.48318692,2.6302548 5.6345661,4.278254 2.3050482,1.748234 0.973245,0.659343 0.973243,-0.659343 2.30505,-1.748234 5.634568,-4.278254 3.483187,-2.630255 -0.71713,-0.051227 H 23.473833 18.402725 0.83312078 M 0.11599398,6.5189115 V 20.093092 L 2.6771608,18.352805 7.5433777,15.038902 9.541087,13.690177 8.414174,12.77464 6.4164645,11.260943 2.421044,8.2271459 1.0892377,7.2142989 0.11599398,6.5189115 m 26.17512102,0 -6.351692,4.8209205 -1.895263,1.434808 -1.126913,0.915537 1.99771,1.348725 4.866216,3.313903 2.561167,1.740287 V 10.51433 7.7482704 L 26.291113,6.5189115 M 1.038014,21.373677 H 25.42032 l -0.768352,-0.585195 -1.690367,-1.1564 -4.814995,-3.292639 -1.792817,-1.216317 -0.717124,-0.42271 -0.563458,0.328048 -1.280584,0.973245 -0.563456,0.353267 -0.563458,-0.353267 -1.280582,-0.973245 -0.563456,-0.328048 -0.717126,0.42271 -1.7928169,1.216317 -4.8149932,3.292639 -1.6903704,1.1564 z"
       id="path2" /></g></svg>
