<svg width="408" height="407" viewBox="0 0 408 407" fill="none" xmlns="http://www.w3.org/2000/svg">
<path d="M211.096 204.589C209.109 202.907 206.264 202.698 204.052 204.072C201.841 205.446 200.767 208.089 201.395 210.616C204.911 224.766 211.661 247.825 220.532 271.248C229.353 294.539 240.484 318.766 252.916 334.839C254.41 336.772 256.927 337.605 259.28 336.947C261.632 336.288 263.35 334.269 263.625 331.841C264.159 327.106 265.381 319.508 267.278 312.305C268.226 308.705 269.312 305.321 270.513 302.493C271.068 301.186 271.612 300.085 272.13 299.176C289.336 302.388 325.778 304.387 364.082 291.875C366.68 291.026 368.375 288.528 368.207 285.8C368.037 283.072 366.046 280.803 363.363 280.282C336.404 275.042 267.615 252.453 211.096 204.589Z" fill="url(#paint0_linear_101_65)" stroke="url(#paint1_linear_101_65)" stroke-width="12" stroke-linejoin="round"/>
<path d="M207.731 209.521C207.598 206.92 205.803 204.703 203.288 204.03C200.773 203.357 198.111 204.384 196.698 206.57C188.786 218.817 176.59 239.519 165.581 262.015C154.633 284.387 144.584 309.081 141.371 329.146C140.984 331.558 142.099 333.964 144.189 335.229C146.279 336.493 148.927 336.364 150.885 334.903C154.704 332.052 161.08 327.744 167.631 324.198C170.904 322.426 174.116 320.902 177 319.843C178.332 319.354 179.508 318.997 180.525 318.753C189.956 333.497 213.437 361.438 248.772 380.806C251.169 382.12 254.15 381.648 256.024 379.658C257.898 377.668 258.189 374.663 256.733 372.349C242.106 349.106 211.506 283.487 207.731 209.521Z" fill="url(#paint2_linear_101_65)" stroke="url(#paint3_linear_101_65)" stroke-width="12" stroke-linejoin="round"/>
<path d="M201.832 210.441C203.637 208.565 204.026 205.738 202.796 203.444C201.565 201.15 198.995 199.91 196.434 200.377C182.089 202.988 158.648 208.261 134.71 215.628C110.905 222.954 86.0212 232.525 69.1911 243.911C67.1679 245.28 66.1762 247.74 66.6841 250.129C67.1921 252.518 69.0986 254.361 71.5036 254.789C76.1959 255.623 83.7005 257.324 90.7686 259.674C94.3012 260.849 97.6099 262.148 100.356 263.526C101.624 264.162 102.689 264.776 103.563 265.35C99.266 282.317 94.9591 318.559 105.016 357.579C105.698 360.226 108.083 362.077 110.816 362.082C113.549 362.086 115.94 360.242 116.631 357.598C123.57 331.026 150.479 263.809 201.832 210.441Z" fill="url(#paint4_linear_101_65)" stroke="url(#paint5_linear_101_65)" stroke-width="12" stroke-linejoin="round"/>
<path d="M197.125 206.769C199.728 206.802 202.056 205.151 202.886 202.684C203.717 200.216 202.862 197.494 200.769 195.946C189.049 187.273 169.163 173.788 147.41 161.373C125.779 149.028 101.771 137.433 81.9514 132.952C79.5688 132.413 77.0967 133.373 75.7019 135.379C74.3073 137.384 74.2679 140.036 75.602 142.082C78.2047 146.074 82.0994 152.711 85.2225 159.473C86.7835 162.853 88.1006 166.154 88.9748 169.1C89.3786 170.46 89.6602 171.657 89.8391 172.687C74.5264 181.164 45.1517 202.824 23.58 236.859C22.1169 239.168 22.3992 242.173 24.2663 244.169C26.1335 246.165 29.1138 246.647 31.5149 245.341C55.6396 232.218 123.068 205.843 197.125 206.769Z" fill="url(#paint6_linear_101_65)" stroke="url(#paint7_linear_101_65)" stroke-width="12" stroke-linejoin="round"/>
<path d="M196.34 201.748C198.327 203.43 201.173 203.639 203.384 202.265C205.596 200.891 206.669 198.248 206.042 195.721C202.525 181.571 195.776 158.512 186.905 135.089C178.083 111.797 166.953 87.5712 154.521 71.4976C153.027 69.5653 150.509 68.7316 148.157 69.3901C145.804 70.0487 144.086 72.0683 143.812 74.4956C143.277 79.2314 142.055 86.8288 140.159 94.0317C139.211 97.6318 138.124 101.016 136.923 103.844C136.369 105.15 135.824 106.252 135.306 107.161C118.101 103.949 81.6586 101.95 43.355 114.462C40.7569 115.311 39.0611 117.809 39.23 120.537C39.399 123.265 41.3905 125.534 44.0737 126.055C71.0323 131.294 139.821 153.884 196.34 201.748Z" fill="url(#paint8_linear_101_65)" stroke="url(#paint9_linear_101_65)" stroke-width="12" stroke-linejoin="round"/>
<path d="M199.705 196.816C199.838 199.417 201.633 201.634 204.148 202.307C206.663 202.98 209.326 201.953 210.738 199.767C218.65 187.519 230.847 166.818 241.856 144.321C252.803 121.95 262.852 97.2554 266.066 77.1911C266.452 74.7791 265.338 72.3729 263.248 71.1082C261.158 69.8436 258.509 69.9726 256.552 71.4337C252.732 74.2846 246.356 78.5925 239.806 82.1384C236.532 83.9107 233.321 85.4346 230.437 86.494C229.105 86.9833 227.929 87.3403 226.912 87.5842C217.48 72.8402 194 44.8991 158.665 25.5304C156.268 24.2168 153.286 24.6892 151.413 26.6791C149.539 28.6693 149.247 31.6741 150.703 33.9876C165.331 57.2309 195.931 122.85 199.705 196.816Z" fill="url(#paint10_linear_101_65)" stroke="url(#paint11_linear_101_65)" stroke-width="12" stroke-linejoin="round"/>
<path d="M205.604 195.896C203.799 197.772 203.41 200.598 204.641 202.893C205.872 205.187 208.442 206.426 211.003 205.96C225.348 203.348 248.789 198.076 272.727 190.709C296.532 183.383 321.415 173.812 338.245 162.425C340.269 161.056 341.26 158.597 340.752 156.207C340.244 153.818 338.338 151.975 335.933 151.548C331.241 150.713 323.736 149.012 316.668 146.662C313.135 145.487 309.827 144.189 307.08 142.811C305.812 142.174 304.747 141.561 303.873 140.986C308.171 124.019 312.477 87.7773 302.421 48.757C301.739 46.1103 299.354 44.2594 296.621 44.2549C293.887 44.2505 291.496 46.094 290.806 48.7387C283.866 75.3105 256.957 142.528 205.604 195.896Z" fill="url(#paint12_linear_101_65)" stroke="url(#paint13_linear_101_65)" stroke-width="12" stroke-linejoin="round"/>
<path d="M210.313 199.567C207.709 199.534 205.382 201.185 204.551 203.652C203.72 206.119 204.575 208.842 206.668 210.39C218.389 219.063 238.274 232.548 260.027 244.963C281.659 257.308 305.666 268.903 325.486 273.384C327.869 273.923 330.341 272.963 331.736 270.957C333.13 268.952 333.17 266.3 331.836 264.254C329.233 260.262 325.338 253.625 322.215 246.863C320.654 243.483 319.337 240.182 318.463 237.236C318.059 235.876 317.777 234.679 317.598 233.649C332.911 225.172 362.286 203.512 383.857 169.477C385.321 167.168 385.038 164.163 383.171 162.167C381.304 160.17 378.324 159.689 375.923 160.995C351.798 174.118 284.369 200.493 210.313 199.567Z" fill="url(#paint14_linear_101_65)" stroke="url(#paint15_linear_101_65)" stroke-width="12" stroke-linejoin="round"/>
<defs>
<linearGradient id="paint0_linear_101_65" x1="288.088" y1="188.835" x2="284.68" y2="331.168" gradientUnits="userSpaceOnUse">
<stop stop-color="#062F3F"/>
<stop offset="0.395" stop-color="#00AFCD"/>
<stop offset="1" stop-color="#F5F5F5"/>
</linearGradient>
<linearGradient id="paint1_linear_101_65" x1="207.218" y1="209.168" x2="276.512" y2="359.234" gradientUnits="userSpaceOnUse">
<stop stop-color="#F5F5F5"/>
<stop offset="0.695" stop-color="#00AFCD"/>
<stop offset="1" stop-color="#062F3F"/>
</linearGradient>
<linearGradient id="paint2_linear_101_65" x1="271.905" y1="254.882" x2="165.784" y2="349.795" gradientUnits="userSpaceOnUse">
<stop stop-color="#062F3F"/>
<stop offset="0.395" stop-color="#00AFCD"/>
<stop offset="1" stop-color="#F5F5F5"/>
</linearGradient>
<linearGradient id="paint3_linear_101_65" x1="201.738" y1="209.826" x2="139.729" y2="363.046" gradientUnits="userSpaceOnUse">
<stop stop-color="#F5F5F5"/>
<stop offset="0.695" stop-color="#00AFCD"/>
<stop offset="1" stop-color="#062F3F"/>
</linearGradient>
<linearGradient id="paint4_linear_101_65" x1="212.669" y1="288.277" x2="70.8401" y2="275.844" gradientUnits="userSpaceOnUse">
<stop stop-color="#062F3F"/>
<stop offset="0.395" stop-color="#00AFCD"/>
<stop offset="1" stop-color="#F5F5F5"/>
</linearGradient>
<linearGradient id="paint5_linear_101_65" x1="197.508" y1="206.28" x2="43.3484" y2="265.913" gradientUnits="userSpaceOnUse">
<stop stop-color="#F5F5F5"/>
<stop offset="0.695" stop-color="#00AFCD"/>
<stop offset="1" stop-color="#062F3F"/>
</linearGradient>
<linearGradient id="paint6_linear_101_65" x1="147.783" y1="267.935" x2="59.7944" y2="156.006" gradientUnits="userSpaceOnUse">
<stop stop-color="#062F3F"/>
<stop offset="0.395" stop-color="#00AFCD"/>
<stop offset="1" stop-color="#F5F5F5"/>
</linearGradient>
<linearGradient id="paint7_linear_101_65" x1="197.2" y1="200.769" x2="48.2239" y2="129.163" gradientUnits="userSpaceOnUse">
<stop stop-color="#F5F5F5"/>
<stop offset="0.695" stop-color="#00AFCD"/>
<stop offset="1" stop-color="#062F3F"/>
</linearGradient>
<linearGradient id="paint8_linear_101_65" x1="119.349" y1="217.502" x2="122.757" y2="75.1694" gradientUnits="userSpaceOnUse">
<stop stop-color="#062F3F"/>
<stop offset="0.395" stop-color="#00AFCD"/>
<stop offset="1" stop-color="#F5F5F5"/>
</linearGradient>
<linearGradient id="paint9_linear_101_65" x1="200.218" y1="197.168" x2="130.924" y2="47.1029" gradientUnits="userSpaceOnUse">
<stop stop-color="#F5F5F5"/>
<stop offset="0.695" stop-color="#00AFCD"/>
<stop offset="1" stop-color="#062F3F"/>
</linearGradient>
<linearGradient id="paint10_linear_101_65" x1="135.532" y1="151.455" x2="241.652" y2="56.5416" gradientUnits="userSpaceOnUse">
<stop stop-color="#062F3F"/>
<stop offset="0.395" stop-color="#00AFCD"/>
<stop offset="1" stop-color="#F5F5F5"/>
</linearGradient>
<linearGradient id="paint11_linear_101_65" x1="205.698" y1="196.511" x2="267.707" y2="43.2911" gradientUnits="userSpaceOnUse">
<stop stop-color="#F5F5F5"/>
<stop offset="0.695" stop-color="#00AFCD"/>
<stop offset="1" stop-color="#062F3F"/>
</linearGradient>
<linearGradient id="paint12_linear_101_65" x1="194.767" y1="118.06" x2="336.596" y2="130.492" gradientUnits="userSpaceOnUse">
<stop stop-color="#062F3F"/>
<stop offset="0.395" stop-color="#00AFCD"/>
<stop offset="1" stop-color="#F5F5F5"/>
</linearGradient>
<linearGradient id="paint13_linear_101_65" x1="209.928" y1="200.056" x2="364.088" y2="140.424" gradientUnits="userSpaceOnUse">
<stop stop-color="#F5F5F5"/>
<stop offset="0.695" stop-color="#00AFCD"/>
<stop offset="1" stop-color="#062F3F"/>
</linearGradient>
<linearGradient id="paint14_linear_101_65" x1="259.654" y1="138.401" x2="347.643" y2="250.33" gradientUnits="userSpaceOnUse">
<stop stop-color="#062F3F"/>
<stop offset="0.395" stop-color="#00AFCD"/>
<stop offset="1" stop-color="#F5F5F5"/>
</linearGradient>
<linearGradient id="paint15_linear_101_65" x1="210.237" y1="205.567" x2="359.214" y2="277.173" gradientUnits="userSpaceOnUse">
<stop stop-color="#F5F5F5"/>
<stop offset="0.695" stop-color="#00AFCD"/>
<stop offset="1" stop-color="#062F3F"/>
</linearGradient>
</defs>
</svg>
