<svg width="1045" height="166" viewBox="0 0 1045 166" fill="none" xmlns="http://www.w3.org/2000/svg">
<rect x="280" y="97" width="100" height="18" rx="9" fill="url(#paint0_linear_277_10)"/>
<rect x="420" y="97" width="100" height="18" rx="9" fill="url(#paint1_linear_277_10)"/>
<rect x="560" y="97" width="100" height="18" rx="9" fill="#062F3F"/>
<rect x="700" y="97" width="100" height="18" rx="9" fill="#062F3F"/>
<rect x="140" y="97" width="100" height="18" rx="9" fill="url(#paint2_linear_277_10)"/>
<rect y="97" width="100" height="18" rx="9" fill="url(#paint3_linear_277_10)"/>
<path d="M1044.5 78.5C954.1 83.3 825.833 28.1667 773 0C786.6 42.8 847 89.5 875.5 107.5C867.5 138.3 853.5 159 847.5 165.5C903.1 155.1 1002 103.167 1044.5 78.5Z" fill="#062F3F"/>
<defs>
<linearGradient id="paint0_linear_277_10" x1="280" y1="106" x2="380" y2="106" gradientUnits="userSpaceOnUse">
<stop stop-color="#062F3F" stop-opacity="0"/>
<stop offset="0.6" stop-color="#062F3F" stop-opacity="0.7"/>
<stop offset="1" stop-color="#062F3F"/>
</linearGradient>
<linearGradient id="paint1_linear_277_10" x1="420" y1="106" x2="520" y2="106" gradientUnits="userSpaceOnUse">
<stop stop-color="#062F3F" stop-opacity="0"/>
<stop offset="0.6" stop-color="#062F3F"/>
<stop offset="1" stop-color="#062F3F"/>
</linearGradient>
<linearGradient id="paint2_linear_277_10" x1="140" y1="106" x2="240" y2="106" gradientUnits="userSpaceOnUse">
<stop stop-color="#062F3F" stop-opacity="0"/>
<stop offset="0.8" stop-color="#062F3F"/>
<stop offset="1" stop-color="#062F3F"/>
</linearGradient>
<linearGradient id="paint3_linear_277_10" x1="0" y1="106" x2="100" y2="106" gradientUnits="userSpaceOnUse">
<stop stop-color="#062F3F" stop-opacity="0"/>
<stop offset="0.9" stop-color="#062F3F"/>
<stop offset="1" stop-color="#062F3F"/>
</linearGradient>
</defs>
</svg>
