<svg width="106" height="47" viewBox="0 0 106 47" fill="none" xmlns="http://www.w3.org/2000/svg">
<path d="M1.02984 2.24247C0.924696 1.82176 1.10268 1.38123 1.47057 1.15165C1.83845 0.922061 2.31239 0.955747 2.6441 1.23506C11.0132 8.28208 21.2025 11.6087 25.1897 12.3792C25.6375 12.4657 25.97 12.8443 25.9981 13.2995C26.0262 13.7547 25.7427 14.1712 25.3089 14.3121C19.6621 16.1462 14.2869 15.8752 11.6883 15.4067C11.6256 15.5219 11.5598 15.6579 11.4923 15.816C11.317 16.2263 11.1576 16.7197 11.0178 17.2474C10.7381 18.3036 10.5576 19.4187 10.4788 20.1128C10.433 20.5167 10.1471 20.8527 9.7558 20.9627C9.36446 21.0727 8.94547 20.9348 8.69588 20.614C6.84021 18.2283 5.1835 14.6405 3.87359 11.2017C2.5554 7.7411 1.55265 4.33432 1.02984 2.24247Z" fill="url(#paint0_linear_104_17)" stroke="url(#paint1_linear_104_17)" stroke-width="2" stroke-linejoin="round"/>
<rect x="17" y="24" width="88" height="22" rx="8" fill="url(#paint2_linear_104_17)"/>
<rect x="17" y="24" width="88" height="22" rx="8" stroke="url(#paint3_linear_104_17)" stroke-width="2"/>
<path d="M42.648 40H41.676C41.52 40 41.436 39.916 41.436 39.76L41.328 32.932L39.12 39.808C39.084 39.94 38.988 40 38.856 40H37.908C37.776 40 37.68 39.94 37.644 39.796L35.388 32.728L35.28 39.76C35.28 39.916 35.196 40 35.04 40H34.068C33.912 40 33.828 39.916 33.84 39.76L34.116 31.456C34.128 31.3 34.212 31.216 34.368 31.216H35.952C36.084 31.216 36.18 31.276 36.216 31.408L38.388 38.092L40.548 31.408C40.584 31.276 40.68 31.216 40.812 31.216H42.348C42.504 31.216 42.588 31.3 42.6 31.456L42.876 39.76C42.888 39.916 42.804 40 42.648 40ZM47.3589 33.364C49.1229 33.364 50.4429 34.708 50.4429 36.7C50.4429 38.716 49.0629 40.192 47.2509 40.192C45.4869 40.192 44.1669 38.788 44.1669 36.808C44.1669 34.78 45.5349 33.364 47.3589 33.364ZM47.2029 34.6C46.2549 34.6 45.5709 35.38 45.5709 36.676C45.5709 38.056 46.3869 38.932 47.3949 38.932C48.3429 38.932 49.0269 38.128 49.0269 36.856C49.0269 35.452 48.2229 34.6 47.2029 34.6ZM57.1585 33.832L55.1665 39.808C55.1305 39.94 55.0345 40 54.9025 40H53.4745C53.3425 40 53.2465 39.94 53.2105 39.808L51.2185 33.832C51.1585 33.664 51.2305 33.556 51.4105 33.556H52.2865C52.4185 33.556 52.5145 33.616 52.5505 33.748L54.1225 38.476H54.2665L55.8265 33.748C55.8625 33.616 55.9585 33.556 56.0905 33.556H56.9665C57.1465 33.556 57.2185 33.664 57.1585 33.832ZM61.1045 33.352C63.0845 33.352 64.0205 34.912 63.9125 36.868C63.9005 37.012 63.8045 37.096 63.6605 37.096H59.3405C59.4005 38.404 60.1565 38.944 61.1165 38.944C61.6805 38.944 62.0645 38.752 62.3765 38.26C62.4485 38.14 62.5325 38.092 62.6645 38.092H63.5165C63.6965 38.092 63.7805 38.2 63.7085 38.368C63.2165 39.556 62.2085 40.192 60.9965 40.192C59.2205 40.192 57.9365 38.86 57.9365 36.82C57.9365 34.78 59.2085 33.352 61.1045 33.352ZM60.9845 34.6C59.9885 34.6 59.5805 35.284 59.4125 35.992H62.4725C62.4605 35.26 61.9565 34.6 60.9845 34.6ZM74.6103 33.364C75.8703 33.364 76.6383 34.252 76.6503 35.848L76.6863 39.76C76.6863 39.916 76.6023 40 76.4463 40H75.4383C75.2823 40 75.1983 39.916 75.1983 39.76L75.2223 36.208C75.2343 35.176 74.8743 34.708 74.2023 34.708C73.3863 34.708 72.7503 35.404 72.8343 36.928L72.8583 39.76C72.8583 39.916 72.7743 40 72.6183 40H71.6103C71.4543 40 71.3703 39.916 71.3703 39.76L71.3943 36.208C71.4063 35.176 71.0343 34.708 70.3743 34.708C69.6423 34.708 68.9223 35.284 69.0063 36.928L69.0303 39.76C69.0303 39.916 68.9463 40 68.7903 40H67.7823C67.6263 40 67.5423 39.916 67.5423 39.76L67.6023 33.796C67.6023 33.64 67.6863 33.556 67.8423 33.556H68.7423C68.8983 33.556 68.9823 33.64 68.9823 33.796L68.9943 34.432H69.0543C69.5343 33.76 70.1463 33.364 70.8663 33.364C71.6463 33.364 72.2463 33.748 72.5583 34.54H72.6423C73.1943 33.76 73.7943 33.364 74.6103 33.364ZM81.0849 33.352C83.0649 33.352 84.0009 34.912 83.8929 36.868C83.8809 37.012 83.7849 37.096 83.6409 37.096H79.3209C79.3809 38.404 80.1369 38.944 81.0969 38.944C81.6609 38.944 82.0449 38.752 82.3569 38.26C82.4289 38.14 82.5129 38.092 82.6449 38.092H83.4969C83.6769 38.092 83.7609 38.2 83.6889 38.368C83.1969 39.556 82.1889 40.192 80.9769 40.192C79.2009 40.192 77.9169 38.86 77.9169 36.82C77.9169 34.78 79.1889 33.352 81.0849 33.352ZM80.9649 34.6C79.9689 34.6 79.5609 35.284 79.3929 35.992H82.4529C82.4409 35.26 81.9369 34.6 80.9649 34.6ZM87.3876 31.384L87.4476 36.988C87.4476 37.144 87.3636 37.228 87.2076 37.228H86.1996C86.0436 37.228 85.9596 37.144 85.9596 36.988L86.0196 31.384C86.0196 31.228 86.1036 31.144 86.2596 31.144H87.1476C87.3036 31.144 87.3876 31.228 87.3876 31.384ZM87.4716 38.716V39.76C87.4716 39.916 87.3876 40 87.2316 40H86.0556C85.8996 40 85.8156 39.916 85.8156 39.76V38.716C85.8156 38.56 85.8996 38.476 86.0556 38.476H87.2316C87.3876 38.476 87.4716 38.56 87.4716 38.716Z" fill="#F5F5F5"/>
<path d="M41.436 39.76H41.586L41.586 39.7576L41.436 39.76ZM41.328 32.932L41.478 32.9296L41.1852 32.8861L41.328 32.932ZM39.12 39.808L38.977 39.7621L38.9753 39.7685L39.12 39.808ZM37.644 39.796L37.7898 39.7595L37.7869 39.7504L37.644 39.796ZM35.388 32.728L35.5309 32.6824L35.238 32.7257L35.388 32.728ZM35.28 39.76L35.13 39.7577V39.76H35.28ZM33.84 39.76L33.9897 39.7715L33.9899 39.765L33.84 39.76ZM34.116 31.456L33.9663 31.4445L33.9661 31.451L34.116 31.456ZM36.216 31.408L36.0711 31.4475L36.0733 31.4544L36.216 31.408ZM38.388 38.092L38.2453 38.1384L38.3884 38.5786L38.5307 38.1381L38.388 38.092ZM40.548 31.408L40.6909 31.4542L40.6927 31.4475L40.548 31.408ZM42.6 31.456L42.7501 31.451L42.7496 31.4445L42.6 31.456ZM42.876 39.76L42.7259 39.765L42.7264 39.7715L42.876 39.76ZM42.648 39.85H41.676V40.15H42.648V39.85ZM41.676 39.85C41.6239 39.85 41.6075 39.8363 41.6036 39.8324C41.5997 39.8285 41.586 39.8121 41.586 39.76H41.286C41.286 39.8639 41.3143 39.9675 41.3914 40.0446C41.4685 40.1217 41.5721 40.15 41.676 40.15V39.85ZM41.586 39.7576L41.478 32.9296L41.178 32.9344L41.286 39.7624L41.586 39.7576ZM41.1852 32.8861L38.9772 39.7621L39.2628 39.8539L41.4708 32.9779L41.1852 32.8861ZM38.9753 39.7685C38.965 39.8061 38.95 39.8222 38.938 39.8306C38.9244 39.8401 38.8998 39.85 38.856 39.85V40.15C38.9442 40.15 39.0336 40.1299 39.11 40.0764C39.188 40.0218 39.239 39.9419 39.2647 39.8475L38.9753 39.7685ZM38.856 39.85H37.908V40.15H38.856V39.85ZM37.908 39.85C37.8642 39.85 37.8411 39.8401 37.8287 39.831C37.8175 39.8228 37.8009 39.8051 37.7895 39.7596L37.4985 39.8324C37.5231 39.9309 37.5725 40.0152 37.6513 40.073C37.7289 40.1299 37.8198 40.15 37.908 40.15V39.85ZM37.7869 39.7504L35.5309 32.6824L35.2451 32.7736L37.5011 39.8416L37.7869 39.7504ZM35.238 32.7257L35.13 39.7577L35.43 39.7623L35.538 32.7303L35.238 32.7257ZM35.13 39.76C35.13 39.8121 35.1163 39.8285 35.1124 39.8324C35.1085 39.8363 35.0921 39.85 35.04 39.85V40.15C35.1439 40.15 35.2475 40.1217 35.3246 40.0446C35.4017 39.9675 35.43 39.8639 35.43 39.76H35.13ZM35.04 39.85H34.068V40.15H35.04V39.85ZM34.068 39.85C34.015 39.85 34.0005 39.8359 33.999 39.8345C33.9987 39.8341 33.9857 39.8216 33.9896 39.7715L33.6904 39.7485C33.6823 39.8544 33.7053 39.9619 33.783 40.0425C33.8595 40.1221 33.965 40.15 34.068 40.15V39.85ZM33.9899 39.765L34.2659 31.461L33.9661 31.451L33.6901 39.755L33.9899 39.765ZM34.2656 31.4675C34.2698 31.413 34.2848 31.3926 34.2921 31.3855C34.2985 31.3793 34.3168 31.366 34.368 31.366V31.066C34.2632 31.066 34.1615 31.0947 34.0839 31.1695C34.0072 31.2434 33.9742 31.343 33.9664 31.4445L34.2656 31.4675ZM34.368 31.366H35.952V31.066H34.368V31.366ZM35.952 31.366C35.9958 31.366 36.0204 31.3759 36.034 31.3854C36.046 31.3938 36.061 31.4099 36.0713 31.4475L36.3607 31.3685C36.335 31.2741 36.284 31.1942 36.206 31.1396C36.1296 31.0861 36.0402 31.066 35.952 31.066V31.366ZM36.0733 31.4544L38.2453 38.1384L38.5307 38.0456L36.3587 31.3616L36.0733 31.4544ZM38.5307 38.1381L40.6907 31.4541L40.4053 31.3619L38.2453 38.0459L38.5307 38.1381ZM40.6927 31.4475C40.703 31.4099 40.718 31.3938 40.73 31.3854C40.7436 31.3759 40.7682 31.366 40.812 31.366V31.066C40.7238 31.066 40.6344 31.0861 40.558 31.1396C40.48 31.1942 40.429 31.2741 40.4033 31.3685L40.6927 31.4475ZM40.812 31.366H42.348V31.066H40.812V31.366ZM42.348 31.366C42.3992 31.366 42.4175 31.3793 42.4239 31.3855C42.4312 31.3926 42.4462 31.413 42.4504 31.4675L42.7496 31.4445C42.7418 31.343 42.7088 31.2434 42.6321 31.1695C42.5545 31.0947 42.4528 31.066 42.348 31.066V31.366ZM42.4501 31.461L42.7261 39.765L43.0259 39.755L42.7499 31.451L42.4501 31.461ZM42.7264 39.7715C42.7303 39.8216 42.7173 39.8341 42.717 39.8345C42.7155 39.8359 42.701 39.85 42.648 39.85V40.15C42.751 40.15 42.8565 40.1221 42.933 40.0425C43.0107 39.9619 43.0337 39.8544 43.0256 39.7485L42.7264 39.7715ZM47.3589 33.514C49.0316 33.514 50.2929 34.7821 50.2929 36.7H50.5929C50.5929 34.6339 49.2142 33.214 47.3589 33.214V33.514ZM50.2929 36.7C50.2929 38.6451 48.9686 40.042 47.2509 40.042V40.342C49.1573 40.342 50.5929 38.7869 50.5929 36.7H50.2929ZM47.2509 40.042C45.5813 40.042 44.3169 38.7172 44.3169 36.808H44.0169C44.0169 38.8588 45.3925 40.342 47.2509 40.342V40.042ZM44.3169 36.808C44.3169 34.8537 45.6266 33.514 47.3589 33.514V33.214C45.4432 33.214 44.0169 34.7063 44.0169 36.808H44.3169ZM47.2029 34.45C46.6844 34.45 46.2333 34.6649 45.9149 35.0575C45.5986 35.4476 45.4209 36.0028 45.4209 36.676H45.7209C45.7209 36.0532 45.8853 35.5704 46.1479 35.2465C46.4086 34.9251 46.7735 34.75 47.2029 34.75V34.45ZM45.4209 36.676C45.4209 38.1138 46.2811 39.082 47.3949 39.082V38.782C46.4928 38.782 45.7209 37.9982 45.7209 36.676H45.4209ZM47.3949 39.082C47.915 39.082 48.3657 38.8599 48.6833 38.465C48.999 38.0725 49.1769 37.5178 49.1769 36.856H48.8769C48.8769 37.4662 48.7129 37.9495 48.4495 38.277C48.1881 38.6021 47.8229 38.782 47.3949 38.782V39.082ZM49.1769 36.856C49.1769 36.1259 48.9677 35.5253 48.612 35.1046C48.2551 34.6826 47.7573 34.45 47.2029 34.45V34.75C47.6686 34.75 48.0827 34.9434 48.3829 35.2984C48.6842 35.6547 48.8769 36.1821 48.8769 36.856H49.1769ZM57.1585 33.832L57.0172 33.7815L57.0162 33.7846L57.1585 33.832ZM55.1665 39.808L55.024 39.7605L55.0218 39.7685L55.1665 39.808ZM53.2105 39.808L53.3555 39.7685L53.3528 39.7606L53.2105 39.808ZM51.2185 33.832L51.3609 33.7846L51.3598 33.7815L51.2185 33.832ZM52.5505 33.748L52.4056 33.7875L52.4082 33.7953L52.5505 33.748ZM54.1225 38.476L53.9802 38.5233L54.0143 38.626H54.1225V38.476ZM54.2665 38.476V38.626H54.375L54.409 38.523L54.2665 38.476ZM55.8265 33.748L55.9692 33.7951L55.9712 33.7875L55.8265 33.748ZM57.0162 33.7846L55.0242 39.7606L55.3088 39.8554L57.3008 33.8794L57.0162 33.7846ZM55.0218 39.7685C55.0116 39.8061 54.9966 39.8222 54.9845 39.8306C54.9709 39.8401 54.9463 39.85 54.9025 39.85V40.15C54.9907 40.15 55.0801 40.1299 55.1566 40.0764C55.2345 40.0218 55.2855 39.9419 55.3112 39.8475L55.0218 39.7685ZM54.9025 39.85H53.4745V40.15H54.9025V39.85ZM53.4745 39.85C53.4307 39.85 53.4061 39.8401 53.3926 39.8306C53.3805 39.8222 53.3655 39.8061 53.3552 39.7685L53.0658 39.8475C53.0916 39.9419 53.1426 40.0218 53.2205 40.0764C53.2969 40.1299 53.3863 40.15 53.4745 40.15V39.85ZM53.3528 39.7606L51.3608 33.7846L51.0762 33.8794L53.0682 39.8554L53.3528 39.7606ZM51.3598 33.7815C51.338 33.7206 51.3535 33.7082 51.3481 33.716C51.3421 33.7248 51.3464 33.706 51.4105 33.706V33.406C51.2946 33.406 51.173 33.4412 51.1009 33.546C51.0296 33.6498 51.039 33.7754 51.0773 33.8825L51.3598 33.7815ZM51.4105 33.706H52.2865V33.406H51.4105V33.706ZM52.2865 33.706C52.3303 33.706 52.3549 33.7159 52.3685 33.7254C52.3806 33.7338 52.3956 33.7499 52.4058 33.7875L52.6952 33.7085C52.6695 33.6141 52.6185 33.5342 52.5406 33.4796C52.4641 33.4261 52.3747 33.406 52.2865 33.406V33.706ZM52.4082 33.7953L53.9802 38.5233L54.2649 38.4287L52.6929 33.7007L52.4082 33.7953ZM54.1225 38.626H54.2665V38.326H54.1225V38.626ZM54.409 38.523L55.969 33.795L55.6841 33.701L54.1241 38.429L54.409 38.523ZM55.9712 33.7875C55.9815 33.7499 55.9965 33.7338 56.0086 33.7254C56.0221 33.7159 56.0467 33.706 56.0905 33.706V33.406C56.0023 33.406 55.9129 33.4261 55.8365 33.4796C55.7586 33.5342 55.7076 33.6141 55.6818 33.7085L55.9712 33.7875ZM56.0905 33.706H56.9665V33.406H56.0905V33.706ZM56.9665 33.706C57.0306 33.706 57.035 33.7248 57.0289 33.716C57.0236 33.7082 57.039 33.7206 57.0173 33.7815L57.2998 33.8825C57.338 33.7754 57.3475 33.6498 57.2761 33.546C57.2041 33.4412 57.0824 33.406 56.9665 33.406V33.706ZM63.9125 36.868L64.062 36.8805L64.0622 36.8763L63.9125 36.868ZM59.3405 37.096V36.946H59.1834L59.1906 37.1029L59.3405 37.096ZM62.3765 38.26L62.5032 38.3404L62.5051 38.3372L62.3765 38.26ZM63.7085 38.368L63.5706 38.3089L63.5699 38.3106L63.7085 38.368ZM59.4125 35.992L59.2665 35.9574L59.2227 36.142H59.4125V35.992ZM62.4725 35.992V36.142H62.6249L62.6224 35.9895L62.4725 35.992ZM61.1045 33.502C62.0505 33.502 62.7331 33.8722 63.1708 34.4655C63.6123 35.0641 63.8154 35.9054 63.7627 36.8597L64.0622 36.8763C64.1175 35.8746 63.9067 34.9579 63.4122 34.2875C62.9138 33.6118 62.1385 33.202 61.1045 33.202V33.502ZM63.763 36.8555C63.7596 36.8961 63.7461 36.9151 63.7358 36.9243C63.7251 36.934 63.7032 36.946 63.6605 36.946V37.246C63.7618 37.246 63.8599 37.216 63.9361 37.1477C64.0128 37.0789 64.0533 36.9839 64.062 36.8805L63.763 36.8555ZM63.6605 36.946H59.3405V37.246H63.6605V36.946ZM59.1906 37.1029C59.2219 37.7848 59.4362 38.2877 59.7881 38.6196C60.1393 38.9509 60.6089 39.094 61.1165 39.094V38.794C60.664 38.794 60.2756 38.6671 59.9939 38.4014C59.7128 38.1363 59.519 37.7152 59.4903 37.0891L59.1906 37.1029ZM61.1165 39.094C61.4155 39.094 61.6785 39.043 61.9115 38.9189C62.145 38.7945 62.3367 38.6029 62.5031 38.3403L62.2498 38.1797C62.1043 38.4091 61.948 38.5595 61.7704 38.6541C61.5924 38.749 61.3814 38.794 61.1165 38.794V39.094ZM62.5051 38.3372C62.5325 38.2915 62.5551 38.2713 62.5733 38.2607C62.5909 38.2505 62.617 38.242 62.6645 38.242V37.942C62.5799 37.942 62.498 37.9575 62.4226 38.0013C62.3478 38.0447 62.2924 38.1085 62.2478 38.1828L62.5051 38.3372ZM62.6645 38.242H63.5165V37.942H62.6645V38.242ZM63.5165 38.242C63.5816 38.242 63.5902 38.2615 63.5852 38.2545C63.5828 38.2512 63.5841 38.25 63.5842 38.2565C63.5843 38.2642 63.5824 38.2813 63.5706 38.3089L63.8463 38.4271C63.894 38.3159 63.9053 38.186 63.8288 38.0795C63.7548 37.9765 63.6314 37.942 63.5165 37.942V38.242ZM63.5699 38.3106C63.1015 39.4415 62.149 40.042 60.9965 40.042V40.342C62.268 40.342 63.3314 39.6705 63.8471 38.4254L63.5699 38.3106ZM60.9965 40.042C60.1477 40.042 59.4235 39.7246 58.9107 39.1692C58.3971 38.6131 58.0865 37.8084 58.0865 36.82H57.7865C57.7865 37.8716 58.1178 38.7529 58.6903 39.3728C59.2634 39.9934 60.0693 40.342 60.9965 40.342V40.042ZM58.0865 36.82C58.0865 35.831 58.3945 35.0019 58.9206 34.4218C59.4455 33.8429 60.1963 33.502 61.1045 33.502V33.202C60.1167 33.202 59.2834 33.5751 58.6984 34.2202C58.1144 34.8641 57.7865 35.769 57.7865 36.82H58.0865ZM60.9845 34.45C60.4478 34.45 60.0568 34.6361 59.7794 34.927C59.5065 35.2132 59.3537 35.5898 59.2665 35.9574L59.5584 36.0266C59.6392 35.6862 59.7745 35.3668 59.9965 35.134C60.2141 34.9059 60.5251 34.75 60.9845 34.75V34.45ZM59.4125 36.142H62.4725V35.842H59.4125V36.142ZM62.6224 35.9895C62.6159 35.5903 62.4749 35.2043 62.1961 34.917C61.9157 34.6282 61.5063 34.45 60.9845 34.45V34.75C61.4346 34.75 61.7632 34.9018 61.9808 35.126C62.2 35.3517 62.317 35.6617 62.3225 35.9945L62.6224 35.9895ZM76.6503 35.848L76.5003 35.8491L76.5003 35.8494L76.6503 35.848ZM76.6863 39.76H76.8363L76.8363 39.7586L76.6863 39.76ZM75.1983 39.76L75.0483 39.759V39.76H75.1983ZM75.2223 36.208L75.0723 36.2063L75.0723 36.207L75.2223 36.208ZM72.8343 36.928L72.9844 36.9267L72.9841 36.9197L72.8343 36.928ZM72.8583 39.76H73.0083L73.0083 39.7587L72.8583 39.76ZM71.3703 39.76L71.2203 39.759V39.76H71.3703ZM71.3943 36.208L71.2443 36.2063L71.2443 36.207L71.3943 36.208ZM69.0063 36.928L69.1564 36.9267L69.1561 36.9203L69.0063 36.928ZM69.0303 39.76H69.1803L69.1803 39.7587L69.0303 39.76ZM67.5423 39.76L67.3923 39.7585V39.76H67.5423ZM67.6023 33.796L67.7523 33.7975V33.796H67.6023ZM68.9823 33.796H68.8323L68.8323 33.7988L68.9823 33.796ZM68.9943 34.432L68.8443 34.4348L68.8471 34.582H68.9943V34.432ZM69.0543 34.432V34.582H69.1315L69.1763 34.5192L69.0543 34.432ZM72.5583 34.54L72.4187 34.595L72.4562 34.69H72.5583V34.54ZM72.6423 34.54V34.69H72.7199L72.7647 34.6267L72.6423 34.54ZM74.6103 33.514C75.2023 33.514 75.6645 33.721 75.983 34.1035C76.3048 34.4899 76.4944 35.0729 76.5003 35.8491L76.8003 35.8469C76.7941 35.0271 76.5938 34.3681 76.2135 33.9115C75.8301 33.451 75.2782 33.214 74.6103 33.214V33.514ZM76.5003 35.8494L76.5363 39.7614L76.8363 39.7586L76.8003 35.8466L76.5003 35.8494ZM76.5363 39.76C76.5363 39.8121 76.5226 39.8285 76.5187 39.8324C76.5148 39.8363 76.4983 39.85 76.4463 39.85V40.15C76.5502 40.15 76.6537 40.1217 76.7308 40.0446C76.8079 39.9675 76.8363 39.8639 76.8363 39.76H76.5363ZM76.4463 39.85H75.4383V40.15H76.4463V39.85ZM75.4383 39.85C75.3862 39.85 75.3697 39.8363 75.3658 39.8324C75.3619 39.8285 75.3483 39.8121 75.3483 39.76H75.0483C75.0483 39.8639 75.0766 39.9675 75.1537 40.0446C75.2308 40.1217 75.3343 40.15 75.4383 40.15V39.85ZM75.3483 39.761L75.3723 36.209L75.0723 36.207L75.0483 39.759L75.3483 39.761ZM75.3723 36.2097C75.3784 35.6808 75.2904 35.2684 75.0916 34.9849C74.8859 34.6915 74.5775 34.558 74.2023 34.558V34.858C74.4991 34.858 74.7067 34.9585 74.846 35.1571C74.9921 35.3656 75.0781 35.7032 75.0723 36.2063L75.3723 36.2097ZM74.2023 34.558C73.7469 34.558 73.3368 34.7547 73.0572 35.1615C72.7813 35.5629 72.6414 36.155 72.6845 36.9363L72.9841 36.9197C72.9431 36.177 73.0792 35.6591 73.3044 35.3315C73.5258 35.0093 73.8416 34.858 74.2023 34.858V34.558ZM72.6843 36.9293L72.7083 39.7613L73.0083 39.7587L72.9843 36.9267L72.6843 36.9293ZM72.7083 39.76C72.7083 39.8121 72.6946 39.8285 72.6907 39.8324C72.6868 39.8363 72.6703 39.85 72.6183 39.85V40.15C72.7222 40.15 72.8257 40.1217 72.9028 40.0446C72.9799 39.9675 73.0083 39.8639 73.0083 39.76H72.7083ZM72.6183 39.85H71.6103V40.15H72.6183V39.85ZM71.6103 39.85C71.5582 39.85 71.5417 39.8363 71.5378 39.8324C71.5339 39.8285 71.5203 39.8121 71.5203 39.76H71.2203C71.2203 39.8639 71.2486 39.9675 71.3257 40.0446C71.4028 40.1217 71.5063 40.15 71.6103 40.15V39.85ZM71.5203 39.761L71.5443 36.209L71.2443 36.207L71.2203 39.759L71.5203 39.761ZM71.5443 36.2097C71.5504 35.6799 71.4591 35.2677 71.2587 34.9844C71.0519 34.6919 70.7442 34.558 70.3743 34.558V34.858C70.6644 34.858 70.8727 34.9581 71.0138 35.1576C71.1614 35.3663 71.2501 35.7041 71.2443 36.2063L71.5443 36.2097ZM70.3743 34.558C69.9665 34.558 69.5566 34.7201 69.2641 35.1117C68.9748 35.4992 68.8134 36.0935 68.8565 36.9357L69.1561 36.9203C69.1151 36.1185 69.2718 35.6028 69.5045 35.2913C69.734 34.9839 70.05 34.858 70.3743 34.858V34.558ZM68.8563 36.9293L68.8803 39.7613L69.1803 39.7587L69.1563 36.9267L68.8563 36.9293ZM68.8803 39.76C68.8803 39.8121 68.8666 39.8285 68.8627 39.8324C68.8588 39.8363 68.8423 39.85 68.7903 39.85V40.15C68.8942 40.15 68.9977 40.1217 69.0748 40.0446C69.1519 39.9675 69.1803 39.8639 69.1803 39.76H68.8803ZM68.7903 39.85H67.7823V40.15H68.7903V39.85ZM67.7823 39.85C67.7302 39.85 67.7137 39.8363 67.7098 39.8324C67.7059 39.8285 67.6923 39.8121 67.6923 39.76H67.3923C67.3923 39.8639 67.4206 39.9675 67.4977 40.0446C67.5748 40.1217 67.6783 40.15 67.7823 40.15V39.85ZM67.6923 39.7615L67.7523 33.7975L67.4523 33.7945L67.3923 39.7585L67.6923 39.7615ZM67.7523 33.796C67.7523 33.7439 67.7659 33.7275 67.7698 33.7236C67.7737 33.7197 67.7902 33.706 67.8423 33.706V33.406C67.7383 33.406 67.6348 33.4343 67.5577 33.5114C67.4806 33.5885 67.4523 33.6921 67.4523 33.796H67.7523ZM67.8423 33.706H68.7423V33.406H67.8423V33.706ZM68.7423 33.706C68.7943 33.706 68.8108 33.7197 68.8147 33.7236C68.8186 33.7275 68.8323 33.7439 68.8323 33.796H69.1323C69.1323 33.6921 69.104 33.5885 69.0268 33.5114C68.9497 33.4343 68.8462 33.406 68.7423 33.406V33.706ZM68.8323 33.7988L68.8443 34.4348L69.1443 34.4292L69.1323 33.7932L68.8323 33.7988ZM68.9943 34.582H69.0543V34.282H68.9943V34.582ZM69.1763 34.5192C69.6377 33.8733 70.209 33.514 70.8663 33.514V33.214C70.0836 33.214 69.4309 33.6467 68.9322 34.3448L69.1763 34.5192ZM70.8663 33.514C71.2311 33.514 71.5456 33.6035 71.8034 33.779C72.0611 33.9544 72.2719 34.2223 72.4187 34.595L72.6978 34.485C72.5326 34.0656 72.2874 33.7456 71.9722 33.531C71.657 33.3165 71.2814 33.214 70.8663 33.214V33.514ZM72.5583 34.69H72.6423V34.39H72.5583V34.69ZM72.7647 34.6267C73.2986 33.8723 73.858 33.514 74.6103 33.514V33.214C73.7306 33.214 73.09 33.6477 72.5198 34.4533L72.7647 34.6267ZM83.8929 36.868L84.0425 36.8805L84.0427 36.8763L83.8929 36.868ZM79.3209 37.096V36.946H79.1639L79.1711 37.1029L79.3209 37.096ZM82.3569 38.26L82.4837 38.3404L82.4856 38.3372L82.3569 38.26ZM83.6889 38.368L83.5511 38.3089L83.5504 38.3106L83.6889 38.368ZM79.3929 35.992L79.247 35.9574L79.2032 36.142H79.3929V35.992ZM82.4529 35.992V36.142H82.6054L82.6029 35.9895L82.4529 35.992ZM81.0849 33.502C82.0309 33.502 82.7136 33.8722 83.1512 34.4655C83.5927 35.0641 83.7959 35.9054 83.7432 36.8597L84.0427 36.8763C84.098 35.8746 83.8871 34.9579 83.3927 34.2875C82.8943 33.6118 82.1189 33.202 81.0849 33.202V33.502ZM83.7435 36.8555C83.7401 36.8961 83.7266 36.9151 83.7163 36.9243C83.7055 36.934 83.6836 36.946 83.6409 36.946V37.246C83.7423 37.246 83.8403 37.216 83.9166 37.1477C83.9933 37.0789 84.0338 36.9839 84.0424 36.8805L83.7435 36.8555ZM83.6409 36.946H79.3209V37.246H83.6409V36.946ZM79.1711 37.1029C79.2024 37.7848 79.4166 38.2877 79.7685 38.6196C80.1198 38.9509 80.5894 39.094 81.0969 39.094V38.794C80.6445 38.794 80.2561 38.6671 79.9744 38.4014C79.6932 38.1363 79.4995 37.7152 79.4708 37.0891L79.1711 37.1029ZM81.0969 39.094C81.396 39.094 81.659 39.043 81.892 38.9189C82.1254 38.7945 82.3171 38.6029 82.4836 38.3403L82.2303 38.1797C82.0847 38.4091 81.9285 38.5595 81.7509 38.6541C81.5729 38.749 81.3619 38.794 81.0969 38.794V39.094ZM82.4856 38.3372C82.513 38.2915 82.5356 38.2713 82.5538 38.2607C82.5714 38.2505 82.5975 38.242 82.6449 38.242V37.942C82.5604 37.942 82.4785 37.9575 82.4031 38.0013C82.3283 38.0447 82.2729 38.1085 82.2283 38.1828L82.4856 38.3372ZM82.6449 38.242H83.4969V37.942H82.6449V38.242ZM83.4969 38.242C83.562 38.242 83.5706 38.2615 83.5656 38.2545C83.5632 38.2512 83.5645 38.25 83.5646 38.2565C83.5648 38.2642 83.5629 38.2813 83.5511 38.3089L83.8268 38.4271C83.8745 38.3159 83.8858 38.186 83.8092 38.0795C83.7352 37.9765 83.6118 37.942 83.4969 37.942V38.242ZM83.5504 38.3106C83.082 39.4415 82.1294 40.042 80.9769 40.042V40.342C82.2485 40.342 83.3119 39.6705 83.8275 38.4254L83.5504 38.3106ZM80.9769 40.042C80.1281 40.042 79.404 39.7246 78.8911 39.1692C78.3776 38.6131 78.0669 37.8084 78.0669 36.82H77.7669C77.7669 37.8716 78.0983 38.7529 78.6707 39.3728C79.2439 39.9934 80.0497 40.342 80.9769 40.342V40.042ZM78.0669 36.82C78.0669 35.831 78.375 35.0019 78.9011 34.4218C79.426 33.8429 80.1767 33.502 81.0849 33.502V33.202C80.0971 33.202 79.2639 33.5751 78.6788 34.2202C78.0949 34.8641 77.7669 35.769 77.7669 36.82H78.0669ZM80.9649 34.45C80.4283 34.45 80.0373 34.6361 79.7599 34.927C79.4869 35.2132 79.3342 35.5898 79.247 35.9574L79.5389 36.0266C79.6197 35.6862 79.755 35.3668 79.977 35.134C80.1946 34.9059 80.5056 34.75 80.9649 34.75V34.45ZM79.3929 36.142H82.4529V35.842H79.3929V36.142ZM82.6029 35.9895C82.5964 35.5903 82.4554 35.2043 82.1766 34.917C81.8962 34.6282 81.4868 34.45 80.9649 34.45V34.75C81.4151 34.75 81.7437 34.9018 81.9613 35.126C82.1805 35.3517 82.2975 35.6617 82.303 35.9945L82.6029 35.9895ZM87.3876 31.384H87.2376L87.2376 31.3856L87.3876 31.384ZM87.4476 36.988H87.5976L87.5976 36.9864L87.4476 36.988ZM85.9596 36.988L85.8096 36.9864V36.988H85.9596ZM86.0196 31.384L86.1696 31.3856V31.384H86.0196ZM87.2376 31.3856L87.2976 36.9896L87.5976 36.9864L87.5376 31.3824L87.2376 31.3856ZM87.2976 36.988C87.2976 37.0401 87.2839 37.0565 87.28 37.0604C87.2761 37.0643 87.2596 37.078 87.2076 37.078V37.378C87.3115 37.378 87.415 37.3497 87.4921 37.2726C87.5692 37.1955 87.5976 37.0919 87.5976 36.988H87.2976ZM87.2076 37.078H86.1996V37.378H87.2076V37.078ZM86.1996 37.078C86.1475 37.078 86.131 37.0643 86.1271 37.0604C86.1232 37.0565 86.1096 37.0401 86.1096 36.988H85.8096C85.8096 37.0919 85.8379 37.1955 85.915 37.2726C85.9921 37.3497 86.0956 37.378 86.1996 37.378V37.078ZM86.1096 36.9896L86.1696 31.3856L85.8696 31.3824L85.8096 36.9864L86.1096 36.9896ZM86.1696 31.384C86.1696 31.3319 86.1832 31.3155 86.1871 31.3116C86.191 31.3077 86.2075 31.294 86.2596 31.294V30.994C86.1556 30.994 86.0521 31.0223 85.975 31.0994C85.8979 31.1765 85.8696 31.2801 85.8696 31.384H86.1696ZM86.2596 31.294H87.1476V30.994H86.2596V31.294ZM87.1476 31.294C87.1996 31.294 87.2161 31.3077 87.22 31.3116C87.2239 31.3155 87.2376 31.3319 87.2376 31.384H87.5376C87.5376 31.2801 87.5092 31.1765 87.4321 31.0994C87.355 31.0223 87.2515 30.994 87.1476 30.994V31.294ZM87.3216 38.716V39.76H87.6216V38.716H87.3216ZM87.3216 39.76C87.3216 39.8121 87.3079 39.8285 87.304 39.8324C87.3001 39.8363 87.2836 39.85 87.2316 39.85V40.15C87.3355 40.15 87.439 40.1217 87.5161 40.0446C87.5932 39.9675 87.6216 39.8639 87.6216 39.76H87.3216ZM87.2316 39.85H86.0556V40.15H87.2316V39.85ZM86.0556 39.85C86.0035 39.85 85.987 39.8363 85.9831 39.8324C85.9792 39.8285 85.9656 39.8121 85.9656 39.76H85.6656C85.6656 39.8639 85.6939 39.9675 85.771 40.0446C85.8481 40.1217 85.9516 40.15 86.0556 40.15V39.85ZM85.9656 39.76V38.716H85.6656V39.76H85.9656ZM85.9656 38.716C85.9656 38.6639 85.9792 38.6475 85.9831 38.6436C85.987 38.6397 86.0035 38.626 86.0556 38.626V38.326C85.9516 38.326 85.8481 38.3543 85.771 38.4314C85.6939 38.5085 85.6656 38.6121 85.6656 38.716H85.9656ZM86.0556 38.626H87.2316V38.326H86.0556V38.626ZM87.2316 38.626C87.2836 38.626 87.3001 38.6397 87.304 38.6436C87.3079 38.6475 87.3216 38.6639 87.3216 38.716H87.6216C87.6216 38.6121 87.5932 38.5085 87.5161 38.4314C87.439 38.3543 87.3355 38.326 87.2316 38.326V38.626Z" fill="#F5F5F5"/>
<defs>
<linearGradient id="paint0_linear_104_17" x1="14" y1="-1" x2="13.5" y2="20" gradientUnits="userSpaceOnUse">
<stop stop-color="#062F3F"/>
<stop offset="0.395" stop-color="#00AFCD"/>
<stop offset="1" stop-color="#F5F5F5"/>
</linearGradient>
<linearGradient id="paint1_linear_104_17" x1="1.99999" y1="2" x2="12.1858" y2="24.1852" gradientUnits="userSpaceOnUse">
<stop stop-color="#F5F5F5"/>
<stop offset="0.695" stop-color="#00AFCD"/>
<stop offset="1" stop-color="#062F3F"/>
</linearGradient>
<linearGradient id="paint2_linear_104_17" x1="82.5" y1="15.3913" x2="82.4516" y2="71.826" gradientUnits="userSpaceOnUse">
<stop stop-color="#062F3F"/>
<stop offset="0.276644" stop-color="#00AFCD"/>
<stop offset="1" stop-color="white"/>
</linearGradient>
<linearGradient id="paint3_linear_104_17" x1="113.5" y1="35.4783" x2="-7" y2="35.4783" gradientUnits="userSpaceOnUse">
<stop stop-color="#F5F5F5"/>
<stop offset="0.505" stop-color="#00AFCD"/>
<stop offset="1" stop-color="#062F3F"/>
</linearGradient>
</defs>
</svg>
