<svg width="108" height="45" viewBox="0 0 108 45" fill="none" xmlns="http://www.w3.org/2000/svg">
<rect x="19" y="22" width="88" height="22" rx="8" fill="url(#paint0_linear_40_46)"/>
<rect x="19" y="22" width="88" height="22" rx="8" stroke="url(#paint1_linear_40_46)" stroke-width="2"/>
<path d="M44.648 38H43.676C43.52 38 43.436 37.916 43.436 37.76L43.328 30.932L41.12 37.808C41.084 37.94 40.988 38 40.856 38H39.908C39.776 38 39.68 37.94 39.644 37.796L37.388 30.728L37.28 37.76C37.28 37.916 37.196 38 37.04 38H36.068C35.912 38 35.828 37.916 35.84 37.76L36.116 29.456C36.128 29.3 36.212 29.216 36.368 29.216H37.952C38.084 29.216 38.18 29.276 38.216 29.408L40.388 36.092L42.548 29.408C42.584 29.276 42.68 29.216 42.812 29.216H44.348C44.504 29.216 44.588 29.3 44.6 29.456L44.876 37.76C44.888 37.916 44.804 38 44.648 38ZM49.3589 31.364C51.1229 31.364 52.4429 32.708 52.4429 34.7C52.4429 36.716 51.0629 38.192 49.2509 38.192C47.4869 38.192 46.1669 36.788 46.1669 34.808C46.1669 32.78 47.5349 31.364 49.3589 31.364ZM49.2029 32.6C48.2549 32.6 47.5709 33.38 47.5709 34.676C47.5709 36.056 48.3869 36.932 49.3949 36.932C50.3429 36.932 51.0269 36.128 51.0269 34.856C51.0269 33.452 50.2229 32.6 49.2029 32.6ZM59.1585 31.832L57.1665 37.808C57.1305 37.94 57.0345 38 56.9025 38H55.4745C55.3425 38 55.2465 37.94 55.2105 37.808L53.2185 31.832C53.1585 31.664 53.2305 31.556 53.4105 31.556H54.2865C54.4185 31.556 54.5145 31.616 54.5505 31.748L56.1225 36.476H56.2665L57.8265 31.748C57.8625 31.616 57.9585 31.556 58.0905 31.556H58.9665C59.1465 31.556 59.2185 31.664 59.1585 31.832ZM63.1045 31.352C65.0845 31.352 66.0205 32.912 65.9125 34.868C65.9005 35.012 65.8045 35.096 65.6605 35.096H61.3405C61.4005 36.404 62.1565 36.944 63.1165 36.944C63.6805 36.944 64.0645 36.752 64.3765 36.26C64.4485 36.14 64.5325 36.092 64.6645 36.092H65.5165C65.6965 36.092 65.7805 36.2 65.7085 36.368C65.2165 37.556 64.2085 38.192 62.9965 38.192C61.2205 38.192 59.9365 36.86 59.9365 34.82C59.9365 32.78 61.2085 31.352 63.1045 31.352ZM62.9845 32.6C61.9885 32.6 61.5805 33.284 61.4125 33.992H64.4725C64.4605 33.26 63.9565 32.6 62.9845 32.6ZM76.6103 31.364C77.8703 31.364 78.6383 32.252 78.6503 33.848L78.6863 37.76C78.6863 37.916 78.6023 38 78.4463 38H77.4383C77.2823 38 77.1983 37.916 77.1983 37.76L77.2223 34.208C77.2343 33.176 76.8743 32.708 76.2023 32.708C75.3863 32.708 74.7503 33.404 74.8343 34.928L74.8583 37.76C74.8583 37.916 74.7743 38 74.6183 38H73.6103C73.4543 38 73.3703 37.916 73.3703 37.76L73.3943 34.208C73.4063 33.176 73.0343 32.708 72.3743 32.708C71.6423 32.708 70.9223 33.284 71.0063 34.928L71.0303 37.76C71.0303 37.916 70.9463 38 70.7903 38H69.7823C69.6263 38 69.5423 37.916 69.5423 37.76L69.6023 31.796C69.6023 31.64 69.6863 31.556 69.8423 31.556H70.7423C70.8983 31.556 70.9823 31.64 70.9823 31.796L70.9943 32.432H71.0543C71.5343 31.76 72.1463 31.364 72.8663 31.364C73.6463 31.364 74.2463 31.748 74.5583 32.54H74.6423C75.1943 31.76 75.7943 31.364 76.6103 31.364ZM83.0849 31.352C85.0649 31.352 86.0009 32.912 85.8929 34.868C85.8809 35.012 85.7849 35.096 85.6409 35.096H81.3209C81.3809 36.404 82.1369 36.944 83.0969 36.944C83.6609 36.944 84.0449 36.752 84.3569 36.26C84.4289 36.14 84.5129 36.092 84.6449 36.092H85.4969C85.6769 36.092 85.7609 36.2 85.6889 36.368C85.1969 37.556 84.1889 38.192 82.9769 38.192C81.2009 38.192 79.9169 36.86 79.9169 34.82C79.9169 32.78 81.1889 31.352 83.0849 31.352ZM82.9649 32.6C81.9689 32.6 81.5609 33.284 81.3929 33.992H84.4529C84.4409 33.26 83.9369 32.6 82.9649 32.6ZM89.3876 29.384L89.4476 34.988C89.4476 35.144 89.3636 35.228 89.2076 35.228H88.1996C88.0436 35.228 87.9596 35.144 87.9596 34.988L88.0196 29.384C88.0196 29.228 88.1036 29.144 88.2596 29.144H89.1476C89.3036 29.144 89.3876 29.228 89.3876 29.384ZM89.4716 36.716V37.76C89.4716 37.916 89.3876 38 89.2316 38H88.0556C87.8996 38 87.8156 37.916 87.8156 37.76V36.716C87.8156 36.56 87.8996 36.476 88.0556 36.476H89.2316C89.3876 36.476 89.4716 36.56 89.4716 36.716Z" fill="#F5F5F5"/>
<path d="M43.436 37.76H43.586L43.586 37.7576L43.436 37.76ZM43.328 30.932L43.478 30.9296L43.1852 30.8861L43.328 30.932ZM41.12 37.808L40.977 37.7621L40.9753 37.7685L41.12 37.808ZM39.644 37.796L39.7898 37.7595L39.7869 37.7504L39.644 37.796ZM37.388 30.728L37.5309 30.6824L37.238 30.7257L37.388 30.728ZM37.28 37.76L37.13 37.7577V37.76H37.28ZM35.84 37.76L35.9897 37.7715L35.9899 37.765L35.84 37.76ZM36.116 29.456L35.9663 29.4445L35.9661 29.451L36.116 29.456ZM38.216 29.408L38.0711 29.4475L38.0733 29.4544L38.216 29.408ZM40.388 36.092L40.2453 36.1384L40.3884 36.5786L40.5307 36.1381L40.388 36.092ZM42.548 29.408L42.6909 29.4542L42.6927 29.4475L42.548 29.408ZM44.6 29.456L44.7501 29.451L44.7496 29.4445L44.6 29.456ZM44.876 37.76L44.7259 37.765L44.7264 37.7715L44.876 37.76ZM44.648 37.85H43.676V38.15H44.648V37.85ZM43.676 37.85C43.6239 37.85 43.6075 37.8363 43.6036 37.8324C43.5997 37.8285 43.586 37.8121 43.586 37.76H43.286C43.286 37.8639 43.3143 37.9675 43.3914 38.0446C43.4685 38.1217 43.5721 38.15 43.676 38.15V37.85ZM43.586 37.7576L43.478 30.9296L43.178 30.9344L43.286 37.7624L43.586 37.7576ZM43.1852 30.8861L40.9772 37.7621L41.2628 37.8539L43.4708 30.9779L43.1852 30.8861ZM40.9753 37.7685C40.965 37.8061 40.95 37.8222 40.938 37.8306C40.9244 37.8401 40.8998 37.85 40.856 37.85V38.15C40.9442 38.15 41.0336 38.1299 41.11 38.0764C41.188 38.0218 41.239 37.9419 41.2647 37.8475L40.9753 37.7685ZM40.856 37.85H39.908V38.15H40.856V37.85ZM39.908 37.85C39.8642 37.85 39.8411 37.8401 39.8287 37.831C39.8175 37.8228 39.8009 37.8051 39.7895 37.7596L39.4985 37.8324C39.5231 37.9309 39.5725 38.0152 39.6513 38.073C39.7289 38.1299 39.8198 38.15 39.908 38.15V37.85ZM39.7869 37.7504L37.5309 30.6824L37.2451 30.7736L39.5011 37.8416L39.7869 37.7504ZM37.238 30.7257L37.13 37.7577L37.43 37.7623L37.538 30.7303L37.238 30.7257ZM37.13 37.76C37.13 37.8121 37.1163 37.8285 37.1124 37.8324C37.1085 37.8363 37.0921 37.85 37.04 37.85V38.15C37.1439 38.15 37.2475 38.1217 37.3246 38.0446C37.4017 37.9675 37.43 37.8639 37.43 37.76H37.13ZM37.04 37.85H36.068V38.15H37.04V37.85ZM36.068 37.85C36.015 37.85 36.0005 37.8359 35.999 37.8345C35.9987 37.8341 35.9857 37.8216 35.9896 37.7715L35.6904 37.7485C35.6823 37.8544 35.7053 37.9619 35.783 38.0425C35.8595 38.1221 35.965 38.15 36.068 38.15V37.85ZM35.9899 37.765L36.2659 29.461L35.9661 29.451L35.6901 37.755L35.9899 37.765ZM36.2656 29.4675C36.2698 29.413 36.2848 29.3926 36.2921 29.3855C36.2985 29.3793 36.3168 29.366 36.368 29.366V29.066C36.2632 29.066 36.1615 29.0947 36.0839 29.1695C36.0072 29.2434 35.9742 29.343 35.9664 29.4445L36.2656 29.4675ZM36.368 29.366H37.952V29.066H36.368V29.366ZM37.952 29.366C37.9958 29.366 38.0204 29.3759 38.034 29.3854C38.046 29.3938 38.061 29.4099 38.0713 29.4475L38.3607 29.3685C38.335 29.2741 38.284 29.1942 38.206 29.1396C38.1296 29.0861 38.0402 29.066 37.952 29.066V29.366ZM38.0733 29.4544L40.2453 36.1384L40.5307 36.0456L38.3587 29.3616L38.0733 29.4544ZM40.5307 36.1381L42.6907 29.4541L42.4053 29.3619L40.2453 36.0459L40.5307 36.1381ZM42.6927 29.4475C42.703 29.4099 42.718 29.3938 42.73 29.3854C42.7436 29.3759 42.7682 29.366 42.812 29.366V29.066C42.7238 29.066 42.6344 29.0861 42.558 29.1396C42.48 29.1942 42.429 29.2741 42.4033 29.3685L42.6927 29.4475ZM42.812 29.366H44.348V29.066H42.812V29.366ZM44.348 29.366C44.3992 29.366 44.4175 29.3793 44.4239 29.3855C44.4312 29.3926 44.4462 29.413 44.4504 29.4675L44.7496 29.4445C44.7418 29.343 44.7088 29.2434 44.6321 29.1695C44.5545 29.0947 44.4528 29.066 44.348 29.066V29.366ZM44.4501 29.461L44.7261 37.765L45.0259 37.755L44.7499 29.451L44.4501 29.461ZM44.7264 37.7715C44.7303 37.8216 44.7173 37.8341 44.717 37.8345C44.7155 37.8359 44.701 37.85 44.648 37.85V38.15C44.751 38.15 44.8565 38.1221 44.933 38.0425C45.0107 37.9619 45.0337 37.8544 45.0256 37.7485L44.7264 37.7715ZM49.3589 31.514C51.0316 31.514 52.2929 32.7821 52.2929 34.7H52.5929C52.5929 32.6339 51.2142 31.214 49.3589 31.214V31.514ZM52.2929 34.7C52.2929 36.6451 50.9686 38.042 49.2509 38.042V38.342C51.1573 38.342 52.5929 36.7869 52.5929 34.7H52.2929ZM49.2509 38.042C47.5813 38.042 46.3169 36.7172 46.3169 34.808H46.0169C46.0169 36.8588 47.3925 38.342 49.2509 38.342V38.042ZM46.3169 34.808C46.3169 32.8537 47.6266 31.514 49.3589 31.514V31.214C47.4432 31.214 46.0169 32.7063 46.0169 34.808H46.3169ZM49.2029 32.45C48.6844 32.45 48.2333 32.6649 47.9149 33.0575C47.5986 33.4476 47.4209 34.0028 47.4209 34.676H47.7209C47.7209 34.0532 47.8853 33.5704 48.1479 33.2465C48.4086 32.9251 48.7735 32.75 49.2029 32.75V32.45ZM47.4209 34.676C47.4209 36.1138 48.2811 37.082 49.3949 37.082V36.782C48.4928 36.782 47.7209 35.9982 47.7209 34.676H47.4209ZM49.3949 37.082C49.915 37.082 50.3657 36.8599 50.6833 36.465C50.999 36.0725 51.1769 35.5178 51.1769 34.856H50.8769C50.8769 35.4662 50.7129 35.9495 50.4495 36.277C50.1881 36.6021 49.8229 36.782 49.3949 36.782V37.082ZM51.1769 34.856C51.1769 34.1259 50.9677 33.5253 50.612 33.1046C50.2551 32.6826 49.7573 32.45 49.2029 32.45V32.75C49.6686 32.75 50.0827 32.9434 50.3829 33.2984C50.6842 33.6547 50.8769 34.1821 50.8769 34.856H51.1769ZM59.1585 31.832L59.0172 31.7815L59.0162 31.7846L59.1585 31.832ZM57.1665 37.808L57.024 37.7605L57.0218 37.7685L57.1665 37.808ZM55.2105 37.808L55.3555 37.7685L55.3528 37.7606L55.2105 37.808ZM53.2185 31.832L53.3609 31.7846L53.3598 31.7815L53.2185 31.832ZM54.5505 31.748L54.4056 31.7875L54.4082 31.7953L54.5505 31.748ZM56.1225 36.476L55.9802 36.5233L56.0143 36.626H56.1225V36.476ZM56.2665 36.476V36.626H56.375L56.409 36.523L56.2665 36.476ZM57.8265 31.748L57.9692 31.7951L57.9712 31.7875L57.8265 31.748ZM59.0162 31.7846L57.0242 37.7606L57.3088 37.8554L59.3008 31.8794L59.0162 31.7846ZM57.0218 37.7685C57.0116 37.8061 56.9966 37.8222 56.9845 37.8306C56.9709 37.8401 56.9463 37.85 56.9025 37.85V38.15C56.9907 38.15 57.0801 38.1299 57.1566 38.0764C57.2345 38.0218 57.2855 37.9419 57.3112 37.8475L57.0218 37.7685ZM56.9025 37.85H55.4745V38.15H56.9025V37.85ZM55.4745 37.85C55.4307 37.85 55.4061 37.8401 55.3926 37.8306C55.3805 37.8222 55.3655 37.8061 55.3552 37.7685L55.0658 37.8475C55.0916 37.9419 55.1426 38.0218 55.2205 38.0764C55.2969 38.1299 55.3863 38.15 55.4745 38.15V37.85ZM55.3528 37.7606L53.3608 31.7846L53.0762 31.8794L55.0682 37.8554L55.3528 37.7606ZM53.3598 31.7815C53.338 31.7206 53.3535 31.7082 53.3481 31.716C53.3421 31.7248 53.3464 31.706 53.4105 31.706V31.406C53.2946 31.406 53.173 31.4412 53.1009 31.546C53.0296 31.6498 53.039 31.7754 53.0773 31.8825L53.3598 31.7815ZM53.4105 31.706H54.2865V31.406H53.4105V31.706ZM54.2865 31.706C54.3303 31.706 54.3549 31.7159 54.3685 31.7254C54.3806 31.7338 54.3956 31.7499 54.4058 31.7875L54.6952 31.7085C54.6695 31.6141 54.6185 31.5342 54.5406 31.4796C54.4641 31.4261 54.3747 31.406 54.2865 31.406V31.706ZM54.4082 31.7953L55.9802 36.5233L56.2649 36.4287L54.6929 31.7007L54.4082 31.7953ZM56.1225 36.626H56.2665V36.326H56.1225V36.626ZM56.409 36.523L57.969 31.795L57.6841 31.701L56.1241 36.429L56.409 36.523ZM57.9712 31.7875C57.9815 31.7499 57.9965 31.7338 58.0086 31.7254C58.0221 31.7159 58.0467 31.706 58.0905 31.706V31.406C58.0023 31.406 57.9129 31.4261 57.8365 31.4796C57.7586 31.5342 57.7076 31.6141 57.6818 31.7085L57.9712 31.7875ZM58.0905 31.706H58.9665V31.406H58.0905V31.706ZM58.9665 31.706C59.0306 31.706 59.035 31.7248 59.0289 31.716C59.0236 31.7082 59.039 31.7206 59.0173 31.7815L59.2998 31.8825C59.338 31.7754 59.3475 31.6498 59.2761 31.546C59.2041 31.4412 59.0824 31.406 58.9665 31.406V31.706ZM65.9125 34.868L66.062 34.8805L66.0622 34.8763L65.9125 34.868ZM61.3405 35.096V34.946H61.1834L61.1906 35.1029L61.3405 35.096ZM64.3765 36.26L64.5032 36.3404L64.5051 36.3372L64.3765 36.26ZM65.7085 36.368L65.5706 36.3089L65.5699 36.3106L65.7085 36.368ZM61.4125 33.992L61.2665 33.9574L61.2227 34.142H61.4125V33.992ZM64.4725 33.992V34.142H64.6249L64.6224 33.9895L64.4725 33.992ZM63.1045 31.502C64.0505 31.502 64.7331 31.8722 65.1708 32.4655C65.6123 33.0641 65.8154 33.9054 65.7627 34.8597L66.0622 34.8763C66.1175 33.8746 65.9067 32.9579 65.4122 32.2875C64.9138 31.6118 64.1385 31.202 63.1045 31.202V31.502ZM65.763 34.8555C65.7596 34.8961 65.7461 34.9151 65.7358 34.9243C65.7251 34.934 65.7032 34.946 65.6605 34.946V35.246C65.7618 35.246 65.8599 35.216 65.9361 35.1477C66.0128 35.0789 66.0533 34.9839 66.062 34.8805L65.763 34.8555ZM65.6605 34.946H61.3405V35.246H65.6605V34.946ZM61.1906 35.1029C61.2219 35.7848 61.4362 36.2877 61.7881 36.6196C62.1393 36.9509 62.6089 37.094 63.1165 37.094V36.794C62.664 36.794 62.2756 36.6671 61.9939 36.4014C61.7128 36.1363 61.519 35.7152 61.4903 35.0891L61.1906 35.1029ZM63.1165 37.094C63.4155 37.094 63.6785 37.043 63.9115 36.9189C64.145 36.7945 64.3367 36.6029 64.5031 36.3403L64.2498 36.1797C64.1043 36.4091 63.948 36.5595 63.7704 36.6541C63.5924 36.749 63.3814 36.794 63.1165 36.794V37.094ZM64.5051 36.3372C64.5325 36.2915 64.5551 36.2713 64.5733 36.2607C64.5909 36.2505 64.617 36.242 64.6645 36.242V35.942C64.5799 35.942 64.498 35.9575 64.4226 36.0013C64.3478 36.0447 64.2924 36.1085 64.2478 36.1828L64.5051 36.3372ZM64.6645 36.242H65.5165V35.942H64.6645V36.242ZM65.5165 36.242C65.5816 36.242 65.5902 36.2615 65.5852 36.2545C65.5828 36.2512 65.5841 36.25 65.5842 36.2565C65.5843 36.2642 65.5824 36.2813 65.5706 36.3089L65.8463 36.4271C65.894 36.3159 65.9053 36.186 65.8288 36.0795C65.7548 35.9765 65.6314 35.942 65.5165 35.942V36.242ZM65.5699 36.3106C65.1015 37.4415 64.149 38.042 62.9965 38.042V38.342C64.268 38.342 65.3314 37.6705 65.8471 36.4254L65.5699 36.3106ZM62.9965 38.042C62.1477 38.042 61.4235 37.7246 60.9107 37.1692C60.3971 36.6131 60.0865 35.8084 60.0865 34.82H59.7865C59.7865 35.8716 60.1178 36.7529 60.6903 37.3728C61.2634 37.9934 62.0693 38.342 62.9965 38.342V38.042ZM60.0865 34.82C60.0865 33.831 60.3945 33.0019 60.9206 32.4218C61.4455 31.8429 62.1963 31.502 63.1045 31.502V31.202C62.1167 31.202 61.2834 31.5751 60.6984 32.2202C60.1144 32.8641 59.7865 33.769 59.7865 34.82H60.0865ZM62.9845 32.45C62.4478 32.45 62.0568 32.6361 61.7794 32.927C61.5065 33.2132 61.3537 33.5898 61.2665 33.9574L61.5584 34.0266C61.6392 33.6862 61.7745 33.3668 61.9965 33.134C62.2141 32.9059 62.5251 32.75 62.9845 32.75V32.45ZM61.4125 34.142H64.4725V33.842H61.4125V34.142ZM64.6224 33.9895C64.6159 33.5903 64.4749 33.2043 64.1961 32.917C63.9157 32.6282 63.5063 32.45 62.9845 32.45V32.75C63.4346 32.75 63.7632 32.9018 63.9808 33.126C64.2 33.3517 64.317 33.6617 64.3225 33.9945L64.6224 33.9895ZM78.6503 33.848L78.5003 33.8491L78.5003 33.8494L78.6503 33.848ZM78.6863 37.76H78.8363L78.8363 37.7586L78.6863 37.76ZM77.1983 37.76L77.0483 37.759V37.76H77.1983ZM77.2223 34.208L77.0723 34.2063L77.0723 34.207L77.2223 34.208ZM74.8343 34.928L74.9844 34.9267L74.9841 34.9197L74.8343 34.928ZM74.8583 37.76H75.0083L75.0083 37.7587L74.8583 37.76ZM73.3703 37.76L73.2203 37.759V37.76H73.3703ZM73.3943 34.208L73.2443 34.2063L73.2443 34.207L73.3943 34.208ZM71.0063 34.928L71.1564 34.9267L71.1561 34.9203L71.0063 34.928ZM71.0303 37.76H71.1803L71.1803 37.7587L71.0303 37.76ZM69.5423 37.76L69.3923 37.7585V37.76H69.5423ZM69.6023 31.796L69.7523 31.7975V31.796H69.6023ZM70.9823 31.796H70.8323L70.8323 31.7988L70.9823 31.796ZM70.9943 32.432L70.8443 32.4348L70.8471 32.582H70.9943V32.432ZM71.0543 32.432V32.582H71.1315L71.1763 32.5192L71.0543 32.432ZM74.5583 32.54L74.4187 32.595L74.4562 32.69H74.5583V32.54ZM74.6423 32.54V32.69H74.7199L74.7647 32.6267L74.6423 32.54ZM76.6103 31.514C77.2023 31.514 77.6645 31.721 77.983 32.1035C78.3048 32.4899 78.4944 33.0729 78.5003 33.8491L78.8003 33.8469C78.7941 33.0271 78.5938 32.3681 78.2135 31.9115C77.8301 31.451 77.2782 31.214 76.6103 31.214V31.514ZM78.5003 33.8494L78.5363 37.7614L78.8363 37.7586L78.8003 33.8466L78.5003 33.8494ZM78.5363 37.76C78.5363 37.8121 78.5226 37.8285 78.5187 37.8324C78.5148 37.8363 78.4983 37.85 78.4463 37.85V38.15C78.5502 38.15 78.6537 38.1217 78.7308 38.0446C78.8079 37.9675 78.8363 37.8639 78.8363 37.76H78.5363ZM78.4463 37.85H77.4383V38.15H78.4463V37.85ZM77.4383 37.85C77.3862 37.85 77.3697 37.8363 77.3658 37.8324C77.3619 37.8285 77.3483 37.8121 77.3483 37.76H77.0483C77.0483 37.8639 77.0766 37.9675 77.1537 38.0446C77.2308 38.1217 77.3343 38.15 77.4383 38.15V37.85ZM77.3483 37.761L77.3723 34.209L77.0723 34.207L77.0483 37.759L77.3483 37.761ZM77.3723 34.2097C77.3784 33.6808 77.2904 33.2684 77.0916 32.9849C76.8859 32.6915 76.5775 32.558 76.2023 32.558V32.858C76.4991 32.858 76.7067 32.9585 76.846 33.1571C76.9921 33.3656 77.0781 33.7032 77.0723 34.2063L77.3723 34.2097ZM76.2023 32.558C75.7469 32.558 75.3368 32.7547 75.0572 33.1615C74.7813 33.5629 74.6414 34.155 74.6845 34.9363L74.9841 34.9197C74.9431 34.177 75.0792 33.6591 75.3044 33.3315C75.5258 33.0093 75.8416 32.858 76.2023 32.858V32.558ZM74.6843 34.9293L74.7083 37.7613L75.0083 37.7587L74.9843 34.9267L74.6843 34.9293ZM74.7083 37.76C74.7083 37.8121 74.6946 37.8285 74.6907 37.8324C74.6868 37.8363 74.6703 37.85 74.6183 37.85V38.15C74.7222 38.15 74.8257 38.1217 74.9028 38.0446C74.9799 37.9675 75.0083 37.8639 75.0083 37.76H74.7083ZM74.6183 37.85H73.6103V38.15H74.6183V37.85ZM73.6103 37.85C73.5582 37.85 73.5417 37.8363 73.5378 37.8324C73.5339 37.8285 73.5203 37.8121 73.5203 37.76H73.2203C73.2203 37.8639 73.2486 37.9675 73.3257 38.0446C73.4028 38.1217 73.5063 38.15 73.6103 38.15V37.85ZM73.5203 37.761L73.5443 34.209L73.2443 34.207L73.2203 37.759L73.5203 37.761ZM73.5443 34.2097C73.5504 33.6799 73.4591 33.2677 73.2587 32.9844C73.0519 32.6919 72.7442 32.558 72.3743 32.558V32.858C72.6644 32.858 72.8727 32.9581 73.0138 33.1576C73.1614 33.3663 73.2501 33.7041 73.2443 34.2063L73.5443 34.2097ZM72.3743 32.558C71.9665 32.558 71.5566 32.7201 71.2641 33.1117C70.9748 33.4992 70.8134 34.0935 70.8565 34.9357L71.1561 34.9203C71.1151 34.1185 71.2718 33.6028 71.5045 33.2913C71.734 32.9839 72.05 32.858 72.3743 32.858V32.558ZM70.8563 34.9293L70.8803 37.7613L71.1803 37.7587L71.1563 34.9267L70.8563 34.9293ZM70.8803 37.76C70.8803 37.8121 70.8666 37.8285 70.8627 37.8324C70.8588 37.8363 70.8423 37.85 70.7903 37.85V38.15C70.8942 38.15 70.9977 38.1217 71.0748 38.0446C71.1519 37.9675 71.1803 37.8639 71.1803 37.76H70.8803ZM70.7903 37.85H69.7823V38.15H70.7903V37.85ZM69.7823 37.85C69.7302 37.85 69.7137 37.8363 69.7098 37.8324C69.7059 37.8285 69.6923 37.8121 69.6923 37.76H69.3923C69.3923 37.8639 69.4206 37.9675 69.4977 38.0446C69.5748 38.1217 69.6783 38.15 69.7823 38.15V37.85ZM69.6923 37.7615L69.7523 31.7975L69.4523 31.7945L69.3923 37.7585L69.6923 37.7615ZM69.7523 31.796C69.7523 31.7439 69.7659 31.7275 69.7698 31.7236C69.7737 31.7197 69.7902 31.706 69.8423 31.706V31.406C69.7383 31.406 69.6348 31.4343 69.5577 31.5114C69.4806 31.5885 69.4523 31.6921 69.4523 31.796H69.7523ZM69.8423 31.706H70.7423V31.406H69.8423V31.706ZM70.7423 31.706C70.7943 31.706 70.8108 31.7197 70.8147 31.7236C70.8186 31.7275 70.8323 31.7439 70.8323 31.796H71.1323C71.1323 31.6921 71.104 31.5885 71.0268 31.5114C70.9497 31.4343 70.8462 31.406 70.7423 31.406V31.706ZM70.8323 31.7988L70.8443 32.4348L71.1443 32.4292L71.1323 31.7932L70.8323 31.7988ZM70.9943 32.582H71.0543V32.282H70.9943V32.582ZM71.1763 32.5192C71.6377 31.8733 72.209 31.514 72.8663 31.514V31.214C72.0836 31.214 71.4309 31.6467 70.9322 32.3448L71.1763 32.5192ZM72.8663 31.514C73.2311 31.514 73.5456 31.6035 73.8034 31.779C74.0611 31.9544 74.2719 32.2223 74.4187 32.595L74.6978 32.485C74.5326 32.0656 74.2874 31.7456 73.9722 31.531C73.657 31.3165 73.2814 31.214 72.8663 31.214V31.514ZM74.5583 32.69H74.6423V32.39H74.5583V32.69ZM74.7647 32.6267C75.2986 31.8723 75.858 31.514 76.6103 31.514V31.214C75.7306 31.214 75.09 31.6477 74.5198 32.4533L74.7647 32.6267ZM85.8929 34.868L86.0425 34.8805L86.0427 34.8763L85.8929 34.868ZM81.3209 35.096V34.946H81.1639L81.1711 35.1029L81.3209 35.096ZM84.3569 36.26L84.4837 36.3404L84.4856 36.3372L84.3569 36.26ZM85.6889 36.368L85.5511 36.3089L85.5504 36.3106L85.6889 36.368ZM81.3929 33.992L81.247 33.9574L81.2032 34.142H81.3929V33.992ZM84.4529 33.992V34.142H84.6054L84.6029 33.9895L84.4529 33.992ZM83.0849 31.502C84.0309 31.502 84.7136 31.8722 85.1512 32.4655C85.5927 33.0641 85.7959 33.9054 85.7432 34.8597L86.0427 34.8763C86.098 33.8746 85.8871 32.9579 85.3927 32.2875C84.8943 31.6118 84.1189 31.202 83.0849 31.202V31.502ZM85.7435 34.8555C85.7401 34.8961 85.7266 34.9151 85.7163 34.9243C85.7055 34.934 85.6836 34.946 85.6409 34.946V35.246C85.7423 35.246 85.8403 35.216 85.9166 35.1477C85.9933 35.0789 86.0338 34.9839 86.0424 34.8805L85.7435 34.8555ZM85.6409 34.946H81.3209V35.246H85.6409V34.946ZM81.1711 35.1029C81.2024 35.7848 81.4166 36.2877 81.7685 36.6196C82.1198 36.9509 82.5894 37.094 83.0969 37.094V36.794C82.6445 36.794 82.2561 36.6671 81.9744 36.4014C81.6932 36.1363 81.4995 35.7152 81.4708 35.0891L81.1711 35.1029ZM83.0969 37.094C83.396 37.094 83.659 37.043 83.892 36.9189C84.1254 36.7945 84.3171 36.6029 84.4836 36.3403L84.2303 36.1797C84.0847 36.4091 83.9285 36.5595 83.7509 36.6541C83.5729 36.749 83.3619 36.794 83.0969 36.794V37.094ZM84.4856 36.3372C84.513 36.2915 84.5356 36.2713 84.5538 36.2607C84.5714 36.2505 84.5975 36.242 84.6449 36.242V35.942C84.5604 35.942 84.4785 35.9575 84.4031 36.0013C84.3283 36.0447 84.2729 36.1085 84.2283 36.1828L84.4856 36.3372ZM84.6449 36.242H85.4969V35.942H84.6449V36.242ZM85.4969 36.242C85.562 36.242 85.5706 36.2615 85.5656 36.2545C85.5632 36.2512 85.5645 36.25 85.5646 36.2565C85.5648 36.2642 85.5629 36.2813 85.5511 36.3089L85.8268 36.4271C85.8745 36.3159 85.8858 36.186 85.8092 36.0795C85.7352 35.9765 85.6118 35.942 85.4969 35.942V36.242ZM85.5504 36.3106C85.082 37.4415 84.1294 38.042 82.9769 38.042V38.342C84.2485 38.342 85.3119 37.6705 85.8275 36.4254L85.5504 36.3106ZM82.9769 38.042C82.1281 38.042 81.404 37.7246 80.8911 37.1692C80.3776 36.6131 80.0669 35.8084 80.0669 34.82H79.7669C79.7669 35.8716 80.0983 36.7529 80.6707 37.3728C81.2439 37.9934 82.0497 38.342 82.9769 38.342V38.042ZM80.0669 34.82C80.0669 33.831 80.375 33.0019 80.9011 32.4218C81.426 31.8429 82.1767 31.502 83.0849 31.502V31.202C82.0971 31.202 81.2639 31.5751 80.6788 32.2202C80.0949 32.8641 79.7669 33.769 79.7669 34.82H80.0669ZM82.9649 32.45C82.4283 32.45 82.0373 32.6361 81.7599 32.927C81.4869 33.2132 81.3342 33.5898 81.247 33.9574L81.5389 34.0266C81.6197 33.6862 81.755 33.3668 81.977 33.134C82.1946 32.9059 82.5056 32.75 82.9649 32.75V32.45ZM81.3929 34.142H84.4529V33.842H81.3929V34.142ZM84.6029 33.9895C84.5964 33.5903 84.4554 33.2043 84.1766 32.917C83.8962 32.6282 83.4868 32.45 82.9649 32.45V32.75C83.4151 32.75 83.7437 32.9018 83.9613 33.126C84.1805 33.3517 84.2975 33.6617 84.303 33.9945L84.6029 33.9895ZM89.3876 29.384H89.2376L89.2376 29.3856L89.3876 29.384ZM89.4476 34.988H89.5976L89.5976 34.9864L89.4476 34.988ZM87.9596 34.988L87.8096 34.9864V34.988H87.9596ZM88.0196 29.384L88.1696 29.3856V29.384H88.0196ZM89.2376 29.3856L89.2976 34.9896L89.5976 34.9864L89.5376 29.3824L89.2376 29.3856ZM89.2976 34.988C89.2976 35.0401 89.2839 35.0565 89.28 35.0604C89.2761 35.0643 89.2596 35.078 89.2076 35.078V35.378C89.3115 35.378 89.415 35.3497 89.4921 35.2726C89.5692 35.1955 89.5976 35.0919 89.5976 34.988H89.2976ZM89.2076 35.078H88.1996V35.378H89.2076V35.078ZM88.1996 35.078C88.1475 35.078 88.131 35.0643 88.1271 35.0604C88.1232 35.0565 88.1096 35.0401 88.1096 34.988H87.8096C87.8096 35.0919 87.8379 35.1955 87.915 35.2726C87.9921 35.3497 88.0956 35.378 88.1996 35.378V35.078ZM88.1096 34.9896L88.1696 29.3856L87.8696 29.3824L87.8096 34.9864L88.1096 34.9896ZM88.1696 29.384C88.1696 29.3319 88.1832 29.3155 88.1871 29.3116C88.191 29.3077 88.2075 29.294 88.2596 29.294V28.994C88.1556 28.994 88.0521 29.0223 87.975 29.0994C87.8979 29.1765 87.8696 29.2801 87.8696 29.384H88.1696ZM88.2596 29.294H89.1476V28.994H88.2596V29.294ZM89.1476 29.294C89.1996 29.294 89.2161 29.3077 89.22 29.3116C89.2239 29.3155 89.2376 29.3319 89.2376 29.384H89.5376C89.5376 29.2801 89.5092 29.1765 89.4321 29.0994C89.355 29.0223 89.2515 28.994 89.1476 28.994V29.294ZM89.3216 36.716V37.76H89.6216V36.716H89.3216ZM89.3216 37.76C89.3216 37.8121 89.3079 37.8285 89.304 37.8324C89.3001 37.8363 89.2836 37.85 89.2316 37.85V38.15C89.3355 38.15 89.439 38.1217 89.5161 38.0446C89.5932 37.9675 89.6216 37.8639 89.6216 37.76H89.3216ZM89.2316 37.85H88.0556V38.15H89.2316V37.85ZM88.0556 37.85C88.0035 37.85 87.987 37.8363 87.9831 37.8324C87.9792 37.8285 87.9656 37.8121 87.9656 37.76H87.6656C87.6656 37.8639 87.6939 37.9675 87.771 38.0446C87.8481 38.1217 87.9516 38.15 88.0556 38.15V37.85ZM87.9656 37.76V36.716H87.6656V37.76H87.9656ZM87.9656 36.716C87.9656 36.6639 87.9792 36.6475 87.9831 36.6436C87.987 36.6397 88.0035 36.626 88.0556 36.626V36.326C87.9516 36.326 87.8481 36.3543 87.771 36.4314C87.6939 36.5085 87.6656 36.6121 87.6656 36.716H87.9656ZM88.0556 36.626H89.2316V36.326H88.0556V36.626ZM89.2316 36.626C89.2836 36.626 89.3001 36.6397 89.304 36.6436C89.3079 36.6475 89.3216 36.6639 89.3216 36.716H89.6216C89.6216 36.6121 89.5932 36.5085 89.5161 36.4314C89.439 36.3543 89.3355 36.326 89.2316 36.326V36.626Z" fill="#F5F5F5"/>
<g filter="url(#filter0_d_40_46)">
<path d="M4 2C12.5286 9.1813 22.8869 12.5662 27 13.361C21.0118 15.306 15.3412 14.7948 13.2544 14.2961C12.2383 15.3434 11.6515 18.5351 11.4852 20C7.96489 15.4743 5.02827 6.11429 4 2Z" fill="url(#paint2_linear_40_46)"/>
<path d="M3.02984 2.24247C2.9247 1.82176 3.10268 1.38123 3.47057 1.15165C3.83845 0.922061 4.31239 0.955747 4.6441 1.23506C13.0132 8.28208 23.2025 11.6087 27.1897 12.3792C27.6375 12.4657 27.97 12.8443 27.9981 13.2995C28.0262 13.7547 27.7427 14.1712 27.3089 14.3121C21.6621 16.1462 16.2869 15.8752 13.6883 15.4067C13.6256 15.5219 13.5598 15.6579 13.4923 15.816C13.317 16.2263 13.1576 16.7197 13.0178 17.2474C12.7381 18.3036 12.5576 19.4187 12.4788 20.1128C12.433 20.5167 12.1471 20.8527 11.7558 20.9627C11.3645 21.0727 10.9455 20.9348 10.6959 20.614C8.84021 18.2283 7.1835 14.6405 5.87359 11.2017C4.5554 7.7411 3.55265 4.33432 3.02984 2.24247Z" stroke="url(#paint3_linear_40_46)" stroke-width="2" stroke-linejoin="round"/>
</g>
<defs>
<filter id="filter0_d_40_46" x="-0.00012207" y="0" width="31.0002" height="26.0001" filterUnits="userSpaceOnUse" color-interpolation-filters="sRGB">
<feFlood flood-opacity="0" result="BackgroundImageFix"/>
<feColorMatrix in="SourceAlpha" type="matrix" values="0 0 0 0 0 0 0 0 0 0 0 0 0 0 0 0 0 0 127 0" result="hardAlpha"/>
<feOffset dy="2"/>
<feGaussianBlur stdDeviation="1"/>
<feComposite in2="hardAlpha" operator="out"/>
<feColorMatrix type="matrix" values="0 0 0 0 0 0 0 0 0 0 0 0 0 0 0 0 0 0 0.25 0"/>
<feBlend mode="normal" in2="BackgroundImageFix" result="effect1_dropShadow_40_46"/>
<feBlend mode="normal" in="SourceGraphic" in2="effect1_dropShadow_40_46" result="shape"/>
</filter>
<linearGradient id="paint0_linear_40_46" x1="84.5" y1="13.3913" x2="84.4516" y2="69.826" gradientUnits="userSpaceOnUse">
<stop stop-color="#062F3F"/>
<stop offset="0.276644" stop-color="#00AFCD"/>
<stop offset="1" stop-color="white"/>
</linearGradient>
<linearGradient id="paint1_linear_40_46" x1="115.5" y1="33.4783" x2="-5" y2="33.4783" gradientUnits="userSpaceOnUse">
<stop stop-color="#F5F5F5"/>
<stop offset="0.505" stop-color="#00AFCD"/>
<stop offset="1" stop-color="#062F3F"/>
</linearGradient>
<linearGradient id="paint2_linear_40_46" x1="16" y1="-1" x2="15.5" y2="20" gradientUnits="userSpaceOnUse">
<stop stop-color="#062F3F"/>
<stop offset="0.395" stop-color="#00AFCD"/>
<stop offset="1" stop-color="#F5F5F5"/>
</linearGradient>
<linearGradient id="paint3_linear_40_46" x1="3.99999" y1="2" x2="14.1858" y2="24.1852" gradientUnits="userSpaceOnUse">
<stop stop-color="#F5F5F5"/>
<stop offset="0.695" stop-color="#00AFCD"/>
<stop offset="1" stop-color="#062F3F"/>
</linearGradient>
</defs>
</svg>
