<svg width="108" height="46" viewBox="0 0 108 46" fill="none" xmlns="http://www.w3.org/2000/svg">
<rect x="19" y="22" width="88" height="23" rx="8" fill="url(#paint0_linear_40_46)"/>
<rect x="19" y="22" width="88" height="23" rx="8" stroke="url(#paint1_linear_40_46)" stroke-width="2"/>
<path d="M35.2585 29.2727H37.5341L39.9375 35.1364H40.0398L42.4432 29.2727H44.7188V38H42.929V32.3196H42.8565L40.598 37.9574H39.3793L37.1207 32.2983H37.0483V38H35.2585V29.2727ZM49.1623 38.1278C48.5004 38.1278 47.9279 37.9872 47.445 37.706C46.9648 37.4219 46.5941 37.027 46.3327 36.5213C46.0714 36.0128 45.9407 35.4233 45.9407 34.7528C45.9407 34.0767 46.0714 33.4858 46.3327 32.9801C46.5941 32.4716 46.9648 32.0767 47.445 31.7955C47.9279 31.5114 48.5004 31.3693 49.1623 31.3693C49.8242 31.3693 50.3952 31.5114 50.8754 31.7955C51.3583 32.0767 51.7305 32.4716 51.9918 32.9801C52.2532 33.4858 52.3839 34.0767 52.3839 34.7528C52.3839 35.4233 52.2532 36.0128 51.9918 36.5213C51.7305 37.027 51.3583 37.4219 50.8754 37.706C50.3952 37.9872 49.8242 38.1278 49.1623 38.1278ZM49.1708 36.7216C49.4719 36.7216 49.7234 36.6364 49.9251 36.4659C50.1268 36.2926 50.2788 36.0568 50.381 35.7585C50.4862 35.4602 50.5387 35.1207 50.5387 34.7401C50.5387 34.3594 50.4862 34.0199 50.381 33.7216C50.2788 33.4233 50.1268 33.1875 49.9251 33.0142C49.7234 32.8409 49.4719 32.7543 49.1708 32.7543C48.8668 32.7543 48.6112 32.8409 48.4038 33.0142C48.1992 33.1875 48.0444 33.4233 47.9393 33.7216C47.837 34.0199 47.7859 34.3594 47.7859 34.7401C47.7859 35.1207 47.837 35.4602 47.9393 35.7585C48.0444 36.0568 48.1992 36.2926 48.4038 36.4659C48.6112 36.6364 48.8668 36.7216 49.1708 36.7216ZM59.4556 31.4545L57.1673 38H55.1218L52.8335 31.4545H54.7511L56.1104 36.1378H56.1786L57.5337 31.4545H59.4556ZM63.1566 38.1278C62.4833 38.1278 61.9038 37.9915 61.418 37.7188C60.935 37.4432 60.5629 37.054 60.3015 36.5511C60.0401 36.0455 59.9094 35.4474 59.9094 34.7571C59.9094 34.0838 60.0401 33.4929 60.3015 32.9844C60.5629 32.4759 60.9308 32.0795 61.4052 31.7955C61.8825 31.5114 62.4421 31.3693 63.0842 31.3693C63.516 31.3693 63.918 31.4389 64.2901 31.5781C64.6651 31.7145 64.9918 31.9205 65.2702 32.196C65.5515 32.4716 65.7702 32.8182 65.9265 33.2358C66.0827 33.6506 66.1609 34.1364 66.1609 34.6932V35.1918H60.6339V34.0668H64.4521C64.4521 33.8054 64.3952 33.5739 64.2816 33.3722C64.168 33.1705 64.0103 33.0128 63.8086 32.8991C63.6097 32.7827 63.3782 32.7244 63.114 32.7244C62.8384 32.7244 62.5941 32.7884 62.381 32.9162C62.1708 33.0412 62.006 33.2102 61.8867 33.4233C61.7674 33.6335 61.7063 33.8679 61.7035 34.1264V35.196C61.7035 35.5199 61.7631 35.7997 61.8825 36.0355C62.0046 36.2713 62.1765 36.4531 62.3981 36.581C62.6197 36.7088 62.8825 36.7727 63.1864 36.7727C63.3881 36.7727 63.5728 36.7443 63.7404 36.6875C63.908 36.6307 64.0515 36.5455 64.1708 36.4318C64.2901 36.3182 64.381 36.179 64.4435 36.0142L66.1225 36.125C66.0373 36.5284 65.8626 36.8807 65.5984 37.1818C65.337 37.4801 64.9989 37.7131 64.5842 37.8807C64.1722 38.0455 63.6964 38.1278 63.1566 38.1278ZM70.1229 38V31.4545H71.853V32.6094H71.9297C72.0661 32.2259 72.2933 31.9233 72.6115 31.7017C72.9297 31.4801 73.3104 31.3693 73.7536 31.3693C74.2024 31.3693 74.5845 31.4815 74.8999 31.706C75.2152 31.9276 75.4254 32.2287 75.5305 32.6094H75.5987C75.7322 32.2344 75.9737 31.9347 76.3232 31.7102C76.6754 31.483 77.0916 31.3693 77.5717 31.3693C78.1825 31.3693 78.6783 31.5639 79.0589 31.9531C79.4425 32.3395 79.6342 32.8878 79.6342 33.598V38H77.8232V33.956C77.8232 33.5923 77.7266 33.3196 77.5334 33.1378C77.3402 32.956 77.0987 32.8651 76.8089 32.8651C76.4794 32.8651 76.2223 32.9702 76.0376 33.1804C75.853 33.3878 75.7607 33.6619 75.7607 34.0028V38H74.0007V33.9176C74.0007 33.5966 73.9084 33.3409 73.7237 33.1506C73.5419 32.9602 73.3018 32.8651 73.0036 32.8651C72.8018 32.8651 72.62 32.9162 72.4581 33.0185C72.299 33.1179 72.1726 33.2585 72.0788 33.4403C71.9851 33.6193 71.9382 33.8295 71.9382 34.071V38H70.1229ZM84.0511 38.1278C83.3778 38.1278 82.7983 37.9915 82.3125 37.7188C81.8295 37.4432 81.4574 37.054 81.196 36.5511C80.9347 36.0455 80.804 35.4474 80.804 34.7571C80.804 34.0838 80.9347 33.4929 81.196 32.9844C81.4574 32.4759 81.8253 32.0795 82.2997 31.7955C82.777 31.5114 83.3366 31.3693 83.9787 31.3693C84.4105 31.3693 84.8125 31.4389 85.1847 31.5781C85.5597 31.7145 85.8864 31.9205 86.1648 32.196C86.446 32.4716 86.6648 32.8182 86.821 33.2358C86.9773 33.6506 87.0554 34.1364 87.0554 34.6932V35.1918H81.5284V34.0668H85.3466C85.3466 33.8054 85.2898 33.5739 85.1761 33.3722C85.0625 33.1705 84.9048 33.0128 84.7031 32.8991C84.5043 32.7827 84.2727 32.7244 84.0085 32.7244C83.733 32.7244 83.4886 32.7884 83.2756 32.9162C83.0653 33.0412 82.9006 33.2102 82.7812 33.4233C82.6619 33.6335 82.6009 33.8679 82.598 34.1264V35.196C82.598 35.5199 82.6577 35.7997 82.777 36.0355C82.8991 36.2713 83.071 36.4531 83.2926 36.581C83.5142 36.7088 83.777 36.7727 84.081 36.7727C84.2827 36.7727 84.4673 36.7443 84.6349 36.6875C84.8026 36.6307 84.946 36.5455 85.0653 36.4318C85.1847 36.3182 85.2756 36.179 85.3381 36.0142L87.017 36.125C86.9318 36.5284 86.7571 36.8807 86.4929 37.1818C86.2315 37.4801 85.8935 37.7131 85.4787 37.8807C85.0668 38.0455 84.5909 38.1278 84.0511 38.1278ZM90.4091 29.2727L90.2429 35.3835H88.6832L88.5128 29.2727H90.4091ZM89.4631 38.1108C89.1818 38.1108 88.9403 38.0114 88.7386 37.8125C88.5369 37.6108 88.4375 37.3693 88.4403 37.0881C88.4375 36.8097 88.5369 36.571 88.7386 36.3722C88.9403 36.1733 89.1818 36.0739 89.4631 36.0739C89.733 36.0739 89.9702 36.1733 90.1747 36.3722C90.3793 36.571 90.483 36.8097 90.4858 37.0881C90.483 37.2756 90.4332 37.4474 90.3366 37.6037C90.2429 37.7571 90.1193 37.8807 89.9659 37.9744C89.8125 38.0653 89.6449 38.1108 89.4631 38.1108Z" fill="#F5F5F5"/>
<g filter="url(#filter0_d_40_46)">
<path d="M4 2C12.5286 9.1813 22.8869 12.5662 27 13.361C21.0118 15.306 15.3412 14.7948 13.2544 14.2961C12.2383 15.3434 11.6515 18.5351 11.4852 20C7.96489 15.4743 5.02827 6.11429 4 2Z" fill="url(#paint2_linear_40_46)"/>
<path d="M27.1897 12.3792C27.6375 12.4657 27.97 12.8443 27.9981 13.2995C28.0262 13.7547 27.7427 14.1712 27.3089 14.3121C21.6621 16.1462 16.2869 15.8752 13.6883 15.4067C13.6256 15.5219 13.5598 15.6579 13.4923 15.816C13.317 16.2263 13.1576 16.7197 13.0178 17.2474C12.7381 18.3036 12.5576 19.4187 12.4788 20.1128C12.433 20.5167 12.1471 20.8527 11.7558 20.9627C11.3645 21.0727 10.9455 20.9348 10.6959 20.614C8.84021 18.2283 7.1835 14.6405 5.87359 11.2017C4.5554 7.7411 3.55265 4.33432 3.02984 2.24247C2.9247 1.82176 3.10268 1.38123 3.47057 1.15165C3.83845 0.922061 4.31239 0.955747 4.6441 1.23506C13.0132 8.28208 23.2025 11.6087 27.1897 12.3792Z" stroke="url(#paint3_linear_40_46)" stroke-width="2" stroke-linejoin="round"/>
</g>
<defs>
<filter id="filter0_d_40_46" x="-0.00012207" y="0" width="31.0002" height="26.0001" filterUnits="userSpaceOnUse" color-interpolation-filters="sRGB">
<feFlood flood-opacity="0" result="BackgroundImageFix"/>
<feColorMatrix in="SourceAlpha" type="matrix" values="0 0 0 0 0 0 0 0 0 0 0 0 0 0 0 0 0 0 127 0" result="hardAlpha"/>
<feOffset dy="2"/>
<feGaussianBlur stdDeviation="1"/>
<feComposite in2="hardAlpha" operator="out"/>
<feColorMatrix type="matrix" values="0 0 0 0 0 0 0 0 0 0 0 0 0 0 0 0 0 0 0.25 0"/>
<feBlend mode="normal" in2="BackgroundImageFix" result="effect1_dropShadow_40_46"/>
<feBlend mode="normal" in="SourceGraphic" in2="effect1_dropShadow_40_46" result="shape"/>
</filter>
<linearGradient id="paint0_linear_40_46" x1="84.4969" y1="19.5" x2="84.4529" y2="72" gradientUnits="userSpaceOnUse">
<stop stop-color="#00AFCD"/>
<stop offset="1" stop-color="white"/>
</linearGradient>
<linearGradient id="paint1_linear_40_46" x1="115.5" y1="34" x2="30.5" y2="34" gradientUnits="userSpaceOnUse">
<stop stop-color="#F5F5F5"/>
<stop offset="1" stop-color="#00AFCD"/>
</linearGradient>
<linearGradient id="paint2_linear_40_46" x1="15.5" y1="2" x2="15.5" y2="20" gradientUnits="userSpaceOnUse">
<stop stop-color="#00AFCD"/>
<stop offset="1" stop-color="#F5F5F5"/>
</linearGradient>
<linearGradient id="paint3_linear_40_46" x1="4" y1="2" x2="20.0066" y2="19.5052" gradientUnits="userSpaceOnUse">
<stop stop-color="#F5F5F5"/>
<stop offset="1" stop-color="#00AFCD"/>
</linearGradient>
</defs>
</svg>
