<svg width="108" height="47" viewBox="0 0 108 47" fill="none" xmlns="http://www.w3.org/2000/svg">
<g filter="url(#filter0_d_104_17)">
<path d="M4 2C12.5286 9.1813 22.8869 12.5662 27 13.361C21.0118 15.306 15.3412 14.7948 13.2544 14.2961C12.2383 15.3434 11.6515 18.5351 11.4852 20C7.96489 15.4743 5.02827 6.11429 4 2Z" fill="url(#paint0_linear_104_17)"/>
<path d="M3.02984 2.24247C2.9247 1.82176 3.10268 1.38123 3.47057 1.15165C3.83845 0.922061 4.31239 0.955747 4.6441 1.23506C13.0132 8.28208 23.2025 11.6087 27.1897 12.3792C27.6375 12.4657 27.97 12.8443 27.9981 13.2995C28.0262 13.7547 27.7427 14.1712 27.3089 14.3121C21.6621 16.1462 16.2869 15.8752 13.6883 15.4067C13.6256 15.5219 13.5598 15.6579 13.4923 15.816C13.317 16.2263 13.1576 16.7197 13.0178 17.2474C12.7381 18.3036 12.5576 19.4187 12.4788 20.1128C12.433 20.5167 12.1471 20.8527 11.7558 20.9627C11.3645 21.0727 10.9455 20.9348 10.6959 20.614C8.84021 18.2283 7.1835 14.6405 5.87359 11.2017C4.5554 7.7411 3.55265 4.33432 3.02984 2.24247Z" stroke="url(#paint1_linear_104_17)" stroke-width="2" stroke-linejoin="round"/>
</g>
<rect x="19" y="24" width="88" height="22" rx="8" fill="url(#paint2_linear_104_17)"/>
<rect x="19" y="24" width="88" height="22" rx="8" stroke="url(#paint3_linear_104_17)" stroke-width="2"/>
<path d="M44.648 40H43.676C43.52 40 43.436 39.916 43.436 39.76L43.328 32.932L41.12 39.808C41.084 39.94 40.988 40 40.856 40H39.908C39.776 40 39.68 39.94 39.644 39.796L37.388 32.728L37.28 39.76C37.28 39.916 37.196 40 37.04 40H36.068C35.912 40 35.828 39.916 35.84 39.76L36.116 31.456C36.128 31.3 36.212 31.216 36.368 31.216H37.952C38.084 31.216 38.18 31.276 38.216 31.408L40.388 38.092L42.548 31.408C42.584 31.276 42.68 31.216 42.812 31.216H44.348C44.504 31.216 44.588 31.3 44.6 31.456L44.876 39.76C44.888 39.916 44.804 40 44.648 40ZM49.3589 33.364C51.1229 33.364 52.4429 34.708 52.4429 36.7C52.4429 38.716 51.0629 40.192 49.2509 40.192C47.4869 40.192 46.1669 38.788 46.1669 36.808C46.1669 34.78 47.5349 33.364 49.3589 33.364ZM49.2029 34.6C48.2549 34.6 47.5709 35.38 47.5709 36.676C47.5709 38.056 48.3869 38.932 49.3949 38.932C50.3429 38.932 51.0269 38.128 51.0269 36.856C51.0269 35.452 50.2229 34.6 49.2029 34.6ZM59.1585 33.832L57.1665 39.808C57.1305 39.94 57.0345 40 56.9025 40H55.4745C55.3425 40 55.2465 39.94 55.2105 39.808L53.2185 33.832C53.1585 33.664 53.2305 33.556 53.4105 33.556H54.2865C54.4185 33.556 54.5145 33.616 54.5505 33.748L56.1225 38.476H56.2665L57.8265 33.748C57.8625 33.616 57.9585 33.556 58.0905 33.556H58.9665C59.1465 33.556 59.2185 33.664 59.1585 33.832ZM63.1045 33.352C65.0845 33.352 66.0205 34.912 65.9125 36.868C65.9005 37.012 65.8045 37.096 65.6605 37.096H61.3405C61.4005 38.404 62.1565 38.944 63.1165 38.944C63.6805 38.944 64.0645 38.752 64.3765 38.26C64.4485 38.14 64.5325 38.092 64.6645 38.092H65.5165C65.6965 38.092 65.7805 38.2 65.7085 38.368C65.2165 39.556 64.2085 40.192 62.9965 40.192C61.2205 40.192 59.9365 38.86 59.9365 36.82C59.9365 34.78 61.2085 33.352 63.1045 33.352ZM62.9845 34.6C61.9885 34.6 61.5805 35.284 61.4125 35.992H64.4725C64.4605 35.26 63.9565 34.6 62.9845 34.6ZM76.6103 33.364C77.8703 33.364 78.6383 34.252 78.6503 35.848L78.6863 39.76C78.6863 39.916 78.6023 40 78.4463 40H77.4383C77.2823 40 77.1983 39.916 77.1983 39.76L77.2223 36.208C77.2343 35.176 76.8743 34.708 76.2023 34.708C75.3863 34.708 74.7503 35.404 74.8343 36.928L74.8583 39.76C74.8583 39.916 74.7743 40 74.6183 40H73.6103C73.4543 40 73.3703 39.916 73.3703 39.76L73.3943 36.208C73.4063 35.176 73.0343 34.708 72.3743 34.708C71.6423 34.708 70.9223 35.284 71.0063 36.928L71.0303 39.76C71.0303 39.916 70.9463 40 70.7903 40H69.7823C69.6263 40 69.5423 39.916 69.5423 39.76L69.6023 33.796C69.6023 33.64 69.6863 33.556 69.8423 33.556H70.7423C70.8983 33.556 70.9823 33.64 70.9823 33.796L70.9943 34.432H71.0543C71.5343 33.76 72.1463 33.364 72.8663 33.364C73.6463 33.364 74.2463 33.748 74.5583 34.54H74.6423C75.1943 33.76 75.7943 33.364 76.6103 33.364ZM83.0849 33.352C85.0649 33.352 86.0009 34.912 85.8929 36.868C85.8809 37.012 85.7849 37.096 85.6409 37.096H81.3209C81.3809 38.404 82.1369 38.944 83.0969 38.944C83.6609 38.944 84.0449 38.752 84.3569 38.26C84.4289 38.14 84.5129 38.092 84.6449 38.092H85.4969C85.6769 38.092 85.7609 38.2 85.6889 38.368C85.1969 39.556 84.1889 40.192 82.9769 40.192C81.2009 40.192 79.9169 38.86 79.9169 36.82C79.9169 34.78 81.1889 33.352 83.0849 33.352ZM82.9649 34.6C81.9689 34.6 81.5609 35.284 81.3929 35.992H84.4529C84.4409 35.26 83.9369 34.6 82.9649 34.6ZM89.3876 31.384L89.4476 36.988C89.4476 37.144 89.3636 37.228 89.2076 37.228H88.1996C88.0436 37.228 87.9596 37.144 87.9596 36.988L88.0196 31.384C88.0196 31.228 88.1036 31.144 88.2596 31.144H89.1476C89.3036 31.144 89.3876 31.228 89.3876 31.384ZM89.4716 38.716V39.76C89.4716 39.916 89.3876 40 89.2316 40H88.0556C87.8996 40 87.8156 39.916 87.8156 39.76V38.716C87.8156 38.56 87.8996 38.476 88.0556 38.476H89.2316C89.3876 38.476 89.4716 38.56 89.4716 38.716Z" fill="#F5F5F5"/>
<path d="M43.436 39.76H43.586L43.586 39.7576L43.436 39.76ZM43.328 32.932L43.478 32.9296L43.1852 32.8861L43.328 32.932ZM41.12 39.808L40.977 39.7621L40.9753 39.7685L41.12 39.808ZM39.644 39.796L39.7898 39.7595L39.7869 39.7504L39.644 39.796ZM37.388 32.728L37.5309 32.6824L37.238 32.7257L37.388 32.728ZM37.28 39.76L37.13 39.7577V39.76H37.28ZM35.84 39.76L35.9897 39.7715L35.9899 39.765L35.84 39.76ZM36.116 31.456L35.9663 31.4445L35.9661 31.451L36.116 31.456ZM38.216 31.408L38.0711 31.4475L38.0733 31.4544L38.216 31.408ZM40.388 38.092L40.2453 38.1384L40.3884 38.5786L40.5307 38.1381L40.388 38.092ZM42.548 31.408L42.6909 31.4542L42.6927 31.4475L42.548 31.408ZM44.6 31.456L44.7501 31.451L44.7496 31.4445L44.6 31.456ZM44.876 39.76L44.7259 39.765L44.7264 39.7715L44.876 39.76ZM44.648 39.85H43.676V40.15H44.648V39.85ZM43.676 39.85C43.6239 39.85 43.6075 39.8363 43.6036 39.8324C43.5997 39.8285 43.586 39.8121 43.586 39.76H43.286C43.286 39.8639 43.3143 39.9675 43.3914 40.0446C43.4685 40.1217 43.5721 40.15 43.676 40.15V39.85ZM43.586 39.7576L43.478 32.9296L43.178 32.9344L43.286 39.7624L43.586 39.7576ZM43.1852 32.8861L40.9772 39.7621L41.2628 39.8539L43.4708 32.9779L43.1852 32.8861ZM40.9753 39.7685C40.965 39.8061 40.95 39.8222 40.938 39.8306C40.9244 39.8401 40.8998 39.85 40.856 39.85V40.15C40.9442 40.15 41.0336 40.1299 41.11 40.0764C41.188 40.0218 41.239 39.9419 41.2647 39.8475L40.9753 39.7685ZM40.856 39.85H39.908V40.15H40.856V39.85ZM39.908 39.85C39.8642 39.85 39.8411 39.8401 39.8287 39.831C39.8175 39.8228 39.8009 39.8051 39.7895 39.7596L39.4985 39.8324C39.5231 39.9309 39.5725 40.0152 39.6513 40.073C39.7289 40.1299 39.8198 40.15 39.908 40.15V39.85ZM39.7869 39.7504L37.5309 32.6824L37.2451 32.7736L39.5011 39.8416L39.7869 39.7504ZM37.238 32.7257L37.13 39.7577L37.43 39.7623L37.538 32.7303L37.238 32.7257ZM37.13 39.76C37.13 39.8121 37.1163 39.8285 37.1124 39.8324C37.1085 39.8363 37.0921 39.85 37.04 39.85V40.15C37.1439 40.15 37.2475 40.1217 37.3246 40.0446C37.4017 39.9675 37.43 39.8639 37.43 39.76H37.13ZM37.04 39.85H36.068V40.15H37.04V39.85ZM36.068 39.85C36.015 39.85 36.0005 39.8359 35.999 39.8345C35.9987 39.8341 35.9857 39.8216 35.9896 39.7715L35.6904 39.7485C35.6823 39.8544 35.7053 39.9619 35.783 40.0425C35.8595 40.1221 35.965 40.15 36.068 40.15V39.85ZM35.9899 39.765L36.2659 31.461L35.9661 31.451L35.6901 39.755L35.9899 39.765ZM36.2656 31.4675C36.2698 31.413 36.2848 31.3926 36.2921 31.3855C36.2985 31.3793 36.3168 31.366 36.368 31.366V31.066C36.2632 31.066 36.1615 31.0947 36.0839 31.1695C36.0072 31.2434 35.9742 31.343 35.9664 31.4445L36.2656 31.4675ZM36.368 31.366H37.952V31.066H36.368V31.366ZM37.952 31.366C37.9958 31.366 38.0204 31.3759 38.034 31.3854C38.046 31.3938 38.061 31.4099 38.0713 31.4475L38.3607 31.3685C38.335 31.2741 38.284 31.1942 38.206 31.1396C38.1296 31.0861 38.0402 31.066 37.952 31.066V31.366ZM38.0733 31.4544L40.2453 38.1384L40.5307 38.0456L38.3587 31.3616L38.0733 31.4544ZM40.5307 38.1381L42.6907 31.4541L42.4053 31.3619L40.2453 38.0459L40.5307 38.1381ZM42.6927 31.4475C42.703 31.4099 42.718 31.3938 42.73 31.3854C42.7436 31.3759 42.7682 31.366 42.812 31.366V31.066C42.7238 31.066 42.6344 31.0861 42.558 31.1396C42.48 31.1942 42.429 31.2741 42.4033 31.3685L42.6927 31.4475ZM42.812 31.366H44.348V31.066H42.812V31.366ZM44.348 31.366C44.3992 31.366 44.4175 31.3793 44.4239 31.3855C44.4312 31.3926 44.4462 31.413 44.4504 31.4675L44.7496 31.4445C44.7418 31.343 44.7088 31.2434 44.6321 31.1695C44.5545 31.0947 44.4528 31.066 44.348 31.066V31.366ZM44.4501 31.461L44.7261 39.765L45.0259 39.755L44.7499 31.451L44.4501 31.461ZM44.7264 39.7715C44.7303 39.8216 44.7173 39.8341 44.717 39.8345C44.7155 39.8359 44.701 39.85 44.648 39.85V40.15C44.751 40.15 44.8565 40.1221 44.933 40.0425C45.0107 39.9619 45.0337 39.8544 45.0256 39.7485L44.7264 39.7715ZM49.3589 33.514C51.0316 33.514 52.2929 34.7821 52.2929 36.7H52.5929C52.5929 34.6339 51.2142 33.214 49.3589 33.214V33.514ZM52.2929 36.7C52.2929 38.6451 50.9686 40.042 49.2509 40.042V40.342C51.1573 40.342 52.5929 38.7869 52.5929 36.7H52.2929ZM49.2509 40.042C47.5813 40.042 46.3169 38.7172 46.3169 36.808H46.0169C46.0169 38.8588 47.3925 40.342 49.2509 40.342V40.042ZM46.3169 36.808C46.3169 34.8537 47.6266 33.514 49.3589 33.514V33.214C47.4432 33.214 46.0169 34.7063 46.0169 36.808H46.3169ZM49.2029 34.45C48.6844 34.45 48.2333 34.6649 47.9149 35.0575C47.5986 35.4476 47.4209 36.0028 47.4209 36.676H47.7209C47.7209 36.0532 47.8853 35.5704 48.1479 35.2465C48.4086 34.9251 48.7735 34.75 49.2029 34.75V34.45ZM47.4209 36.676C47.4209 38.1138 48.2811 39.082 49.3949 39.082V38.782C48.4928 38.782 47.7209 37.9982 47.7209 36.676H47.4209ZM49.3949 39.082C49.915 39.082 50.3657 38.8599 50.6833 38.465C50.999 38.0725 51.1769 37.5178 51.1769 36.856H50.8769C50.8769 37.4662 50.7129 37.9495 50.4495 38.277C50.1881 38.6021 49.8229 38.782 49.3949 38.782V39.082ZM51.1769 36.856C51.1769 36.1259 50.9677 35.5253 50.612 35.1046C50.2551 34.6826 49.7573 34.45 49.2029 34.45V34.75C49.6686 34.75 50.0827 34.9434 50.3829 35.2984C50.6842 35.6547 50.8769 36.1821 50.8769 36.856H51.1769ZM59.1585 33.832L59.0172 33.7815L59.0162 33.7846L59.1585 33.832ZM57.1665 39.808L57.024 39.7605L57.0218 39.7685L57.1665 39.808ZM55.2105 39.808L55.3555 39.7685L55.3528 39.7606L55.2105 39.808ZM53.2185 33.832L53.3609 33.7846L53.3598 33.7815L53.2185 33.832ZM54.5505 33.748L54.4056 33.7875L54.4082 33.7953L54.5505 33.748ZM56.1225 38.476L55.9802 38.5233L56.0143 38.626H56.1225V38.476ZM56.2665 38.476V38.626H56.375L56.409 38.523L56.2665 38.476ZM57.8265 33.748L57.9692 33.7951L57.9712 33.7875L57.8265 33.748ZM59.0162 33.7846L57.0242 39.7606L57.3088 39.8554L59.3008 33.8794L59.0162 33.7846ZM57.0218 39.7685C57.0116 39.8061 56.9966 39.8222 56.9845 39.8306C56.9709 39.8401 56.9463 39.85 56.9025 39.85V40.15C56.9907 40.15 57.0801 40.1299 57.1566 40.0764C57.2345 40.0218 57.2855 39.9419 57.3112 39.8475L57.0218 39.7685ZM56.9025 39.85H55.4745V40.15H56.9025V39.85ZM55.4745 39.85C55.4307 39.85 55.4061 39.8401 55.3926 39.8306C55.3805 39.8222 55.3655 39.8061 55.3552 39.7685L55.0658 39.8475C55.0916 39.9419 55.1426 40.0218 55.2205 40.0764C55.2969 40.1299 55.3863 40.15 55.4745 40.15V39.85ZM55.3528 39.7606L53.3608 33.7846L53.0762 33.8794L55.0682 39.8554L55.3528 39.7606ZM53.3598 33.7815C53.338 33.7206 53.3535 33.7082 53.3481 33.716C53.3421 33.7248 53.3464 33.706 53.4105 33.706V33.406C53.2946 33.406 53.173 33.4412 53.1009 33.546C53.0296 33.6498 53.039 33.7754 53.0773 33.8825L53.3598 33.7815ZM53.4105 33.706H54.2865V33.406H53.4105V33.706ZM54.2865 33.706C54.3303 33.706 54.3549 33.7159 54.3685 33.7254C54.3806 33.7338 54.3956 33.7499 54.4058 33.7875L54.6952 33.7085C54.6695 33.6141 54.6185 33.5342 54.5406 33.4796C54.4641 33.4261 54.3747 33.406 54.2865 33.406V33.706ZM54.4082 33.7953L55.9802 38.5233L56.2649 38.4287L54.6929 33.7007L54.4082 33.7953ZM56.1225 38.626H56.2665V38.326H56.1225V38.626ZM56.409 38.523L57.969 33.795L57.6841 33.701L56.1241 38.429L56.409 38.523ZM57.9712 33.7875C57.9815 33.7499 57.9965 33.7338 58.0086 33.7254C58.0221 33.7159 58.0467 33.706 58.0905 33.706V33.406C58.0023 33.406 57.9129 33.4261 57.8365 33.4796C57.7586 33.5342 57.7076 33.6141 57.6818 33.7085L57.9712 33.7875ZM58.0905 33.706H58.9665V33.406H58.0905V33.706ZM58.9665 33.706C59.0306 33.706 59.035 33.7248 59.0289 33.716C59.0236 33.7082 59.039 33.7206 59.0173 33.7815L59.2998 33.8825C59.338 33.7754 59.3475 33.6498 59.2761 33.546C59.2041 33.4412 59.0824 33.406 58.9665 33.406V33.706ZM65.9125 36.868L66.062 36.8805L66.0622 36.8763L65.9125 36.868ZM61.3405 37.096V36.946H61.1834L61.1906 37.1029L61.3405 37.096ZM64.3765 38.26L64.5032 38.3404L64.5051 38.3372L64.3765 38.26ZM65.7085 38.368L65.5706 38.3089L65.5699 38.3106L65.7085 38.368ZM61.4125 35.992L61.2665 35.9574L61.2227 36.142H61.4125V35.992ZM64.4725 35.992V36.142H64.6249L64.6224 35.9895L64.4725 35.992ZM63.1045 33.502C64.0505 33.502 64.7331 33.8722 65.1708 34.4655C65.6123 35.0641 65.8154 35.9054 65.7627 36.8597L66.0622 36.8763C66.1175 35.8746 65.9067 34.9579 65.4122 34.2875C64.9138 33.6118 64.1385 33.202 63.1045 33.202V33.502ZM65.763 36.8555C65.7596 36.8961 65.7461 36.9151 65.7358 36.9243C65.7251 36.934 65.7032 36.946 65.6605 36.946V37.246C65.7618 37.246 65.8599 37.216 65.9361 37.1477C66.0128 37.0789 66.0533 36.9839 66.062 36.8805L65.763 36.8555ZM65.6605 36.946H61.3405V37.246H65.6605V36.946ZM61.1906 37.1029C61.2219 37.7848 61.4362 38.2877 61.7881 38.6196C62.1393 38.9509 62.6089 39.094 63.1165 39.094V38.794C62.664 38.794 62.2756 38.6671 61.9939 38.4014C61.7128 38.1363 61.519 37.7152 61.4903 37.0891L61.1906 37.1029ZM63.1165 39.094C63.4155 39.094 63.6785 39.043 63.9115 38.9189C64.145 38.7945 64.3367 38.6029 64.5031 38.3403L64.2498 38.1797C64.1043 38.4091 63.948 38.5595 63.7704 38.6541C63.5924 38.749 63.3814 38.794 63.1165 38.794V39.094ZM64.5051 38.3372C64.5325 38.2915 64.5551 38.2713 64.5733 38.2607C64.5909 38.2505 64.617 38.242 64.6645 38.242V37.942C64.5799 37.942 64.498 37.9575 64.4226 38.0013C64.3478 38.0447 64.2924 38.1085 64.2478 38.1828L64.5051 38.3372ZM64.6645 38.242H65.5165V37.942H64.6645V38.242ZM65.5165 38.242C65.5816 38.242 65.5902 38.2615 65.5852 38.2545C65.5828 38.2512 65.5841 38.25 65.5842 38.2565C65.5843 38.2642 65.5824 38.2813 65.5706 38.3089L65.8463 38.4271C65.894 38.3159 65.9053 38.186 65.8288 38.0795C65.7548 37.9765 65.6314 37.942 65.5165 37.942V38.242ZM65.5699 38.3106C65.1015 39.4415 64.149 40.042 62.9965 40.042V40.342C64.268 40.342 65.3314 39.6705 65.8471 38.4254L65.5699 38.3106ZM62.9965 40.042C62.1477 40.042 61.4235 39.7246 60.9107 39.1692C60.3971 38.6131 60.0865 37.8084 60.0865 36.82H59.7865C59.7865 37.8716 60.1178 38.7529 60.6903 39.3728C61.2634 39.9934 62.0693 40.342 62.9965 40.342V40.042ZM60.0865 36.82C60.0865 35.831 60.3945 35.0019 60.9206 34.4218C61.4455 33.8429 62.1963 33.502 63.1045 33.502V33.202C62.1167 33.202 61.2834 33.5751 60.6984 34.2202C60.1144 34.8641 59.7865 35.769 59.7865 36.82H60.0865ZM62.9845 34.45C62.4478 34.45 62.0568 34.6361 61.7794 34.927C61.5065 35.2132 61.3537 35.5898 61.2665 35.9574L61.5584 36.0266C61.6392 35.6862 61.7745 35.3668 61.9965 35.134C62.2141 34.9059 62.5251 34.75 62.9845 34.75V34.45ZM61.4125 36.142H64.4725V35.842H61.4125V36.142ZM64.6224 35.9895C64.6159 35.5903 64.4749 35.2043 64.1961 34.917C63.9157 34.6282 63.5063 34.45 62.9845 34.45V34.75C63.4346 34.75 63.7632 34.9018 63.9808 35.126C64.2 35.3517 64.317 35.6617 64.3225 35.9945L64.6224 35.9895ZM78.6503 35.848L78.5003 35.8491L78.5003 35.8494L78.6503 35.848ZM78.6863 39.76H78.8363L78.8363 39.7586L78.6863 39.76ZM77.1983 39.76L77.0483 39.759V39.76H77.1983ZM77.2223 36.208L77.0723 36.2063L77.0723 36.207L77.2223 36.208ZM74.8343 36.928L74.9844 36.9267L74.9841 36.9197L74.8343 36.928ZM74.8583 39.76H75.0083L75.0083 39.7587L74.8583 39.76ZM73.3703 39.76L73.2203 39.759V39.76H73.3703ZM73.3943 36.208L73.2443 36.2063L73.2443 36.207L73.3943 36.208ZM71.0063 36.928L71.1564 36.9267L71.1561 36.9203L71.0063 36.928ZM71.0303 39.76H71.1803L71.1803 39.7587L71.0303 39.76ZM69.5423 39.76L69.3923 39.7585V39.76H69.5423ZM69.6023 33.796L69.7523 33.7975V33.796H69.6023ZM70.9823 33.796H70.8323L70.8323 33.7988L70.9823 33.796ZM70.9943 34.432L70.8443 34.4348L70.8471 34.582H70.9943V34.432ZM71.0543 34.432V34.582H71.1315L71.1763 34.5192L71.0543 34.432ZM74.5583 34.54L74.4187 34.595L74.4562 34.69H74.5583V34.54ZM74.6423 34.54V34.69H74.7199L74.7647 34.6267L74.6423 34.54ZM76.6103 33.514C77.2023 33.514 77.6645 33.721 77.983 34.1035C78.3048 34.4899 78.4944 35.0729 78.5003 35.8491L78.8003 35.8469C78.7941 35.0271 78.5938 34.3681 78.2135 33.9115C77.8301 33.451 77.2782 33.214 76.6103 33.214V33.514ZM78.5003 35.8494L78.5363 39.7614L78.8363 39.7586L78.8003 35.8466L78.5003 35.8494ZM78.5363 39.76C78.5363 39.8121 78.5226 39.8285 78.5187 39.8324C78.5148 39.8363 78.4983 39.85 78.4463 39.85V40.15C78.5502 40.15 78.6537 40.1217 78.7308 40.0446C78.8079 39.9675 78.8363 39.8639 78.8363 39.76H78.5363ZM78.4463 39.85H77.4383V40.15H78.4463V39.85ZM77.4383 39.85C77.3862 39.85 77.3697 39.8363 77.3658 39.8324C77.3619 39.8285 77.3483 39.8121 77.3483 39.76H77.0483C77.0483 39.8639 77.0766 39.9675 77.1537 40.0446C77.2308 40.1217 77.3343 40.15 77.4383 40.15V39.85ZM77.3483 39.761L77.3723 36.209L77.0723 36.207L77.0483 39.759L77.3483 39.761ZM77.3723 36.2097C77.3784 35.6808 77.2904 35.2684 77.0916 34.9849C76.8859 34.6915 76.5775 34.558 76.2023 34.558V34.858C76.4991 34.858 76.7067 34.9585 76.846 35.1571C76.9921 35.3656 77.0781 35.7032 77.0723 36.2063L77.3723 36.2097ZM76.2023 34.558C75.7469 34.558 75.3368 34.7547 75.0572 35.1615C74.7813 35.5629 74.6414 36.155 74.6845 36.9363L74.9841 36.9197C74.9431 36.177 75.0792 35.6591 75.3044 35.3315C75.5258 35.0093 75.8416 34.858 76.2023 34.858V34.558ZM74.6843 36.9293L74.7083 39.7613L75.0083 39.7587L74.9843 36.9267L74.6843 36.9293ZM74.7083 39.76C74.7083 39.8121 74.6946 39.8285 74.6907 39.8324C74.6868 39.8363 74.6703 39.85 74.6183 39.85V40.15C74.7222 40.15 74.8257 40.1217 74.9028 40.0446C74.9799 39.9675 75.0083 39.8639 75.0083 39.76H74.7083ZM74.6183 39.85H73.6103V40.15H74.6183V39.85ZM73.6103 39.85C73.5582 39.85 73.5417 39.8363 73.5378 39.8324C73.5339 39.8285 73.5203 39.8121 73.5203 39.76H73.2203C73.2203 39.8639 73.2486 39.9675 73.3257 40.0446C73.4028 40.1217 73.5063 40.15 73.6103 40.15V39.85ZM73.5203 39.761L73.5443 36.209L73.2443 36.207L73.2203 39.759L73.5203 39.761ZM73.5443 36.2097C73.5504 35.6799 73.4591 35.2677 73.2587 34.9844C73.0519 34.6919 72.7442 34.558 72.3743 34.558V34.858C72.6644 34.858 72.8727 34.9581 73.0138 35.1576C73.1614 35.3663 73.2501 35.7041 73.2443 36.2063L73.5443 36.2097ZM72.3743 34.558C71.9665 34.558 71.5566 34.7201 71.2641 35.1117C70.9748 35.4992 70.8134 36.0935 70.8565 36.9357L71.1561 36.9203C71.1151 36.1185 71.2718 35.6028 71.5045 35.2913C71.734 34.9839 72.05 34.858 72.3743 34.858V34.558ZM70.8563 36.9293L70.8803 39.7613L71.1803 39.7587L71.1563 36.9267L70.8563 36.9293ZM70.8803 39.76C70.8803 39.8121 70.8666 39.8285 70.8627 39.8324C70.8588 39.8363 70.8423 39.85 70.7903 39.85V40.15C70.8942 40.15 70.9977 40.1217 71.0748 40.0446C71.1519 39.9675 71.1803 39.8639 71.1803 39.76H70.8803ZM70.7903 39.85H69.7823V40.15H70.7903V39.85ZM69.7823 39.85C69.7302 39.85 69.7137 39.8363 69.7098 39.8324C69.7059 39.8285 69.6923 39.8121 69.6923 39.76H69.3923C69.3923 39.8639 69.4206 39.9675 69.4977 40.0446C69.5748 40.1217 69.6783 40.15 69.7823 40.15V39.85ZM69.6923 39.7615L69.7523 33.7975L69.4523 33.7945L69.3923 39.7585L69.6923 39.7615ZM69.7523 33.796C69.7523 33.7439 69.7659 33.7275 69.7698 33.7236C69.7737 33.7197 69.7902 33.706 69.8423 33.706V33.406C69.7383 33.406 69.6348 33.4343 69.5577 33.5114C69.4806 33.5885 69.4523 33.6921 69.4523 33.796H69.7523ZM69.8423 33.706H70.7423V33.406H69.8423V33.706ZM70.7423 33.706C70.7943 33.706 70.8108 33.7197 70.8147 33.7236C70.8186 33.7275 70.8323 33.7439 70.8323 33.796H71.1323C71.1323 33.6921 71.104 33.5885 71.0268 33.5114C70.9497 33.4343 70.8462 33.406 70.7423 33.406V33.706ZM70.8323 33.7988L70.8443 34.4348L71.1443 34.4292L71.1323 33.7932L70.8323 33.7988ZM70.9943 34.582H71.0543V34.282H70.9943V34.582ZM71.1763 34.5192C71.6377 33.8733 72.209 33.514 72.8663 33.514V33.214C72.0836 33.214 71.4309 33.6467 70.9322 34.3448L71.1763 34.5192ZM72.8663 33.514C73.2311 33.514 73.5456 33.6035 73.8034 33.779C74.0611 33.9544 74.2719 34.2223 74.4187 34.595L74.6978 34.485C74.5326 34.0656 74.2874 33.7456 73.9722 33.531C73.657 33.3165 73.2814 33.214 72.8663 33.214V33.514ZM74.5583 34.69H74.6423V34.39H74.5583V34.69ZM74.7647 34.6267C75.2986 33.8723 75.858 33.514 76.6103 33.514V33.214C75.7306 33.214 75.09 33.6477 74.5198 34.4533L74.7647 34.6267ZM85.8929 36.868L86.0425 36.8805L86.0427 36.8763L85.8929 36.868ZM81.3209 37.096V36.946H81.1639L81.1711 37.1029L81.3209 37.096ZM84.3569 38.26L84.4837 38.3404L84.4856 38.3372L84.3569 38.26ZM85.6889 38.368L85.5511 38.3089L85.5504 38.3106L85.6889 38.368ZM81.3929 35.992L81.247 35.9574L81.2032 36.142H81.3929V35.992ZM84.4529 35.992V36.142H84.6054L84.6029 35.9895L84.4529 35.992ZM83.0849 33.502C84.0309 33.502 84.7136 33.8722 85.1512 34.4655C85.5927 35.0641 85.7959 35.9054 85.7432 36.8597L86.0427 36.8763C86.098 35.8746 85.8871 34.9579 85.3927 34.2875C84.8943 33.6118 84.1189 33.202 83.0849 33.202V33.502ZM85.7435 36.8555C85.7401 36.8961 85.7266 36.9151 85.7163 36.9243C85.7055 36.934 85.6836 36.946 85.6409 36.946V37.246C85.7423 37.246 85.8403 37.216 85.9166 37.1477C85.9933 37.0789 86.0338 36.9839 86.0424 36.8805L85.7435 36.8555ZM85.6409 36.946H81.3209V37.246H85.6409V36.946ZM81.1711 37.1029C81.2024 37.7848 81.4166 38.2877 81.7685 38.6196C82.1198 38.9509 82.5894 39.094 83.0969 39.094V38.794C82.6445 38.794 82.2561 38.6671 81.9744 38.4014C81.6932 38.1363 81.4995 37.7152 81.4708 37.0891L81.1711 37.1029ZM83.0969 39.094C83.396 39.094 83.659 39.043 83.892 38.9189C84.1254 38.7945 84.3171 38.6029 84.4836 38.3403L84.2303 38.1797C84.0847 38.4091 83.9285 38.5595 83.7509 38.6541C83.5729 38.749 83.3619 38.794 83.0969 38.794V39.094ZM84.4856 38.3372C84.513 38.2915 84.5356 38.2713 84.5538 38.2607C84.5714 38.2505 84.5975 38.242 84.6449 38.242V37.942C84.5604 37.942 84.4785 37.9575 84.4031 38.0013C84.3283 38.0447 84.2729 38.1085 84.2283 38.1828L84.4856 38.3372ZM84.6449 38.242H85.4969V37.942H84.6449V38.242ZM85.4969 38.242C85.562 38.242 85.5706 38.2615 85.5656 38.2545C85.5632 38.2512 85.5645 38.25 85.5646 38.2565C85.5648 38.2642 85.5629 38.2813 85.5511 38.3089L85.8268 38.4271C85.8745 38.3159 85.8858 38.186 85.8092 38.0795C85.7352 37.9765 85.6118 37.942 85.4969 37.942V38.242ZM85.5504 38.3106C85.082 39.4415 84.1294 40.042 82.9769 40.042V40.342C84.2485 40.342 85.3119 39.6705 85.8275 38.4254L85.5504 38.3106ZM82.9769 40.042C82.1281 40.042 81.404 39.7246 80.8911 39.1692C80.3776 38.6131 80.0669 37.8084 80.0669 36.82H79.7669C79.7669 37.8716 80.0983 38.7529 80.6707 39.3728C81.2439 39.9934 82.0497 40.342 82.9769 40.342V40.042ZM80.0669 36.82C80.0669 35.831 80.375 35.0019 80.9011 34.4218C81.426 33.8429 82.1767 33.502 83.0849 33.502V33.202C82.0971 33.202 81.2639 33.5751 80.6788 34.2202C80.0949 34.8641 79.7669 35.769 79.7669 36.82H80.0669ZM82.9649 34.45C82.4283 34.45 82.0373 34.6361 81.7599 34.927C81.4869 35.2132 81.3342 35.5898 81.247 35.9574L81.5389 36.0266C81.6197 35.6862 81.755 35.3668 81.977 35.134C82.1946 34.9059 82.5056 34.75 82.9649 34.75V34.45ZM81.3929 36.142H84.4529V35.842H81.3929V36.142ZM84.6029 35.9895C84.5964 35.5903 84.4554 35.2043 84.1766 34.917C83.8962 34.6282 83.4868 34.45 82.9649 34.45V34.75C83.4151 34.75 83.7437 34.9018 83.9613 35.126C84.1805 35.3517 84.2975 35.6617 84.303 35.9945L84.6029 35.9895ZM89.3876 31.384H89.2376L89.2376 31.3856L89.3876 31.384ZM89.4476 36.988H89.5976L89.5976 36.9864L89.4476 36.988ZM87.9596 36.988L87.8096 36.9864V36.988H87.9596ZM88.0196 31.384L88.1696 31.3856V31.384H88.0196ZM89.2376 31.3856L89.2976 36.9896L89.5976 36.9864L89.5376 31.3824L89.2376 31.3856ZM89.2976 36.988C89.2976 37.0401 89.2839 37.0565 89.28 37.0604C89.2761 37.0643 89.2596 37.078 89.2076 37.078V37.378C89.3115 37.378 89.415 37.3497 89.4921 37.2726C89.5692 37.1955 89.5976 37.0919 89.5976 36.988H89.2976ZM89.2076 37.078H88.1996V37.378H89.2076V37.078ZM88.1996 37.078C88.1475 37.078 88.131 37.0643 88.1271 37.0604C88.1232 37.0565 88.1096 37.0401 88.1096 36.988H87.8096C87.8096 37.0919 87.8379 37.1955 87.915 37.2726C87.9921 37.3497 88.0956 37.378 88.1996 37.378V37.078ZM88.1096 36.9896L88.1696 31.3856L87.8696 31.3824L87.8096 36.9864L88.1096 36.9896ZM88.1696 31.384C88.1696 31.3319 88.1832 31.3155 88.1871 31.3116C88.191 31.3077 88.2075 31.294 88.2596 31.294V30.994C88.1556 30.994 88.0521 31.0223 87.975 31.0994C87.8979 31.1765 87.8696 31.2801 87.8696 31.384H88.1696ZM88.2596 31.294H89.1476V30.994H88.2596V31.294ZM89.1476 31.294C89.1996 31.294 89.2161 31.3077 89.22 31.3116C89.2239 31.3155 89.2376 31.3319 89.2376 31.384H89.5376C89.5376 31.2801 89.5092 31.1765 89.4321 31.0994C89.355 31.0223 89.2515 30.994 89.1476 30.994V31.294ZM89.3216 38.716V39.76H89.6216V38.716H89.3216ZM89.3216 39.76C89.3216 39.8121 89.3079 39.8285 89.304 39.8324C89.3001 39.8363 89.2836 39.85 89.2316 39.85V40.15C89.3355 40.15 89.439 40.1217 89.5161 40.0446C89.5932 39.9675 89.6216 39.8639 89.6216 39.76H89.3216ZM89.2316 39.85H88.0556V40.15H89.2316V39.85ZM88.0556 39.85C88.0035 39.85 87.987 39.8363 87.9831 39.8324C87.9792 39.8285 87.9656 39.8121 87.9656 39.76H87.6656C87.6656 39.8639 87.6939 39.9675 87.771 40.0446C87.8481 40.1217 87.9516 40.15 88.0556 40.15V39.85ZM87.9656 39.76V38.716H87.6656V39.76H87.9656ZM87.9656 38.716C87.9656 38.6639 87.9792 38.6475 87.9831 38.6436C87.987 38.6397 88.0035 38.626 88.0556 38.626V38.326C87.9516 38.326 87.8481 38.3543 87.771 38.4314C87.6939 38.5085 87.6656 38.6121 87.6656 38.716H87.9656ZM88.0556 38.626H89.2316V38.326H88.0556V38.626ZM89.2316 38.626C89.2836 38.626 89.3001 38.6397 89.304 38.6436C89.3079 38.6475 89.3216 38.6639 89.3216 38.716H89.6216C89.6216 38.6121 89.5932 38.5085 89.5161 38.4314C89.439 38.3543 89.3355 38.326 89.2316 38.326V38.626Z" fill="#F5F5F5"/>
<defs>
<filter id="filter0_d_104_17" x="-0.00012207" y="0" width="31.0002" height="26" filterUnits="userSpaceOnUse" color-interpolation-filters="sRGB">
<feFlood flood-opacity="0" result="BackgroundImageFix"/>
<feColorMatrix in="SourceAlpha" type="matrix" values="0 0 0 0 0 0 0 0 0 0 0 0 0 0 0 0 0 0 127 0" result="hardAlpha"/>
<feOffset dy="2"/>
<feGaussianBlur stdDeviation="1"/>
<feComposite in2="hardAlpha" operator="out"/>
<feColorMatrix type="matrix" values="0 0 0 0 0 0 0 0 0 0 0 0 0 0 0 0 0 0 0.25 0"/>
<feBlend mode="normal" in2="BackgroundImageFix" result="effect1_dropShadow_104_17"/>
<feBlend mode="normal" in="SourceGraphic" in2="effect1_dropShadow_104_17" result="shape"/>
</filter>
<linearGradient id="paint0_linear_104_17" x1="16" y1="-1" x2="15.5" y2="20" gradientUnits="userSpaceOnUse">
<stop stop-color="#062F3F"/>
<stop offset="0.395" stop-color="#00AFCD"/>
<stop offset="1" stop-color="#F5F5F5"/>
</linearGradient>
<linearGradient id="paint1_linear_104_17" x1="3.99999" y1="2" x2="14.1858" y2="24.1852" gradientUnits="userSpaceOnUse">
<stop stop-color="#F5F5F5"/>
<stop offset="0.695" stop-color="#00AFCD"/>
<stop offset="1" stop-color="#062F3F"/>
</linearGradient>
<linearGradient id="paint2_linear_104_17" x1="84.5" y1="15.3913" x2="84.4516" y2="71.826" gradientUnits="userSpaceOnUse">
<stop stop-color="#062F3F"/>
<stop offset="0.276644" stop-color="#00AFCD"/>
<stop offset="1" stop-color="white"/>
</linearGradient>
<linearGradient id="paint3_linear_104_17" x1="115.5" y1="35.4783" x2="-5" y2="35.4783" gradientUnits="userSpaceOnUse">
<stop stop-color="#F5F5F5"/>
<stop offset="0.505" stop-color="#00AFCD"/>
<stop offset="1" stop-color="#062F3F"/>
</linearGradient>
</defs>
</svg>
