<svg width="106" height="47" viewBox="0 0 106 47" fill="none" xmlns="http://www.w3.org/2000/svg">
<path d="M25.1897 12.3792C25.6375 12.4657 25.97 12.8443 25.9981 13.2995C26.0262 13.7547 25.7427 14.1712 25.3089 14.3121C19.6621 16.1462 14.2869 15.8752 11.6883 15.4067C11.6256 15.5219 11.5598 15.6579 11.4923 15.816C11.317 16.2263 11.1576 16.7197 11.0178 17.2474C10.7381 18.3036 10.5576 19.4187 10.4788 20.1128C10.433 20.5167 10.1471 20.8527 9.7558 20.9627C9.36446 21.0727 8.94547 20.9348 8.69588 20.614C6.84021 18.2283 5.1835 14.6405 3.87359 11.2017C2.5554 7.7411 1.55265 4.33432 1.02984 2.24247C0.924696 1.82176 1.10268 1.38123 1.47057 1.15165C1.83845 0.922061 2.31239 0.955747 2.6441 1.23506C11.0132 8.28208 21.2025 11.6087 25.1897 12.3792Z" fill="url(#paint0_linear_275_2)" stroke="url(#paint1_linear_275_2)" stroke-width="2" stroke-linejoin="round"/>
<rect x="17" y="24" width="88" height="22" rx="8" fill="url(#paint2_linear_275_2)"/>
<rect x="17" y="24" width="88" height="22" rx="8" stroke="url(#paint3_linear_275_2)" stroke-width="2"/>
<path d="M44.616 31.456V32.26C44.616 32.416 44.532 32.5 44.376 32.5H41.868L41.916 39.76C41.916 39.916 41.832 40 41.676 40H40.644C40.488 40 40.404 39.916 40.404 39.76L40.452 32.5H37.944C37.788 32.5 37.704 32.416 37.704 32.26V31.456C37.704 31.3 37.788 31.216 37.944 31.216H44.376C44.532 31.216 44.616 31.3 44.616 31.456ZM48.3405 33.364C49.8645 33.364 50.8605 34.204 50.8605 35.656L50.9085 39.76C50.9085 39.916 50.8245 40 50.6685 40H49.7205C49.5645 40 49.4805 39.916 49.4805 39.76L49.4925 39.028H49.3965C48.9645 39.688 48.1845 40.132 47.2245 40.132C46.0725 40.132 45.2805 39.472 45.2805 38.308C45.2805 36.952 46.3365 36.34 48.7005 36.064C49.2285 36.004 49.4925 35.8 49.4925 35.428C49.4925 34.924 49.0005 34.564 48.2445 34.564C47.5965 34.564 47.1885 34.816 46.9965 35.284C46.9365 35.416 46.8525 35.476 46.7205 35.476H45.8685C45.7005 35.476 45.6045 35.392 45.6405 35.26C45.9405 34.132 46.8645 33.364 48.3405 33.364ZM49.4805 36.976L49.4205 36.94C49.2165 37.012 48.8925 37.084 48.5805 37.132C47.3805 37.324 46.6605 37.588 46.6605 38.224C46.6605 38.644 46.9605 38.908 47.5605 38.908C48.7485 38.908 49.5285 37.996 49.4925 37.3L49.4805 36.976ZM56.0226 33.364C57.5946 33.364 58.6746 34.78 58.6746 36.712C58.6746 38.776 57.4386 40.192 55.7466 40.192C55.0146 40.192 54.5346 40.012 54.0666 39.604H54.0066L54.0186 42.4C54.0186 42.556 53.9346 42.64 53.7786 42.64H52.7826C52.6266 42.64 52.5426 42.556 52.5426 42.4L52.5906 33.796C52.5906 33.64 52.6746 33.556 52.8306 33.556H53.7306C53.8866 33.556 53.9706 33.64 53.9706 33.796L53.9826 34.432L54.0786 34.42C54.5226 33.7 55.2666 33.364 56.0226 33.364ZM55.6386 38.944C56.7066 38.944 57.2586 38.152 57.2586 36.82C57.2586 35.392 56.5746 34.6 55.6266 34.6C54.6666 34.6 53.8986 35.416 53.8986 36.82C53.8626 38.272 54.6546 38.944 55.6386 38.944ZM69.372 33.364C70.632 33.364 71.4 34.252 71.412 35.848L71.448 39.76C71.448 39.916 71.364 40 71.208 40H70.2C70.044 40 69.96 39.916 69.96 39.76L69.984 36.208C69.996 35.176 69.636 34.708 68.964 34.708C68.148 34.708 67.512 35.404 67.596 36.928L67.62 39.76C67.62 39.916 67.536 40 67.38 40H66.372C66.216 40 66.132 39.916 66.132 39.76L66.156 36.208C66.168 35.176 65.796 34.708 65.136 34.708C64.404 34.708 63.684 35.284 63.768 36.928L63.792 39.76C63.792 39.916 63.708 40 63.552 40H62.544C62.388 40 62.304 39.916 62.304 39.76L62.364 33.796C62.364 33.64 62.448 33.556 62.604 33.556H63.504C63.66 33.556 63.744 33.64 63.744 33.796L63.756 34.432H63.816C64.296 33.76 64.908 33.364 65.628 33.364C66.408 33.364 67.008 33.748 67.32 34.54H67.404C67.956 33.76 68.556 33.364 69.372 33.364ZM75.8467 33.352C77.8267 33.352 78.7627 34.912 78.6547 36.868C78.6427 37.012 78.5467 37.096 78.4027 37.096H74.0827C74.1427 38.404 74.8987 38.944 75.8587 38.944C76.4227 38.944 76.8067 38.752 77.1187 38.26C77.1907 38.14 77.2747 38.092 77.4067 38.092H78.2587C78.4387 38.092 78.5227 38.2 78.4507 38.368C77.9587 39.556 76.9507 40.192 75.7387 40.192C73.9627 40.192 72.6787 38.86 72.6787 36.82C72.6787 34.78 73.9507 33.352 75.8467 33.352ZM75.7267 34.6C74.7307 34.6 74.3227 35.284 74.1547 35.992H77.2147C77.2027 35.26 76.6987 34.6 75.7267 34.6ZM82.1493 31.384L82.2093 36.988C82.2093 37.144 82.1253 37.228 81.9693 37.228H80.9613C80.8053 37.228 80.7213 37.144 80.7213 36.988L80.7813 31.384C80.7813 31.228 80.8653 31.144 81.0213 31.144H81.9093C82.0653 31.144 82.1493 31.228 82.1493 31.384ZM82.2333 38.716V39.76C82.2333 39.916 82.1493 40 81.9933 40H80.8173C80.6613 40 80.5773 39.916 80.5773 39.76V38.716C80.5773 38.56 80.6613 38.476 80.8173 38.476H81.9933C82.1493 38.476 82.2333 38.56 82.2333 38.716Z" fill="#F5F5F5"/>
<path d="M41.868 32.5V32.35H41.717L41.718 32.501L41.868 32.5ZM41.916 39.76H42.066L42.066 39.759L41.916 39.76ZM40.404 39.76L40.254 39.759V39.76H40.404ZM40.452 32.5L40.602 32.501L40.603 32.35H40.452V32.5ZM44.466 31.456V32.26H44.766V31.456H44.466ZM44.466 32.26C44.466 32.3121 44.4523 32.3285 44.4484 32.3324C44.4445 32.3363 44.4281 32.35 44.376 32.35V32.65C44.4799 32.65 44.5835 32.6217 44.6606 32.5446C44.7377 32.4675 44.766 32.3639 44.766 32.26H44.466ZM44.376 32.35H41.868V32.65H44.376V32.35ZM41.718 32.501L41.766 39.761L42.066 39.759L42.018 32.499L41.718 32.501ZM41.766 39.76C41.766 39.8121 41.7523 39.8285 41.7484 39.8324C41.7445 39.8363 41.7281 39.85 41.676 39.85V40.15C41.7799 40.15 41.8835 40.1217 41.9606 40.0446C42.0377 39.9675 42.066 39.8639 42.066 39.76H41.766ZM41.676 39.85H40.644V40.15H41.676V39.85ZM40.644 39.85C40.5919 39.85 40.5755 39.8363 40.5716 39.8324C40.5677 39.8285 40.554 39.8121 40.554 39.76H40.254C40.254 39.8639 40.2823 39.9675 40.3594 40.0446C40.4365 40.1217 40.5401 40.15 40.644 40.15V39.85ZM40.554 39.761L40.602 32.501L40.302 32.499L40.254 39.759L40.554 39.761ZM40.452 32.35H37.944V32.65H40.452V32.35ZM37.944 32.35C37.8919 32.35 37.8755 32.3363 37.8716 32.3324C37.8677 32.3285 37.854 32.3121 37.854 32.26H37.554C37.554 32.3639 37.5823 32.4675 37.6594 32.5446C37.7365 32.6217 37.8401 32.65 37.944 32.65V32.35ZM37.854 32.26V31.456H37.554V32.26H37.854ZM37.854 31.456C37.854 31.4039 37.8677 31.3875 37.8716 31.3836C37.8755 31.3797 37.8919 31.366 37.944 31.366V31.066C37.8401 31.066 37.7365 31.0943 37.6594 31.1714C37.5823 31.2485 37.554 31.3521 37.554 31.456H37.854ZM37.944 31.366H44.376V31.066H37.944V31.366ZM44.376 31.366C44.4281 31.366 44.4445 31.3797 44.4484 31.3836C44.4523 31.3875 44.466 31.4039 44.466 31.456H44.766C44.766 31.3521 44.7377 31.2485 44.6606 31.1714C44.5835 31.0943 44.4799 31.066 44.376 31.066V31.366ZM50.8605 35.656H50.7105L50.7105 35.6578L50.8605 35.656ZM50.9085 39.76H51.0585L51.0585 39.7582L50.9085 39.76ZM49.4805 39.76L49.3305 39.7575V39.76H49.4805ZM49.4925 39.028L49.6425 39.0305L49.645 38.878H49.4925V39.028ZM49.3965 39.028V38.878H49.3154L49.271 38.9459L49.3965 39.028ZM48.7005 36.064L48.6836 35.915L48.6831 35.915L48.7005 36.064ZM46.9965 35.284L47.1332 35.3461L47.1353 35.3409L46.9965 35.284ZM45.6405 35.26L45.7852 35.2995L45.7855 35.2986L45.6405 35.26ZM49.4805 36.976L49.6304 36.9704L49.6274 36.8892L49.5577 36.8474L49.4805 36.976ZM49.4205 36.94L49.4977 36.8114L49.4371 36.7751L49.3706 36.7986L49.4205 36.94ZM48.5805 37.132L48.5577 36.9837L48.5568 36.9839L48.5805 37.132ZM49.4925 37.3L49.3426 37.3056L49.3427 37.3077L49.4925 37.3ZM48.3405 33.514C49.076 33.514 49.667 33.7166 50.0722 34.0775C50.4752 34.4365 50.7105 34.9663 50.7105 35.656H51.0105C51.0105 34.8937 50.7478 34.2775 50.2718 33.8535C49.798 33.4314 49.129 33.214 48.3405 33.214V33.514ZM50.7105 35.6578L50.7585 39.7618L51.0585 39.7582L51.0105 35.6542L50.7105 35.6578ZM50.7585 39.76C50.7585 39.8121 50.7448 39.8285 50.7409 39.8324C50.737 39.8363 50.7206 39.85 50.6685 39.85V40.15C50.7724 40.15 50.876 40.1217 50.9531 40.0446C51.0302 39.9675 51.0585 39.8639 51.0585 39.76H50.7585ZM50.6685 39.85H49.7205V40.15H50.6685V39.85ZM49.7205 39.85C49.6684 39.85 49.652 39.8363 49.6481 39.8324C49.6442 39.8285 49.6305 39.8121 49.6305 39.76H49.3305C49.3305 39.8639 49.3588 39.9675 49.4359 40.0446C49.513 40.1217 49.6166 40.15 49.7205 40.15V39.85ZM49.6305 39.7625L49.6425 39.0305L49.3425 39.0255L49.3305 39.7575L49.6305 39.7625ZM49.4925 38.878H49.3965V39.178H49.4925V38.878ZM49.271 38.9459C48.8683 39.5611 48.1368 39.982 47.2245 39.982V40.282C48.2322 40.282 49.0607 39.8149 49.522 39.1101L49.271 38.9459ZM47.2245 39.982C46.6763 39.982 46.2294 39.8252 45.9213 39.5454C45.6151 39.2674 45.4305 38.8542 45.4305 38.308H45.1305C45.1305 38.9258 45.3419 39.4246 45.7197 39.7676C46.0956 40.1088 46.6207 40.282 47.2245 40.282V39.982ZM45.4305 38.308C45.4305 37.9888 45.4925 37.7218 45.6145 37.4953C45.7364 37.269 45.9228 37.0745 46.1847 36.9075C46.714 36.5697 47.5403 36.3505 48.7179 36.213L48.6831 35.915C47.4967 36.0535 46.613 36.2783 46.0233 36.6545C45.7257 36.8445 45.5004 37.0745 45.3504 37.353C45.2005 37.6312 45.1305 37.9492 45.1305 38.308H45.4305ZM48.7174 36.213C48.9938 36.1816 49.2242 36.1106 49.3879 35.9804C49.5593 35.844 49.6425 35.6548 49.6425 35.428H49.3425C49.3425 35.5732 49.2937 35.672 49.2011 35.7456C49.1008 35.8254 48.9352 35.8864 48.6836 35.915L48.7174 36.213ZM49.6425 35.428C49.6425 35.1213 49.4907 34.8618 49.2383 34.6843C48.9891 34.509 48.6445 34.414 48.2445 34.414V34.714C48.6005 34.714 48.8799 34.799 49.0657 34.9297C49.2483 35.0582 49.3425 35.2307 49.3425 35.428H49.6425ZM48.2445 34.414C47.9017 34.414 47.6096 34.4806 47.3736 34.6191C47.1357 34.7588 46.965 34.9656 46.8577 35.2271L47.1353 35.3409C47.22 35.1344 47.3493 34.9812 47.5254 34.8779C47.7034 34.7734 47.9393 34.714 48.2445 34.714V34.414ZM46.8599 35.2219C46.837 35.2724 46.8157 35.2953 46.7995 35.3066C46.7848 35.3169 46.7627 35.326 46.7205 35.326V35.626C46.8103 35.626 46.8962 35.6051 46.9715 35.5524C47.0453 35.5007 47.096 35.4276 47.1331 35.3461L46.8599 35.2219ZM46.7205 35.326H45.8685V35.626H46.7205V35.326ZM45.8685 35.326C45.8052 35.326 45.7823 35.3096 45.7799 35.3074C45.7796 35.3072 45.7803 35.3077 45.7811 35.3092C45.782 35.3107 45.7826 35.3122 45.7829 35.3133C45.7835 35.3159 45.7817 35.3122 45.7852 35.2995L45.4958 35.2205C45.4653 35.3322 45.4887 35.4466 45.5761 35.5276C45.6547 35.6004 45.7638 35.626 45.8685 35.626V35.326ZM45.7855 35.2986C45.9276 34.7642 46.2156 34.3206 46.6383 34.0099C47.0614 33.6989 47.6289 33.514 48.3405 33.514V33.214C47.5761 33.214 46.9436 33.4131 46.4607 33.7681C45.9774 34.1234 45.6534 34.6278 45.4955 35.2214L45.7855 35.2986ZM49.5577 36.8474L49.4977 36.8114L49.3433 37.0686L49.4033 37.1046L49.5577 36.8474ZM49.3706 36.7986C49.1792 36.8661 48.8656 36.9364 48.5577 36.9837L48.6033 37.2803C48.9194 37.2316 49.2538 37.1579 49.4704 37.0814L49.3706 36.7986ZM48.5568 36.9839C47.9557 37.0801 47.4549 37.1968 47.102 37.3781C46.9238 37.4696 46.7752 37.5815 46.6709 37.7231C46.565 37.8671 46.5105 38.0343 46.5105 38.224H46.8105C46.8105 38.0957 46.846 37.9914 46.9126 37.901C46.9808 37.8082 47.0872 37.7229 47.239 37.6449C47.5461 37.4872 48.0053 37.3759 48.6042 37.2801L48.5568 36.9839ZM46.5105 38.224C46.5105 38.4729 46.6014 38.6902 46.7925 38.8412C46.9785 38.9881 47.2413 39.058 47.5605 39.058V38.758C47.2797 38.758 47.0925 38.6959 46.9785 38.6058C46.8696 38.5198 46.8105 38.3951 46.8105 38.224H46.5105ZM47.5605 39.058C48.1941 39.058 48.7221 38.8145 49.0876 38.4749C49.4495 38.1386 49.6632 37.6962 49.6423 37.2923L49.3427 37.3077C49.3578 37.5998 49.1995 37.9614 48.8834 38.2551C48.5709 38.5455 48.1149 38.758 47.5605 38.758V39.058ZM49.6424 37.2944L49.6304 36.9704L49.3306 36.9816L49.3426 37.3056L49.6424 37.2944ZM54.0666 39.604L54.1651 39.4909L54.1228 39.454H54.0666V39.604ZM54.0066 39.604V39.454H53.8559L53.8566 39.6046L54.0066 39.604ZM54.0186 42.4H54.1686L54.1686 42.3994L54.0186 42.4ZM52.5426 42.4L52.3926 42.3992V42.4H52.5426ZM52.5906 33.796L52.7406 33.7968V33.796H52.5906ZM53.9706 33.796H53.8205L53.8206 33.7988L53.9706 33.796ZM53.9826 34.432L53.8326 34.4348L53.8357 34.6015L54.0012 34.5808L53.9826 34.432ZM54.0786 34.42L54.0972 34.5688L54.1685 34.5599L54.2062 34.4987L54.0786 34.42ZM53.8986 36.82L54.0486 36.8237V36.82H53.8986ZM56.0226 33.514C57.4797 33.514 58.5246 34.8267 58.5246 36.712H58.8246C58.8246 34.7333 57.7094 33.214 56.0226 33.214V33.514ZM58.5246 36.712C58.5246 38.7169 57.3339 40.042 55.7466 40.042V40.342C57.5433 40.342 58.8246 38.8351 58.8246 36.712H58.5246ZM55.7466 40.042C55.0471 40.042 54.6032 39.8728 54.1651 39.4909L53.968 39.7171C54.466 40.1512 54.982 40.342 55.7466 40.342V40.042ZM54.0666 39.454H54.0066V39.754H54.0666V39.454ZM53.8566 39.6046L53.8686 42.4006L54.1686 42.3994L54.1566 39.6034L53.8566 39.6046ZM53.8686 42.4C53.8686 42.4521 53.8549 42.4685 53.851 42.4724C53.8471 42.4763 53.8306 42.49 53.7786 42.49V42.79C53.8825 42.79 53.986 42.7617 54.0631 42.6846C54.1402 42.6075 54.1686 42.5039 54.1686 42.4H53.8686ZM53.7786 42.49H52.7826V42.79H53.7786V42.49ZM52.7826 42.49C52.7305 42.49 52.714 42.4763 52.7101 42.4724C52.7062 42.4685 52.6926 42.4521 52.6926 42.4H52.3926C52.3926 42.5039 52.4209 42.6075 52.498 42.6846C52.5751 42.7617 52.6786 42.79 52.7826 42.79V42.49ZM52.6926 42.4008L52.7406 33.7968L52.4406 33.7952L52.3926 42.3992L52.6926 42.4008ZM52.7406 33.796C52.7406 33.7439 52.7542 33.7275 52.7581 33.7236C52.762 33.7197 52.7785 33.706 52.8306 33.706V33.406C52.7266 33.406 52.6231 33.4343 52.546 33.5114C52.4689 33.5885 52.4406 33.6921 52.4406 33.796H52.7406ZM52.8306 33.706H53.7306V33.406H52.8306V33.706ZM53.7306 33.706C53.7826 33.706 53.7991 33.7197 53.803 33.7236C53.8069 33.7275 53.8206 33.7439 53.8206 33.796H54.1206C54.1206 33.6921 54.0922 33.5885 54.0151 33.5114C53.938 33.4343 53.8345 33.406 53.7306 33.406V33.706ZM53.8206 33.7988L53.8326 34.4348L54.1325 34.4292L54.1205 33.7932L53.8206 33.7988ZM54.0012 34.5808L54.0972 34.5688L54.06 34.2712L53.964 34.2832L54.0012 34.5808ZM54.2062 34.4987C54.6193 33.829 55.3112 33.514 56.0226 33.514V33.214C55.2219 33.214 54.4259 33.571 53.9509 34.3413L54.2062 34.4987ZM55.6386 39.094C56.2141 39.094 56.6663 38.878 56.9694 38.4711C57.2674 38.0709 57.4086 37.5035 57.4086 36.82H57.1086C57.1086 37.4685 56.9737 37.9631 56.7288 38.2919C56.4889 38.614 56.131 38.794 55.6386 38.794V39.094ZM57.4086 36.82C57.4086 36.0838 57.2324 35.4933 56.917 35.0831C56.5987 34.6692 56.1465 34.45 55.6266 34.45V34.75C56.0546 34.75 56.4184 34.9268 56.6792 35.2659C56.9427 35.6087 57.1086 36.1282 57.1086 36.82H57.4086ZM55.6266 34.45C55.1011 34.45 54.6268 34.6745 54.2867 35.0882C53.948 35.5003 53.7486 36.0914 53.7486 36.82H54.0486C54.0486 36.1446 54.2332 35.6257 54.5184 35.2788C54.8023 34.9335 55.192 34.75 55.6266 34.75V34.45ZM53.7486 36.8163C53.7299 37.5696 53.9259 38.1418 54.2749 38.5272C54.6245 38.9133 55.1118 39.094 55.6386 39.094V38.794C55.1813 38.794 54.7806 38.6387 54.4972 38.3258C54.2132 38.0122 54.0312 37.5224 54.0485 36.8237L53.7486 36.8163ZM71.412 35.848L71.262 35.8491L71.262 35.8494L71.412 35.848ZM71.448 39.76H71.598L71.598 39.7586L71.448 39.76ZM69.96 39.76L69.81 39.759V39.76H69.96ZM69.984 36.208L69.834 36.2063L69.834 36.207L69.984 36.208ZM67.596 36.928L67.7462 36.9267L67.7458 36.9197L67.596 36.928ZM67.62 39.76L67.77 39.76L67.77 39.7587L67.62 39.76ZM66.132 39.76L65.982 39.759V39.76H66.132ZM66.156 36.208L66.006 36.2063L66.006 36.207L66.156 36.208ZM63.768 36.928L63.9181 36.9267L63.9178 36.9203L63.768 36.928ZM63.792 39.76H63.942L63.942 39.7587L63.792 39.76ZM62.304 39.76L62.154 39.7585V39.76H62.304ZM62.364 33.796L62.514 33.7975V33.796H62.364ZM63.744 33.796H63.594L63.594 33.7988L63.744 33.796ZM63.756 34.432L63.606 34.4348L63.6088 34.582H63.756V34.432ZM63.816 34.432V34.582H63.8932L63.9381 34.5192L63.816 34.432ZM67.32 34.54L67.1804 34.595L67.2179 34.69H67.32V34.54ZM67.404 34.54V34.69H67.4816L67.5264 34.6267L67.404 34.54ZM69.372 33.514C69.964 33.514 70.4262 33.721 70.7447 34.1035C71.0665 34.4899 71.2562 35.0729 71.262 35.8491L71.562 35.8469C71.5558 35.0271 71.3555 34.3681 70.9753 33.9115C70.5918 33.451 70.04 33.214 69.372 33.214V33.514ZM71.262 35.8494L71.298 39.7614L71.598 39.7586L71.562 35.8466L71.262 35.8494ZM71.298 39.76C71.298 39.8121 71.2843 39.8285 71.2804 39.8324C71.2765 39.8363 71.2601 39.85 71.208 39.85V40.15C71.3119 40.15 71.4155 40.1217 71.4926 40.0446C71.5697 39.9675 71.598 39.8639 71.598 39.76H71.298ZM71.208 39.85H70.2V40.15H71.208V39.85ZM70.2 39.85C70.1479 39.85 70.1315 39.8363 70.1276 39.8324C70.1237 39.8285 70.11 39.8121 70.11 39.76H69.81C69.81 39.8639 69.8383 39.9675 69.9154 40.0446C69.9925 40.1217 70.0961 40.15 70.2 40.15V39.85ZM70.11 39.761L70.134 36.209L69.834 36.207L69.81 39.759L70.11 39.761ZM70.134 36.2097C70.1401 35.6808 70.0522 35.2684 69.8533 34.9849C69.6476 34.6915 69.3392 34.558 68.964 34.558V34.858C69.2608 34.858 69.4684 34.9585 69.6077 35.1571C69.7538 35.3656 69.8399 35.7032 69.834 36.2063L70.134 36.2097ZM68.964 34.558C68.5087 34.558 68.0985 34.7547 67.8189 35.1615C67.543 35.5629 67.4032 36.155 67.4462 36.9363L67.7458 36.9197C67.7048 36.177 67.841 35.6591 68.0661 35.3315C68.2875 35.0093 68.6033 34.858 68.964 34.858V34.558ZM67.446 36.9293L67.47 39.7613L67.77 39.7587L67.746 36.9267L67.446 36.9293ZM67.47 39.76C67.47 39.8121 67.4563 39.8285 67.4524 39.8324C67.4485 39.8363 67.4321 39.85 67.38 39.85V40.15C67.4839 40.15 67.5875 40.1217 67.6646 40.0446C67.7417 39.9675 67.77 39.8639 67.77 39.76H67.47ZM67.38 39.85H66.372V40.15H67.38V39.85ZM66.372 39.85C66.3199 39.85 66.3035 39.8363 66.2996 39.8324C66.2957 39.8285 66.282 39.8121 66.282 39.76H65.982C65.982 39.8639 66.0103 39.9675 66.0874 40.0446C66.1645 40.1217 66.2681 40.15 66.372 40.15V39.85ZM66.282 39.761L66.306 36.209L66.006 36.207L65.982 39.759L66.282 39.761ZM66.306 36.2097C66.3122 35.6799 66.2208 35.2677 66.0205 34.9844C65.8136 34.6919 65.5059 34.558 65.136 34.558V34.858C65.4261 34.858 65.6344 34.9581 65.7755 35.1576C65.9232 35.3663 66.0118 35.7041 66.006 36.2063L66.306 36.2097ZM65.136 34.558C64.7283 34.558 64.3183 34.7201 64.0258 35.1117C63.7365 35.4992 63.5752 36.0935 63.6182 36.9357L63.9178 36.9203C63.8768 36.1185 64.0335 35.6028 64.2662 35.2913C64.4957 34.9839 64.8117 34.858 65.136 34.858V34.558ZM63.618 36.9293L63.642 39.7613L63.942 39.7587L63.918 36.9267L63.618 36.9293ZM63.642 39.76C63.642 39.8121 63.6283 39.8285 63.6244 39.8324C63.6205 39.8363 63.6041 39.85 63.552 39.85V40.15C63.6559 40.15 63.7595 40.1217 63.8366 40.0446C63.9137 39.9675 63.942 39.8639 63.942 39.76H63.642ZM63.552 39.85H62.544V40.15H63.552V39.85ZM62.544 39.85C62.4919 39.85 62.4755 39.8363 62.4716 39.8324C62.4677 39.8285 62.454 39.8121 62.454 39.76H62.154C62.154 39.8639 62.1823 39.9675 62.2594 40.0446C62.3365 40.1217 62.4401 40.15 62.544 40.15V39.85ZM62.454 39.7615L62.514 33.7975L62.214 33.7945L62.154 39.7585L62.454 39.7615ZM62.514 33.796C62.514 33.7439 62.5277 33.7275 62.5316 33.7236C62.5355 33.7197 62.5519 33.706 62.604 33.706V33.406C62.5001 33.406 62.3965 33.4343 62.3194 33.5114C62.2423 33.5885 62.214 33.6921 62.214 33.796H62.514ZM62.604 33.706H63.504V33.406H62.604V33.706ZM63.504 33.706C63.5561 33.706 63.5725 33.7197 63.5764 33.7236C63.5803 33.7275 63.594 33.7439 63.594 33.796H63.894C63.894 33.6921 63.8657 33.5885 63.7886 33.5114C63.7115 33.4343 63.6079 33.406 63.504 33.406V33.706ZM63.594 33.7988L63.606 34.4348L63.906 34.4292L63.894 33.7932L63.594 33.7988ZM63.756 34.582H63.816V34.282H63.756V34.582ZM63.9381 34.5192C64.3994 33.8733 64.9707 33.514 65.628 33.514V33.214C64.8453 33.214 64.1926 33.6467 63.6939 34.3448L63.9381 34.5192ZM65.628 33.514C65.9928 33.514 66.3073 33.6035 66.5651 33.779C66.8229 33.9544 67.0336 34.2223 67.1804 34.595L67.4596 34.485C67.2944 34.0656 67.0491 33.7456 66.7339 33.531C66.4187 33.3165 66.0432 33.214 65.628 33.214V33.514ZM67.32 34.69H67.404V34.39H67.32V34.69ZM67.5264 34.6267C68.0603 33.8723 68.6197 33.514 69.372 33.514V33.214C68.4923 33.214 67.8517 33.6477 67.2816 34.4533L67.5264 34.6267ZM78.6547 36.868L78.8042 36.8805L78.8044 36.8763L78.6547 36.868ZM74.0827 37.096V36.946H73.9256L73.9328 37.1029L74.0827 37.096ZM77.1187 38.26L77.2454 38.3404L77.2473 38.3372L77.1187 38.26ZM78.4507 38.368L78.3128 38.3089L78.3121 38.3106L78.4507 38.368ZM74.1547 35.992L74.0087 35.9574L73.9649 36.142H74.1547V35.992ZM77.2147 35.992V36.142H77.3671L77.3646 35.9895L77.2147 35.992ZM75.8467 33.502C76.7927 33.502 77.4753 33.8722 77.9129 34.4655C78.3544 35.0641 78.5576 35.9054 78.5049 36.8597L78.8044 36.8763C78.8597 35.8746 78.6489 34.9579 78.1544 34.2875C77.656 33.6118 76.8807 33.202 75.8467 33.202V33.502ZM78.5052 36.8555C78.5018 36.8961 78.4883 36.9151 78.478 36.9243C78.4672 36.934 78.4453 36.946 78.4027 36.946V37.246C78.504 37.246 78.6021 37.216 78.6783 37.1477C78.755 37.0789 78.7955 36.9839 78.8041 36.8805L78.5052 36.8555ZM78.4027 36.946H74.0827V37.246H78.4027V36.946ZM73.9328 37.1029C73.9641 37.7848 74.1783 38.2877 74.5302 38.6196C74.8815 38.9509 75.3511 39.094 75.8587 39.094V38.794C75.4062 38.794 75.0178 38.6671 74.7361 38.4014C74.455 38.1363 74.2612 37.7152 74.2325 37.0891L73.9328 37.1029ZM75.8587 39.094C76.1577 39.094 76.4207 39.043 76.6537 38.9189C76.8871 38.7945 77.0789 38.6029 77.2453 38.3403L76.992 38.1797C76.8465 38.4091 76.6902 38.5595 76.5126 38.6541C76.3346 38.749 76.1236 38.794 75.8587 38.794V39.094ZM77.2473 38.3372C77.2747 38.2915 77.2973 38.2713 77.3155 38.2607C77.3331 38.2505 77.3592 38.242 77.4067 38.242V37.942C77.3221 37.942 77.2402 37.9575 77.1648 38.0013C77.09 38.0447 77.0346 38.1085 76.99 38.1828L77.2473 38.3372ZM77.4067 38.242H78.2587V37.942H77.4067V38.242ZM78.2587 38.242C78.3237 38.242 78.3324 38.2615 78.3274 38.2545C78.325 38.2512 78.3263 38.25 78.3264 38.2565C78.3265 38.2642 78.3246 38.2813 78.3128 38.3089L78.5885 38.4271C78.6362 38.3159 78.6475 38.186 78.571 38.0795C78.497 37.9765 78.3736 37.942 78.2587 37.942V38.242ZM78.3121 38.3106C77.8437 39.4415 76.8911 40.042 75.7387 40.042V40.342C77.0102 40.342 78.0736 39.6705 78.5892 38.4254L78.3121 38.3106ZM75.7387 40.042C74.8899 40.042 74.1657 39.7246 73.6529 39.1692C73.1393 38.6131 72.8287 37.8084 72.8287 36.82H72.5287C72.5287 37.8716 72.86 38.7529 73.4325 39.3728C74.0056 39.9934 74.8115 40.342 75.7387 40.342V40.042ZM72.8287 36.82C72.8287 35.831 73.1367 35.0019 73.6628 34.4218C74.1877 33.8429 74.9385 33.502 75.8467 33.502V33.202C74.8589 33.202 74.0256 33.5751 73.4405 34.2202C72.8566 34.8641 72.5287 35.769 72.5287 36.82H72.8287ZM75.7267 34.45C75.19 34.45 74.799 34.6361 74.5216 34.927C74.2486 35.2132 74.0959 35.5898 74.0087 35.9574L74.3006 36.0266C74.3814 35.6862 74.5167 35.3668 74.7387 35.134C74.9563 34.9059 75.2673 34.75 75.7267 34.75V34.45ZM74.1547 36.142H77.2147V35.842H74.1547V36.142ZM77.3646 35.9895C77.3581 35.5903 77.2171 35.2043 76.9383 34.917C76.6579 34.6282 76.2485 34.45 75.7267 34.45V34.75C76.1768 34.75 76.5054 34.9018 76.723 35.126C76.9422 35.3517 77.0592 35.6617 77.0647 35.9945L77.3646 35.9895ZM82.1493 31.384H81.9993L81.9993 31.3856L82.1493 31.384ZM82.2093 36.988H82.3593L82.3593 36.9864L82.2093 36.988ZM80.7213 36.988L80.5713 36.9864V36.988H80.7213ZM80.7813 31.384L80.9313 31.3856V31.384H80.7813ZM81.9993 31.3856L82.0593 36.9896L82.3593 36.9864L82.2993 31.3824L81.9993 31.3856ZM82.0593 36.988C82.0593 37.0401 82.0456 37.0565 82.0417 37.0604C82.0378 37.0643 82.0213 37.078 81.9693 37.078V37.378C82.0732 37.378 82.1767 37.3497 82.2538 37.2726C82.3309 37.1955 82.3593 37.0919 82.3593 36.988H82.0593ZM81.9693 37.078H80.9613V37.378H81.9693V37.078ZM80.9613 37.078C80.9092 37.078 80.8927 37.0643 80.8888 37.0604C80.8849 37.0565 80.8713 37.0401 80.8713 36.988H80.5713C80.5713 37.0919 80.5996 37.1955 80.6767 37.2726C80.7538 37.3497 80.8573 37.378 80.9613 37.378V37.078ZM80.8713 36.9896L80.9313 31.3856L80.6313 31.3824L80.5713 36.9864L80.8713 36.9896ZM80.9313 31.384C80.9313 31.3319 80.9449 31.3155 80.9488 31.3116C80.9527 31.3077 80.9692 31.294 81.0213 31.294V30.994C80.9173 30.994 80.8138 31.0223 80.7367 31.0994C80.6596 31.1765 80.6313 31.2801 80.6313 31.384H80.9313ZM81.0213 31.294H81.9093V30.994H81.0213V31.294ZM81.9093 31.294C81.9613 31.294 81.9778 31.3077 81.9817 31.3116C81.9856 31.3155 81.9993 31.3319 81.9993 31.384H82.2993C82.2993 31.2801 82.2709 31.1765 82.1938 31.0994C82.1167 31.0223 82.0132 30.994 81.9093 30.994V31.294ZM82.0833 38.716V39.76H82.3833V38.716H82.0833ZM82.0833 39.76C82.0833 39.8121 82.0696 39.8285 82.0657 39.8324C82.0618 39.8363 82.0453 39.85 81.9933 39.85V40.15C82.0972 40.15 82.2007 40.1217 82.2778 40.0446C82.3549 39.9675 82.3833 39.8639 82.3833 39.76H82.0833ZM81.9933 39.85H80.8173V40.15H81.9933V39.85ZM80.8173 39.85C80.7652 39.85 80.7487 39.8363 80.7448 39.8324C80.7409 39.8285 80.7273 39.8121 80.7273 39.76H80.4273C80.4273 39.8639 80.4556 39.9675 80.5327 40.0446C80.6098 40.1217 80.7133 40.15 80.8173 40.15V39.85ZM80.7273 39.76V38.716H80.4273V39.76H80.7273ZM80.7273 38.716C80.7273 38.6639 80.7409 38.6475 80.7448 38.6436C80.7487 38.6397 80.7652 38.626 80.8173 38.626V38.326C80.7133 38.326 80.6098 38.3543 80.5327 38.4314C80.4556 38.5085 80.4273 38.6121 80.4273 38.716H80.7273ZM80.8173 38.626H81.9933V38.326H80.8173V38.626ZM81.9933 38.626C82.0453 38.626 82.0618 38.6397 82.0657 38.6436C82.0696 38.6475 82.0833 38.6639 82.0833 38.716H82.3833C82.3833 38.6121 82.3549 38.5085 82.2778 38.4314C82.2007 38.3543 82.0972 38.326 81.9933 38.326V38.626Z" fill="#F5F5F5"/>
<defs>
<linearGradient id="paint0_linear_275_2" x1="14" y1="-1" x2="13.5" y2="20" gradientUnits="userSpaceOnUse">
<stop stop-color="#062F3F"/>
<stop offset="0.395" stop-color="#00AFCD"/>
<stop offset="1" stop-color="#F5F5F5"/>
</linearGradient>
<linearGradient id="paint1_linear_275_2" x1="1.99999" y1="2" x2="12.1858" y2="24.1852" gradientUnits="userSpaceOnUse">
<stop stop-color="#F5F5F5"/>
<stop offset="0.695" stop-color="#00AFCD"/>
<stop offset="1" stop-color="#062F3F"/>
</linearGradient>
<linearGradient id="paint2_linear_275_2" x1="82.5" y1="15.3913" x2="82.4516" y2="71.826" gradientUnits="userSpaceOnUse">
<stop stop-color="#062F3F"/>
<stop offset="0.276644" stop-color="#00AFCD"/>
<stop offset="1" stop-color="white"/>
</linearGradient>
<linearGradient id="paint3_linear_275_2" x1="113.5" y1="35.4783" x2="-7" y2="35.4783" gradientUnits="userSpaceOnUse">
<stop stop-color="#F5F5F5"/>
<stop offset="0.505" stop-color="#00AFCD"/>
<stop offset="1" stop-color="#062F3F"/>
</linearGradient>
</defs>
</svg>
