<?xml version="1.0" encoding="UTF-8" standalone="no"?>
<!-- Created with Inkscape (http://www.inkscape.org/) -->

<svg
   width="26.458334mm"
   height="26.458334mm"
   viewBox="0 0 26.458334 26.458334"
   version="1.1"
   id="svg1"
   xml:space="preserve"
   sodipodi:docname="linkedin-logo.svg"
   inkscape:version="1.3 (0e150ed, 2023-07-21)"
   xmlns:inkscape="http://www.inkscape.org/namespaces/inkscape"
   xmlns:sodipodi="http://sodipodi.sourceforge.net/DTD/sodipodi-0.dtd"
   xmlns="http://www.w3.org/2000/svg"
   xmlns:svg="http://www.w3.org/2000/svg"><sodipodi:namedview
     id="namedview1"
     pagecolor="#ffffff"
     bordercolor="#000000"
     borderopacity="0.25"
     inkscape:showpageshadow="2"
     inkscape:pageopacity="0.0"
     inkscape:pagecheckerboard="0"
     inkscape:deskcolor="#d1d1d1"
     inkscape:document-units="mm"
     inkscape:zoom="3.240896"
     inkscape:cx="30.238551"
     inkscape:cy="53.688856"
     inkscape:window-width="1312"
     inkscape:window-height="449"
     inkscape:window-x="0"
     inkscape:window-y="25"
     inkscape:window-maximized="0"
     inkscape:current-layer="layer1" /><defs
     id="defs1" /><g
     inkscape:label="Layer 1"
     inkscape:groupmode="layer"
     id="layer1"><path
       style="display:none;fill:#fef6f0;fill-opacity:1;stroke:none;stroke-width:1"
       d="m 5.1997915,0.81544233 c -0.121,0.0158 -0.2436,0.0144 -0.3652,0.0295 -0.3104,0.0386 -0.6247,0.10488 -0.9208,0.20730997 -1.38617,0.4795301 -2.49783,1.5813081 -2.95799007,2.9790371 -0.2411,0.73234 -0.2329,1.477475 -0.2329,2.238374 v 2.38129 8.7630026 2.635249 c 0,0.553439 -0.03,1.117043 0.036,1.666873 0.097,0.79957 0.40900007,1.578335 0.89200007,2.222501 0.719,0.95887 1.79359,1.620196 2.97696,1.818716 0.4248,0.0713 0.8562,0.0704 1.28587,0.0704 h 1.3335 9.5091195 3.048 c 0.6366,0 1.29003,0.039 1.92088,-0.0544 1.72673,-0.25559 3.24445,-1.491916 3.7778,-3.168213 0.2498,-0.785439 0.2386,-1.582542 0.2386,-2.397124 V 17.58858 8.0953284 6.2062034 c 0,-0.49843 0.012,-0.99923 -0.071,-1.492249 -0.1211,-0.72145 -0.4146,-1.411839 -0.8485,-2.00025 -0.7562,-1.02564 -1.9259,-1.71517507 -3.1927,-1.86871707 -0.3427,-0.0415 -0.687,-0.0362 -1.03188,-0.0362 h -1.27 -9.4773797 -3.0956198 -1.01604 c -0.1774,0 -0.3638,-0.0163 -0.5398,0.00675 m 1.09536,4.14116907 c 0.1225,-0.0144 0.2434,0.00139 0.3652,0.0099 0.4978,0.0349 1.01268,0.21906 1.36255,0.58942 0.8159,0.86375 0.6764,2.360364 -0.3466,2.998723 -0.2767,0.17268 -0.5978,0.27485 -0.9208,0.31399 -0.6713,0.0814 -1.39092,-0.0697 -1.88906,-0.55171 -0.8261,-0.799359 -0.7266,-2.262115 0.1904,-2.944522 0.3702,-0.27553 0.7913,-0.36307 1.23824,-0.41581 M 21.931161,22.049493 h -3.92112 v -6.254789 c 0,-0.83639 -0.067,-1.942449 -0.8731,-2.421685 -0.2531,-0.15055 -0.5495,-0.21356 -0.8413,-0.21356 -0.2389,0 -0.4705,0.018 -0.6985,0.0965 -0.6169,0.2123 -1.10124,0.79094 -1.27908,1.411625 -0.1008,0.35002 -0.086,0.71911 -0.086,1.079496 v 1.428773 4.873626 h -3.937 c 0,-2.787142 -0.016,-5.577606 -0.016,-8.366125 0,-0.77686 -0.016,-1.555564 -0.016,-2.333625 v -0.65088 c 0,-0.0739 -0.024,-0.197421 0.0095,-0.264831 0.03,-0.0607 0.1576,-0.0368 0.2126,-0.0368 h 0.6667 2.23837 0.5874 c 0.056,0 0.166,-0.0206 0.2126,0.0163 0.031,0.0247 0.025,0.0756 0.025,0.11064 6.6e-4,0.100561 1e-5,0.201101 1e-5,0.301631 0,0.40304 0.016,0.80348 0.016,1.206499 0.4196,-0.62196 0.9005,-1.171596 1.58751,-1.504022 0.5448,-0.26359 1.14708,-0.35335 1.74625,-0.35335 1.25089,0 2.46397,0.420281 3.27637,1.412876 0.1937,0.23659 0.3637,0.50294 0.4978,0.77788 0.6402,1.313427 0.5915,2.752934 0.5915,4.175126 v 5.508625 m -13.4778795,0 h -3.88827 l -0.016,-11.652251 h 2.8575 0.7302 l 0.2761,0.0163 0.025,0.190061 v 0.52387 2.143125 z"
       id="path1"
       sodipodi:insensitive="true" /><path
       style="fill:#fef6f0;fill-opacity:1;stroke-width:1"
       d="M 4.172036,26.386116 C 3.8350621,26.28497 3.4459415,25.949704 3.2584805,25.599001 L 3.0870948,25.278369 3.0636333,13.461404 C 3.0462915,4.725794 3.0632286,1.5372139 3.128644,1.2332316 3.2363377,0.73268201 3.7085399,0.21058226 4.1692611,0.08265285 4.3670253,0.02773935 6.4747186,7.1978635e-4 10.58292,4.3364685e-4 L 16.702013,0 l 3.957834,3.9583828 3.957832,3.9583828 v 8.5571964 c 0,6.54929 -0.02209,8.631067 -0.09406,8.872012 -0.120806,0.404312 -0.639957,0.927974 -1.026349,1.035264 -0.358612,0.09958 -18.9940642,0.104275 -19.3252328,0.0049 z M 23.011491,16.750268 V 8.6428358 H 20.305001 17.59851 L 17.189627,8.4292326 c -0.457,-0.2387403 -0.860751,-0.7099781 -0.98183,-1.1459413 -0.04758,-0.1713144 -0.07929,-1.3597134 -0.07955,-2.9809914 L 16.127816,1.6061964 H 10.391432 4.6550416 V 13.231949 24.857701 h 9.1782244 9.178225 z M 7.3300576,21.884577 C 7.0376032,21.592123 6.9742216,21.312237 7.1276082,20.990583 7.3761719,20.46934 7.031531,20.493204 13.983257,20.515854 l 6.271331,0.02043 0.212053,0.212073 c 0.16973,0.169745 0.212052,0.281672 0.212052,0.560791 0,0.297223 -0.03689,0.381677 -0.249785,0.571901 l -0.249783,0.223184 H 13.864418 7.5497126 Z M 7.5012527,17.935283 C 7.2008508,17.804766 6.9927573,17.382058 7.065612,17.050353 7.092123,16.929648 7.2171798,16.743913 7.3435153,16.637608 l 0.2297011,-0.193281 h 6.2623196 c 4.339796,0 6.318246,0.02549 6.444492,0.083 0.213392,0.09723 0.436907,0.444253 0.436907,0.678328 0,0.285241 -0.229445,0.623204 -0.499777,0.736157 -0.388446,0.162305 -12.3414433,0.156166 -12.7159053,-0.0065 z M 7.3141095,12.702474 C 7.0791741,12.492229 7.0648959,12.450172 7.0739154,11.994987 7.087976,11.285313 7.331958,10.718882 7.8724427,10.141102 8.6124525,9.350029 9.5502541,8.9487767 10.659131,8.9487767 c 1.776694,0 3.267151,1.1454363 3.552889,2.7304423 0.139463,0.773609 -0.15811,1.246789 -0.784081,1.246789 -0.419006,0 -0.700718,-0.296648 -0.768752,-0.809511 -0.122128,-0.920643 -0.830314,-1.489952 -1.922624,-1.545592 -0.576244,-0.02935 -0.642322,-0.01588 -1.1068555,0.225725 -0.6192237,0.322056 -0.9036138,0.698384 -0.9734649,1.288169 -0.065739,0.555059 -0.3316566,0.841209 -0.7817318,0.841209 -0.2353341,0 -0.3711574,-0.05417 -0.5604013,-0.223534 z M 9.7039017,8.3207433 C 9.1155612,8.0949107 8.4835073,7.4511792 8.2548004,6.8448693 8.114647,6.4733175 8.0880209,6.2768615 8.1141942,5.80743 8.1693714,4.8177966 8.6487156,4.0905111 9.5325758,3.6553881 9.9840905,3.4331079 10.115932,3.4038511 10.657522,3.4057533 c 0.49798,0.00174 0.694826,0.039881 1.045475,0.2025297 0.548847,0.2545812 1.019082,0.7240239 1.277615,1.2754606 0.170644,0.3639741 0.202001,0.5343404 0.199169,1.0821097 -0.0029,0.560961 -0.03394,0.7114382 -0.226306,1.0971862 -0.59363,1.1903848 -2.003434,1.7360307 -3.2495733,1.2577038 z M 11.110416,7.0065192 c 0.398953,-0.1666934 0.687167,-0.6005207 0.687167,-1.0343424 0,-0.6680546 -0.484215,-1.1663493 -1.133395,-1.1663493 -0.599815,0 -1.0452637,0.3775602 -1.15969,0.9829487 -0.159948,0.8462281 0.78328,1.561463 1.605918,1.217743 z m 8.496887,-1.8061987 -1.835047,-1.8363256 -0.02058,1.7311225 c -0.01442,1.2124622 0.0057,1.7626426 0.06673,1.836326 0.06949,0.083729 0.448253,0.1052025 1.85563,0.1052025 h 1.768318 z"
       id="path2" /></g></svg>
